B612Mono-Regular.sfdir
StartChar: exclam
Encoding: 241 33 241
GlifName: exclam
Width: 1300
VWidth: 0
Flags: W
LayerCount: 2
Fore
SplineSet
605 1500 m 257
 605 450 l 257
NamedP: "mh01"
 395 429 l 257
 395 1500 l 257
NamedP: "sh02"
 605 1500 l 257
378 106 m 257
NamedP: "sh01"
 378 131 378 131 387.5 153 c 128
 397 175 397 175 413.5 191.5 c 128
 430 208 430 208 452 217.5 c 128
 474 227 474 227 499 227 c 257
NamedP: "mh02"
 524 227 524 227 546 217.5 c 128
 568 208 568 208 584.5 191.5 c 128
 601 175 601 175 610.5 153 c 128
 620 131 620 131 620 106 c 257
NamedP: "mh03"
 620 81 620 81 610.5 58.5 c 128
 601 36 601 36 585 19.5 c 128
 569 3 569 3 547 -7 c 128
 525 -17 525 -17 500 -17 c 257
NamedP: "ab01"
 474 -17 474 -17 452 -7 c 128
 430 3 430 3 413.5 19.5 c 128
 397 36 397 36 387.5 58.5 c 128
 378 81 378 81 378 106 c 257
NamedP: "sh01"
EndSplineSet
PickledDataWithLists: "(dp0
Vcom.fontlab.ttprogram
p1
(c_codecs
encode
p2
(Vdata
p3
Vlatin1
p4
tp5
Rp6
g2
(V<data>\\u000a        <ttProgram>\\u000a          <ttc align=\"round\" code=\"alignh\" point=\"lsb\"/>\\u000a          <ttc code=\"mdeltah\" delta=\"-2\" point=\"mh01\" ppm1=\"22\" ppm2=\"22\"/>\\u000a          <ttc code=\"singleh\" point1=\"lsb\" point2=\"sh01\" round=\"true\"/>\\u000a          <ttc code=\"singleh\" point1=\"sh01\" point2=\"sh02\"/>\\u000a          <ttc code=\"mdeltah\" delta=\"-1\" point=\"mh02\" ppm1=\"22\" ppm2=\"22\"/>\\u000a          <ttc code=\"mdeltah\" delta=\"-4\" point=\"mh03\" ppm1=\"22\" ppm2=\"22\"/>\\u000a          <ttc align=\"round\" code=\"alignv\" point=\"mh02\"/>\\u000a          <ttc code=\"alignb\" point=\"ab01\" zone=\"b: 0\"/>\\u000a          <ttc code=\"mdeltav\" delta=\"-2\" point=\"mh02\" ppm1=\"22\" ppm2=\"22\"/>\\u000a        </ttProgram>\\u000a      </data>
p7
g4
tp8
Rp9
Ntp10
s."
EndChar
StartChar: quotedbl
Encoding: 396 34 396
GlifName: quotedbl
Width: 1300
VWidth: 0
Flags: W
LayerCount: 2
Fore
SplineSet
525 1500 m 257
NamedP: "sh01"
 525 1400 l 257
NamedP: "mh01"
 525 1381 525 1381 523 1357 c 128
 521 1333 521 1333 517.5 1306 c 128
 514 1279 514 1279 510 1251 c 128
 506 1223 506 1223 502 1196 c 257
NamedP: "mh02"
 481 1067 l 257
 394 1067 l 257
NamedP: "sv01"
 372 1196 l 257
 367 1223 367 1223 363 1251 c 128
 359 1279 359 1279 356 1306 c 128
 353 1333 353 1333 351.5 1357 c 128
 350 1381 350 1381 350 1400 c 257
 350 1500 l 257
NamedP: "ah01"
 525 1500 l 257
NamedP: "sh01"
826 1500 m 257
NamedP: "sh02"
 826 1400 l 257
 826 1381 826 1381 824 1357 c 128
 822 1333 822 1333 818.5 1306 c 128
 815 1279 815 1279 811 1251 c 128
 807 1223 807 1223 803 1196 c 257
 782 1067 l 257
NamedP: "mh03"
 695 1067 l 257
NamedP: "sv02"
 673 1196 l 257
 668 1223 668 1223 664 1251 c 128
 660 1279 660 1279 657 1306 c 128
 654 1333 654 1333 652.5 1357 c 128
 651 1381 651 1381 651 1400 c 257
NamedP: "mh04"
 651 1500 l 257
NamedP: "ah02"
 826 1500 l 257
NamedP: "sh02"
EndSplineSet
PickledDataWithLists: "(dp0
Vcom.adobe.type.autohint
p1
(c_codecs
encode
p2
(Vdata
p3
Vlatin1
p4
tp5
Rp6
g2
(V<data>\\u000a        <hintSetList>\\u000a          <hintset pointTag=\"sh01\">\\u000a            <hstem pos=\"1067\" width=\"433\"/>\\u000a            <vstem pos=\"150\" width=\"175\"/>\\u000a            <vstem pos=\"451\" width=\"175\"/>\\u000a          </hintset>\\u000a        </hintSetList>\\u000a      </data>
p7
g4
tp8
Rp9
Ntp10
sVcom.fontlab.ttprogram
p11
(g2
(Vdata
p12
g4
tp13
Rp14
g2
(V<data>\\u000a        <ttProgram>\\u000a          <ttc align=\"round\" code=\"alignh\" point=\"ah01\"/>\\u000a          <ttc align=\"round\" code=\"alignh\" point=\"ah02\"/>\\u000a          <ttc code=\"singleh\" point1=\"ah01\" point2=\"sh01\" stem=\"X: 176\"/>\\u000a          <ttc code=\"mdeltah\" delta=\"-8\" point=\"sh01\" ppm1=\"26\" ppm2=\"26\"/>\\u000a          <ttc code=\"mdeltah\" delta=\"-2\" point=\"mh01\" ppm1=\"26\" ppm2=\"26\"/>\\u000a          <ttc code=\"mdeltah\" delta=\"4\" point=\"mh02\" ppm1=\"26\" ppm2=\"26\"/>\\u000a          <ttc code=\"mdeltah\" delta=\"6\" point=\"ah02\" ppm1=\"26\" ppm2=\"26\"/>\\u000a          <ttc code=\"singleh\" point1=\"ah02\" point2=\"sh02\" stem=\"X: 176\"/>\\u000a          <ttc code=\"mdeltah\" delta=\"-3\" point=\"sh02\" ppm1=\"26\" ppm2=\"26\"/>\\u000a          <ttc code=\"mdeltah\" delta=\"-2\" point=\"mh03\" ppm1=\"26\" ppm2=\"26\"/>\\u000a          <ttc code=\"mdeltah\" delta=\"2\" point=\"mh04\" ppm1=\"26\" ppm2=\"26\"/>\\u000a          <ttc code=\"alignt\" point=\"sh01\" zone=\"t: 1\"/>\\u000a          <ttc code=\"alignt\" point=\"sh02\" zone=\"t: 1\"/>\\u000a          <ttc code=\"singlev\" point1=\"sh01\" point2=\"sv01\" round=\"true\"/>\\u000a          <ttc code=\"singlev\" point1=\"sh02\" point2=\"sv02\" round=\"true\"/>\\u000a        </ttProgram>\\u000a      </data>
p15
g4
tp16
Rp17
Ntp18
s."
EndChar
StartChar: numbersign
Encoding: 337 35 337
GlifName: numbersign
Width: 1300
VWidth: 0
Flags: W
LayerCount: 2
Fore
SplineSet
1250 950 m 257,0,-1
 1250 1100 l 257,1,-1
 1047 1100 l 257,2,-1
 1098 1520 l 257,3,-1
 897 1500 l 257,4,-1
 849 1100 l 257,5,-1
 576 1100 l 257,6,-1
 629 1520 l 257,7,-1
 403 1500 l 257,8,-1
 403 1285 l 257,9,-1
 379 1100 l 257,10,-1
 120 1100 l 257,11,-1
 100 950 l 257,12,-1
 362 950 l 257,13,-1
 311 550 l 257,14,-1
 100 550 l 257,15,-1
 100 400 l 257,16,-1
 294 400 l 257,17,-1
 243 -20 l 257,18,-1
 443 0 l 257,19,-1
 491 400 l 257,20,-1
 764 400 l 257,21,-1
 710 -20 l 257,22,-1
 911 0 l 257,23,-1
 961 400 l 257,24,-1
 1230 400 l 257,25,-1
 1250 550 l 257,26,-1
 978 550 l 257,27,-1
 1028 950 l 257,28,-1
 1250 950 l 257,0,-1
781 550 m 257,29,-1
 510 550 l 257,30,-1
 559 950 l 257,31,-1
 830 950 l 257,32,-1
 781 550 l 257,29,-1
EndSplineSet
EndChar
StartChar: dollar
Encoding: 213 36 213
GlifName: dollar
Width: 1300
VWidth: 0
Flags: W
LayerCount: 2
Fore
SplineSet
992 1300 m 257
NamedP: "pBV"
 954 1331 954 1331 886.5 1356.5 c 0
 819 1382 819 1382 746 1388 c 257
 746 863 l 257
 801 837 801 837 838.5 817.5 c 0
 876 798 876 798 924.5 768 c 0
 973 738 973 738 1004.5 706.5 c 0
 1036 675 1036 675 1065.5 634 c 0
 1095 593 1095 593 1109 542 c 0
 1123 491 1123 491 1123 432 c 256
 1123 251 1123 251 1020.5 138.5 c 0
 918 26 918 26 746 -5 c 257
 746 -200 l 257
 600 -200 l 257
 600 -17 l 257
 490 -15 490 -15 382 19 c 0
 274 53 274 53 205 100 c 257
 323 241 l 257
 354 221 354 221 371.5 210.5 c 0
 389 200 389 200 426.5 182.5 c 0
 464 165 464 165 507.5 156.5 c 0
 551 148 551 148 600 148 c 257
 600 721 l 257
 549 746 549 746 520 761 c 0
 491 776 491 776 445.5 802.5 c 0
 400 829 400 829 373 850 c 0
 346 871 346 871 314 902 c 0
 282 933 282 933 264.5 963.5 c 0
 247 994 247 994 235 1033.5 c 0
 223 1073 223 1073 223 1116 c 256
 223 1217 223 1217 253.5 1293 c 0
 284 1369 284 1369 338.5 1414.5 c 0
 393 1460 393 1460 457.5 1484.5 c 0
 522 1509 522 1509 600 1517 c 257
 600 1700 l 257
 746 1720 l 257
 746 1517 l 257
 943 1506 943 1506 1086 1400 c 257
 992 1300 l 257
NamedP: "pBV"
933 400 m 256
 933 483 933 483 877 543.5 c 0
 821 604 821 604 716 662 c 257
 716 158 l 257
 933 198 933 198 933 400 c 256
413 1147 m 256
 413 1071 413 1071 468.5 1019.5 c 0
 524 968 524 968 630 916 c 257
 630 1383 l 257
 587 1376 587 1376 550.5 1360 c 0
 514 1344 514 1344 481.5 1317 c 0
 449 1290 449 1290 431 1246.5 c 0
 413 1203 413 1203 413 1147 c 256
EndSplineSet
PickledDataWithLists: "(dp0
Vcom.adobe.type.autohint
p1
(c_codecs
encode
p2
(Vdata
p3
Vlatin1
p4
tp5
Rp6
g2
(V<data>\\u000a        <hintSetList>\\u000a          <hintset pointTag=\"hr00\">\\u000a            <hstem pos=\"-17\" width=\"165\"/>\\u000a            <hstem pos=\"1352\" width=\"165\"/>\\u000a            <hstem pos=\"1719\" width=\"-20\"/>\\u000a            <vstem pos=\"111\" width=\"204\"/>\\u000a            <vstem pos=\"805\" width=\"204\"/>\\u000a          </hintset>\\u000a        </hintSetList>\\u000a      </data>
p7
g4
tp8
Rp9
Ntp10
s."
EndChar
StartChar: percent
Encoding: 370 37 370
GlifName: percent
Width: 1300
VWidth: 0
Flags: W
LayerCount: 2
Fore
SplineSet
395 0 m 257,0,-1
 229 0 l 257,1,-1
 905 1500 l 257,2,-1
 1071 1500 l 257,3,-1
 395 0 l 257,0,-1
359 800 m 257,4,5
 289 800 289 800 239.5 827.5 c 128,-1,6
 190 855 190 855 159 903.5 c 128,-1,7
 128 952 128 952 114 1018.5 c 128,-1,8
 100 1085 100 1085 100 1162 c 257,9,10
 100 1238 100 1238 113 1303.5 c 128,-1,11
 126 1369 126 1369 156.5 1416 c 128,-1,12
 187 1463 187 1463 236.5 1490 c 128,-1,13
 286 1517 286 1517 359 1517 c 257,14,15
 429 1517 429 1517 478 1490 c 128,-1,16
 527 1463 527 1463 558 1416 c 128,-1,17
 589 1369 589 1369 603 1303.5 c 128,-1,18
 617 1238 617 1238 617 1162 c 257,19,20
 617 1085 617 1085 603.5 1018.5 c 128,-1,21
 590 952 590 952 560 903.5 c 128,-1,22
 530 855 530 855 480.5 827.5 c 128,-1,23
 431 800 431 800 359 800 c 257,4,5
468 1210 m 257,24,25
 468 1245 468 1245 465 1277 c 128,-1,26
 462 1309 462 1309 451 1333 c 128,-1,27
 440 1357 440 1357 418 1371.5 c 128,-1,28
 396 1386 396 1386 358 1386 c 257,29,30
 321 1386 321 1386 300 1373 c 128,-1,31
 279 1360 279 1360 268.5 1338 c 128,-1,32
 258 1316 258 1316 255 1286.5 c 128,-1,33
 252 1257 252 1257 252 1224 c 257,34,-1
 252 1123 l 257,35,36
 252 1087 252 1087 255 1054.5 c 128,-1,37
 258 1022 258 1022 269 997.5 c 128,-1,38
 280 973 280 973 302.5 958.5 c 128,-1,39
 325 944 325 944 363 944 c 257,40,41
 399 944 399 944 420 957 c 128,-1,42
 441 970 441 970 451.5 992 c 128,-1,43
 462 1014 462 1014 465 1043.5 c 128,-1,44
 468 1073 468 1073 468 1105 c 257,45,-1
 468 1210 l 257,24,25
942 -17 m 257,46,47
 872 -17 872 -17 822.5 10.5 c 128,-1,48
 773 38 773 38 742 86.5 c 128,-1,49
 711 135 711 135 697 201.5 c 128,-1,50
 683 268 683 268 683 345 c 257,51,52
 683 421 683 421 696 486.5 c 128,-1,53
 709 552 709 552 739.5 599 c 128,-1,54
 770 646 770 646 819.5 673 c 128,-1,55
 869 700 869 700 942 700 c 257,56,57
 1012 700 1012 700 1061 673 c 128,-1,58
 1110 646 1110 646 1141 599 c 128,-1,59
 1172 552 1172 552 1186 486.5 c 128,-1,60
 1200 421 1200 421 1200 345 c 257,61,62
 1200 268 1200 268 1186.5 201.5 c 128,-1,63
 1173 135 1173 135 1143 86.5 c 128,-1,64
 1113 38 1113 38 1063.5 10.5 c 128,-1,65
 1014 -17 1014 -17 942 -17 c 257,46,47
1051 393 m 257,66,67
 1051 428 1051 428 1048 460 c 128,-1,68
 1045 492 1045 492 1034 516 c 128,-1,69
 1023 540 1023 540 1001 554.5 c 128,-1,70
 979 569 979 569 941 569 c 257,71,72
 904 569 904 569 883 556 c 128,-1,73
 862 543 862 543 851.5 521 c 128,-1,74
 841 499 841 499 838 469.5 c 128,-1,75
 835 440 835 440 835 407 c 257,76,-1
 835 306 l 257,77,78
 835 270 835 270 838 237.5 c 128,-1,79
 841 205 841 205 852 180.5 c 128,-1,80
 863 156 863 156 885.5 141.5 c 128,-1,81
 908 127 908 127 946 127 c 257,82,83
 982 127 982 127 1003 140 c 128,-1,84
 1024 153 1024 153 1034.5 175 c 128,-1,85
 1045 197 1045 197 1048 226.5 c 128,-1,86
 1051 256 1051 256 1051 288 c 257,87,-1
 1051 393 l 257,66,67
EndSplineSet
EndChar
StartChar: ampersand
Encoding: 99 38 99
GlifName: ampersand
Width: 1300
VWidth: 0
Flags: W
LayerCount: 2
Fore
SplineSet
1176 721 m 257,0,1
 1176 642 1176 642 1168.5 562.5 c 128,-1,2
 1161 483 1161 483 1139.5 408 c 128,-1,3
 1118 333 1118 333 1080.5 265 c 128,-1,4
 1043 197 1043 197 983 141 c 257,5,-1
 1075 141 l 257,6,-1
 1195 -20 l 257,7,-1
 973 -20 l 257,8,-1
 897 77 l 257,9,10
 822 27 822 27 733.5 5 c 128,-1,11
 645 -17 645 -17 549 -17 c 257,12,13
NamedP: "ab01"
 446 -17 446 -17 363 20.5 c 128,-1,14
 280 58 280 58 221.5 122 c 128,-1,15
 163 186 163 186 131.5 270 c 128,-1,16
 100 354 100 354 100 447 c 257,17,18
NamedP: "ah01"
 100 542 100 542 125.5 615.5 c 128,-1,19
 151 689 151 689 191 742.5 c 128,-1,20
 231 796 231 796 278 830 c 128,-1,21
 325 864 325 864 369 881 c 257,22,23
 350 909 350 909 330.5 945.5 c 128,-1,24
 311 982 311 982 295.5 1021 c 128,-1,25
 280 1060 280 1060 270 1100 c 128,-1,26
 260 1140 260 1140 260 1176 c 257,27,28
NamedP: "ah02"
 260 1248 260 1248 279.5 1310 c 128,-1,29
 299 1372 299 1372 342 1418 c 128,-1,30
 385 1464 385 1464 453 1490.5 c 128,-1,31
 521 1517 521 1517 617 1517 c 257,32,33
NamedP: "at01"
 683 1517 683 1517 735.5 1499.5 c 128,-1,34
 788 1482 788 1482 829.5 1455.5 c 128,-1,35
 871 1429 871 1429 902.5 1397.5 c 128,-1,36
 934 1366 934 1366 957 1338 c 257,37,-1
 877 1200 l 257,38,39
 862 1226 862 1226 839 1254 c 128,-1,40
 816 1282 816 1282 783.5 1305.5 c 128,-1,41
 751 1329 751 1329 707.5 1344 c 128,-1,42
 664 1359 664 1359 609 1359 c 257,43,44
 561 1359 561 1359 528.5 1340 c 128,-1,45
 496 1321 496 1321 476 1293 c 128,-1,46
 456 1265 456 1265 447.5 1233 c 128,-1,47
 439 1201 439 1201 439 1175 c 257,48,49
 439 1146 439 1146 449 1112 c 257,50,51
 453 1097 453 1097 464.5 1074 c 128,-1,52
 476 1051 476 1051 497.5 1013.5 c 128,-1,53
 519 976 519 976 553 920.5 c 128,-1,54
 587 865 587 865 636.5 785.5 c 128,-1,55
 686 706 686 706 752.5 599 c 128,-1,56
 819 492 819 492 906 352 c 257,57,58
 930 386 930 386 944.5 423 c 128,-1,59
 959 460 959 460 967.5 502 c 128,-1,60
NamedP: "ah03"
 976 544 976 544 979 592.5 c 128,-1,61
 982 641 982 641 982 700 c 257,62,-1
 1176 721 l 257,0,1
425 700 m 257,63,64
 362 671 362 671 325.5 612 c 128,-1,65
 289 553 289 553 289 457 c 257,66,67
 289 385 289 385 315 331 c 128,-1,68
 341 277 341 277 381.5 241 c 128,-1,69
 422 205 422 205 472.5 187.5 c 128,-1,70
 523 170 523 170 573 170 c 257,71,72
 616 170 616 170 649 175 c 128,-1,73
 682 180 682 180 707 188.5 c 128,-1,74
 732 197 732 197 751.5 208.5 c 128,-1,75
 771 220 771 220 787 234 c 257,76,-1
 425 800 l 257,77,-1
 425 700 l 257,63,64
EndSplineSet
PickledDataWithLists: "(dp0
Vcom.fontlab.ttprogram
p1
(c_codecs
encode
p2
(Vdata
p3
Vlatin1
p4
tp5
Rp6
g2
(V<data>\\u000a        <ttProgram>\\u000a          <ttc align=\"round\" code=\"alignh\" point=\"ah01\"/>\\u000a          <ttc align=\"round\" code=\"alignh\" point=\"ah02\"/>\\u000a          <ttc align=\"round\" code=\"alignh\" point=\"ah03\"/>\\u000a          <ttc code=\"alignt\" point=\"at01\" zone=\"t: 1\"/>\\u000a          <ttc code=\"alignb\" point=\"ab01\" zone=\"b: 0\"/>\\u000a        </ttProgram>\\u000a      </data>
p7
g4
tp8
Rp9
Ntp10
s."
EndChar
StartChar: quotesingle
Encoding: 403 39 403
GlifName: quotesingle
Width: 1300
VWidth: 0
Flags: W
LayerCount: 2
Fore
SplineSet
225 1500 m 257
NamedP: "dh01"
 400 1500 l 257
NamedP: "dh02"
 400 1400 l 257
 400 1325 400 1325 364.5 1240 c 128
 329 1155 329 1155 259 1067 c 257
NamedP: "av01"
 200 1067 l 257
NamedP: "sh01"
 209 1117 209 1117 214.5 1161 c 128
 220 1205 220 1205 222 1245.5 c 128
NamedP: "sh02"
 224 1286 224 1286 224.5 1324 c 128
 225 1362 225 1362 225 1400 c 257
 225 1500 l 257
NamedP: "dh01"
EndSplineSet
PickledDataWithLists: "(dp0
Vcom.adobe.type.autohint
p1
(c_codecs
encode
p2
(Vdata
p3
Vlatin1
p4
tp5
Rp6
g2
(V<data>\\u000a        <hintSetList>\\u000a          <hintset pointTag=\"dh01\">\\u000a            <hstem pos=\"1088\" width=\"-21\"/>\\u000a            <hstem pos=\"1500\" width=\"-20\"/>\\u000a            <vstem pos=\"150\" width=\"175\"/>\\u000a          </hintset>\\u000a        </hintSetList>\\u000a      </data>
p7
g4
tp8
Rp9
Ntp10
sVcom.fontlab.ttprogram
p11
(g2
(Vdata
p12
g4
tp13
Rp14
g2
(V<data>\\u000a        <ttProgram>\\u000a          <ttc code=\"doubleh\" point1=\"dh01\" point2=\"dh02\" stem=\"X: ecart du B\"/>\\u000a          <ttc code=\"singleh\" point1=\"dh01\" point2=\"sh01\"/>\\u000a          <ttc code=\"singleh\" point1=\"dh01\" point2=\"sh02\"/>\\u000a          <ttc code=\"singleh\" point1=\"dh02\" point2=\"rsb\" round=\"true\"/>\\u000a          <ttc align=\"round\" code=\"alignv\" point=\"av01\"/>\\u000a          <ttc code=\"alignt\" point=\"dh01\" zone=\"t: 1\"/>\\u000a        </ttProgram>\\u000a      </data>
p15
g4
tp16
Rp17
Ntp18
s."
EndChar
StartChar: parenleft
Encoding: 365 40 365
GlifName: parenleft
Width: 1300
VWidth: 0
Flags: W
LayerCount: 2
Fore
SplineSet
500 1180 m 257,0,1
NamedP: "ah01"
 500 1269 500 1269 509 1346 c 128,-1,2
 518 1423 518 1423 548.5 1479.5 c 128,-1,3
 579 1536 579 1536 638.5 1568 c 128,-1,4
 698 1600 698 1600 800 1600 c 257,5,6
NamedP: "av01"
 819 1600 819 1600 840 1598.5 c 128,-1,7
 861 1597 861 1597 879.5 1593.5 c 128,-1,8
 898 1590 898 1590 914 1585.5 c 128,-1,9
 930 1581 930 1581 939 1575 c 257,10,-1
 870 1449 l 257,11,-1
 856 1451 l 257,12,13
 849 1452 849 1452 840 1453 c 128,-1,14
 831 1454 831 1454 820 1454 c 257,15,16
 776 1454 776 1454 751.5 1433 c 128,-1,17
 727 1412 727 1412 715.5 1376 c 128,-1,18
 704 1340 704 1340 702 1293 c 128,-1,19
 700 1246 700 1246 700 1194 c 257,20,-1
NamedP: "sh01"
 700 -14 l 257,21,22
NamedP: "sh02"
 700 -66 700 -66 702 -113 c 128,-1,23
 704 -160 704 -160 715.5 -196 c 128,-1,24
 727 -232 727 -232 751.5 -253 c 128,-1,25
 776 -274 776 -274 820 -274 c 257,26,27
 831 -274 831 -274 840 -273.5 c 128,-1,28
 849 -273 849 -273 856 -272 c 257,29,-1
 870 -269 l 257,30,-1
 939 -395 l 257,31,32
 930 -401 930 -401 914 -405.5 c 128,-1,33
 898 -410 898 -410 879.5 -413.5 c 128,-1,34
 861 -417 861 -417 840 -418.5 c 128,-1,35
 819 -420 819 -420 800 -420 c 257,36,37
NamedP: "av02"
 698 -420 698 -420 638.5 -388 c 128,-1,38
 579 -356 579 -356 548.5 -299.5 c 128,-1,39
 518 -243 518 -243 509 -166 c 128,-1,40
 500 -89 500 -89 500 0 c 257,41,-1
NamedP: "ah02"
 500 1180 l 257,0,1
NamedP: "ah01"
EndSplineSet
PickledDataWithLists: "(dp0
Vcom.adobe.type.autohint
p1
(c_codecs
encode
p2
(Vdata
p3
Vlatin1
p4
tp5
Rp6
g2
(V<data>\\u000a        <hintSetList>\\u000a          <hintset pointTag=\"ah01\">\\u000a            <hstem pos=\"-420\" width=\"146\"/>\\u000a            <hstem pos=\"1374\" width=\"146\"/>\\u000a            <vstem pos=\"200\" width=\"200\"/>\\u000a          </hintset>\\u000a        </hintSetList>\\u000a      </data>
p7
g4
tp8
Rp9
Ntp10
sVcom.fontlab.ttprogram
p11
(g2
(Vdata
p12
g4
tp13
Rp14
g2
(V<data>\\u000a        <ttProgram>\\u000a          <ttc align=\"round\" code=\"alignh\" point=\"ah01\"/>\\u000a          <ttc align=\"round\" code=\"alignh\" point=\"ah02\"/>\\u000a          <ttc code=\"singleh\" point1=\"ah01\" point2=\"sh01\" stem=\"X: 199\"/>\\u000a          <ttc code=\"singleh\" point1=\"ah02\" point2=\"sh02\" stem=\"X: 199\"/>\\u000a          <ttc align=\"round\" code=\"alignv\" point=\"av01\"/>\\u000a          <ttc align=\"round\" code=\"alignv\" point=\"av02\"/>\\u000a        </ttProgram>\\u000a      </data>
p15
g4
tp16
Rp17
Ntp18
s."
EndChar
StartChar: parenright
Encoding: 366 41 366
GlifName: parenright
Width: 1300
VWidth: 0
Flags: W
LayerCount: 2
Fore
SplineSet
899 0 m 257
NamedP: "ah02"
 899 -89 899 -89 890 -166 c 128
 881 -243 881 -243 850.5 -299.5 c 128
 820 -356 820 -356 760.5 -388 c 128
 701 -420 701 -420 599 -420 c 257
 579 -420 579 -420 558.5 -418.5 c 128
 538 -417 538 -417 519.5 -413.5 c 128
 501 -410 501 -410 485 -405.5 c 128
 469 -401 469 -401 460 -395 c 257
 529 -269 l 257
 543 -272 l 257
 550 -273 550 -273 559 -273.5 c 128
 568 -274 568 -274 579 -274 c 257
 623 -274 623 -274 647.5 -253 c 128
 672 -232 672 -232 683.5 -196 c 128
 695 -160 695 -160 697 -113 c 128
 699 -66 699 -66 699 -14 c 257
NamedP: "sh01"
 699 1194 l 257
NamedP: "sh02"
 699 1246 699 1246 697 1293 c 128
 695 1340 695 1340 683.5 1376 c 128
 672 1412 672 1412 647.5 1433 c 128
 623 1454 623 1454 579 1454 c 257
 568 1454 568 1454 559 1453 c 128
 550 1452 550 1452 543 1451 c 257
 529 1449 l 257
 460 1575 l 257
 469 1581 469 1581 485 1585.5 c 128
 501 1590 501 1590 519.5 1593.5 c 128
 538 1597 538 1597 558.5 1598.5 c 128
 579 1600 579 1600 599 1600 c 257
NamedP: "av01"
 701 1600 701 1600 760.5 1568 c 128
 820 1536 820 1536 850.5 1479.5 c 128
 881 1423 881 1423 890 1346 c 128
 899 1269 899 1269 899 1180 c 257
NamedP: "ah01"
 899 0 l 257
NamedP: "ah02"
EndSplineSet
PickledDataWithLists: "(dp0
Vcom.adobe.type.autohint
p1
(c_codecs
encode
p2
(Vdata
p3
Vlatin1
p4
tp5
Rp6
g2
(V<data>\\u000a        <hintSetList>\\u000a          <hintset pointTag=\"ah02\">\\u000a            <hstem pos=\"-420\" width=\"146\"/>\\u000a            <hstem pos=\"1374\" width=\"146\"/>\\u000a            <vstem pos=\"499\" width=\"200\"/>\\u000a          </hintset>\\u000a        </hintSetList>\\u000a      </data>
p7
g4
tp8
Rp9
Ntp10
sVcom.fontlab.ttprogram
p11
(g2
(Vdata
p12
g4
tp13
Rp14
g2
(V<data>\\u000a        <ttProgram>\\u000a          <ttc align=\"round\" code=\"alignh\" point=\"ah01\"/>\\u000a          <ttc align=\"round\" code=\"alignh\" point=\"ah02\"/>\\u000a          <ttc code=\"singleh\" point1=\"ah02\" point2=\"sh01\" stem=\"X: 199\"/>\\u000a          <ttc code=\"singleh\" point1=\"ah01\" point2=\"sh02\" stem=\"X: 199\"/>\\u000a          <ttc align=\"round\" code=\"alignv\" point=\"av01\"/>\\u000a          <ttc align=\"round\" code=\"alignv\" point=\"av02\"/>\\u000a        </ttProgram>\\u000a      </data>
p15
g4
tp16
Rp17
Ntp18
s."
EndChar
StartChar: asterisk
Encoding: 125 42 125
GlifName: asterisk
Width: 1300
VWidth: 0
Flags: W
LayerCount: 2
Fore
SplineSet
768 1037 m 257
 847 1040 l 257
 1089 1118 l 257
 1035 1240 l 257
 810 1168 l 257
 744 1118 l 257
 770 1198 l 257
 770 1450 l 257
 637 1436 l 257
 637 1202 l 257
 659 1120 l 257
 593 1172 l 257
 355 1249 l 257
 328 1118 l 257
 551 1045 l 257
 632 1041 l 257
 567 996 l 257
 419 793 l 257
 535 726 l 257
 675 918 l 257
 699 990 l 257
 723 918 l 257
 872 712 l 257
 971 802 l 257
 831 994 l 257
 768 1037 l 257
EndSplineSet
EndChar
StartChar: plus
Encoding: 384 43 384
GlifName: plus
Width: 1300
VWidth: 0
Flags: W
LayerCount: 2
Fore
SplineSet
200 700 m 257
NamedP: "hr00"
 573 700 l 257
 573 1121 l 257
 728 1121 l 257
 728 700 l 257
 1100 700 l 257
 1100 545 l 257
 728 545 l 257
 728 122 l 257
 573 122 l 257
 573 545 l 257
 200 545 l 257
 200 700 l 257
NamedP: "hr00"
EndSplineSet
PickledDataWithLists: "(dp0
Vcom.adobe.type.autohint
p1
(c_codecs
encode
p2
(Vdata
p3
Vlatin1
p4
tp5
Rp6
g2
(V<data>\\u000a        <hintSetList>\\u000a          <hintset pointTag=\"hr00\">\\u000a            <hstem pos=\"545\" width=\"155\"/>\\u000a            <vstem pos=\"473\" width=\"155\"/>\\u000a          </hintset>\\u000a        </hintSetList>\\u000a      </data>
p7
g4
tp8
Rp9
Ntp10
s."
EndChar
StartChar: comma
Encoding: 191 44 191
GlifName: comma
Width: 1300
VWidth: 0
Flags: W
LayerCount: 2
Fore
SplineSet
152 127 m 257,0,1
NamedP: "ah01"
 152 156 152 156 163.5 182.5 c 128,-1,2
 175 209 175 209 195.5 228 c 128,-1,3
 216 247 216 247 243 259 c 128,-1,4
 270 271 270 271 300 271 c 257,5,6
NamedP: "av01"
 329 271 329 271 355.5 260.5 c 128,-1,7
 382 250 382 250 402.5 230 c 128,-1,8
 423 210 423 210 435.5 179.5 c 128,-1,9
 448 149 448 149 448 110 c 257,10,11
NamedP: "ah02"
 448 57 448 57 441.5 7.5 c 128,-1,12
 435 -42 435 -42 414.5 -93 c 128,-1,13
 394 -144 394 -144 356 -197 c 128,-1,14
 318 -250 318 -250 256 -307 c 257,15,-1
 204 -284 l 257,16,17
 227 -240 227 -240 245 -193 c 257,18,19
 260 -154 260 -154 272.5 -107.5 c 128,-1,20
 285 -61 285 -61 285 -17 c 257,21,22
NamedP: "ab01"
 260 -16 260 -16 236 -6 c 128,-1,23
 212 4 212 4 193 21.5 c 128,-1,24
 174 39 174 39 163 66 c 128,-1,25
 152 93 152 93 152 127 c 257,0,1
NamedP: "ah01"
EndSplineSet
PickledDataWithLists: "(dp0
Vcom.adobe.type.autohint
p1
(c_codecs
encode
p2
(Vdata
p3
Vlatin1
p4
tp5
Rp6
g2
(V<data>\\u000a        <hintSetList>\\u000a          <hintset pointTag=\"ah01\">\\u000a            <hstem pos=\"-239\" width=\"-21\"/>\\u000a            <hstem pos=\"226\" width=\"-20\"/>\\u000a            <vstem pos=\"188\" width=\"137\"/>\\u000a          </hintset>\\u000a        </hintSetList>\\u000a      </data>
p7
g4
tp8
Rp9
Ntp10
sVcom.fontlab.ttprogram
p11
(g2
(Vdata
p12
g4
tp13
Rp14
g2
(V<data>\\u000a        <ttProgram>\\u000a          <ttc align=\"round\" code=\"alignh\" point=\"ah01\"/>\\u000a          <ttc align=\"round\" code=\"alignh\" point=\"ah02\"/>\\u000a          <ttc align=\"round\" code=\"alignv\" point=\"av01\"/>\\u000a          <ttc code=\"alignb\" point=\"ab01\" zone=\"b: 0\"/>\\u000a        </ttProgram>\\u000a      </data>
p15
g4
tp16
Rp17
Ntp18
s."
EndChar
StartChar: hyphen
Encoding: 283 45 283
GlifName: hyphen
Width: 1300
VWidth: 0
Flags: W
LayerCount: 2
Fore
SplineSet
400 600 m 257
NamedP: "hr00"
 900 600 l 257
NamedP: "dv02"
 900 445 l 257
NamedP: "dv01"
 400 445 l 257
 400 600 l 257
NamedP: "hr00"
EndSplineSet
PickledDataWithLists: "(dp0
Vcom.adobe.type.autohint
p1
(c_codecs
encode
p2
(Vdata
p3
Vlatin1
p4
tp5
Rp6
g2
(V<data>\\u000a        <hintSetList>\\u000a          <hintset pointTag=\"hr00\">\\u000a            <hstem pos=\"500\" width=\"155\"/>\\u000a          </hintset>\\u000a        </hintSetList>\\u000a      </data>
p7
g4
tp8
Rp9
Ntp10
sVcom.fontlab.ttprogram
p11
(g2
(Vdata
p12
g4
tp13
Rp14
g2
(V<data>\\u000a        <ttProgram>\\u000a          <ttc code=\"doublev\" point1=\"dv01\" point2=\"dv02\" stem=\"Y: 153\"/>\\u000a        </ttProgram>\\u000a      </data>
p15
g4
tp16
Rp17
Ntp18
s."
EndChar
StartChar: period
Encoding: 371 46 371
GlifName: period
Width: 1300
VWidth: 0
Flags: W
LayerCount: 2
Fore
SplineSet
136 150 m 257,0,1
NamedP: "ah01"
 136 184 136 184 149 214 c 128,-1,2
 162 244 162 244 184.5 266.5 c 128,-1,3
 207 289 207 289 236.5 302 c 128,-1,4
 266 315 266 315 300 315 c 257,5,6
NamedP: "av01"
 334 315 334 315 364 302 c 128,-1,7
 394 289 394 289 416.5 266.5 c 128,-1,8
 439 244 439 244 452 214 c 128,-1,9
 465 184 465 184 465 150 c 257,10,11
NamedP: "ah02"
 465 116 465 116 452 85.5 c 128,-1,12
 439 55 439 55 417 32.5 c 128,-1,13
 395 10 395 10 365.5 -3.5 c 128,-1,14
 336 -17 336 -17 302 -17 c 257,15,16
NamedP: "ab01"
 268 -17 268 -17 237.5 -3.5 c 128,-1,17
 207 10 207 10 184.5 32.5 c 128,-1,18
 162 55 162 55 149 85.5 c 128,-1,19
 136 116 136 116 136 150 c 257,0,1
NamedP: "ah01"
EndSplineSet
PickledDataWithLists: "(dp0
Vcom.adobe.type.autohint
p1
(c_codecs
encode
p2
(Vdata
p3
Vlatin1
p4
tp5
Rp6
g2
(V<data>\\u000a        <hintSetList>\\u000a          <hintset pointTag=\"ah01\">\\u000a            <hstem pos=\"-17\" width=\"244\"/>\\u000a            <vstem pos=\"78\" width=\"242\"/>\\u000a          </hintset>\\u000a        </hintSetList>\\u000a      </data>
p7
g4
tp8
Rp9
Ntp10
sVcom.fontlab.ttprogram
p11
(g2
(Vdata
p12
g4
tp13
Rp14
g2
(V<data>\\u000a        <ttProgram>\\u000a          <ttc align=\"round\" code=\"alignh\" point=\"ah01\"/>\\u000a          <ttc align=\"round\" code=\"alignh\" point=\"ah02\"/>\\u000a          <ttc align=\"round\" code=\"alignv\" point=\"av01\"/>\\u000a          <ttc code=\"alignb\" point=\"ab01\" zone=\"b: 0\"/>\\u000a        </ttProgram>\\u000a      </data>
p15
g4
tp16
Rp17
Ntp18
s."
EndChar
StartChar: zero
Encoding: 585 48 585
GlifName: zero
Width: 1300
VWidth: 0
Flags: W
LayerCount: 2
Fore
SplineSet
651 -17 m 257
NamedP: "ab01"
 566 -17 566 -17 495 15.5 c 128
 424 48 424 48 367.5 104 c 128
 311 160 311 160 268.5 235 c 128
 226 310 226 310 197.5 395.5 c 128
 169 481 169 481 155 572 c 128
 141 663 141 663 141 750 c 257
NamedP: "sh01"
 141 840 141 840 153 932 c 128
 165 1024 165 1024 191 1109 c 128
 217 1194 217 1194 257.5 1268.5 c 128
 298 1343 298 1343 354.5 1398 c 128
 411 1453 411 1453 484.5 1485 c 128
 558 1517 558 1517 651 1517 c 257
NamedP: "at01"
 736 1517 736 1517 807 1484.5 c 128
 878 1452 878 1452 934.5 1396 c 128
 991 1340 991 1340 1033.5 1265 c 128
 1076 1190 1076 1190 1104.5 1104.5 c 128
 1133 1019 1133 1019 1147 928 c 128
 1161 837 1161 837 1161 750 c 257
NamedP: "sh02"
 1161 660 1161 660 1149 568 c 128
 1137 476 1137 476 1111 391 c 128
 1085 306 1085 306 1044.5 231.5 c 128
 1004 157 1004 157 947.5 102 c 128
 891 47 891 47 817 15 c 128
 743 -17 743 -17 651 -17 c 257
NamedP: "ab01"
348 793 m 257
NamedP: "sh03"
 348 735 348 735 352 665.5 c 128
 356 596 356 596 368 525.5 c 128
 380 455 380 455 401.5 389 c 128
 423 323 423 323 457.5 271.5 c 128
 492 220 492 220 541.5 189 c 128
 591 158 591 158 659 158 c 257
NamedP: "sv01"
 720 158 720 158 765.5 181.5 c 128
 811 205 811 205 844 245.5 c 128
 877 286 877 286 898 339.5 c 128
 919 393 919 393 931.5 454 c 128
 944 515 944 515 949 580 c 128
 954 645 954 645 954 707 c 257
NamedP: "ah01"
 954 765 954 765 950 834.5 c 128
 946 904 946 904 934 974 c 128
 922 1044 922 1044 900.5 1110.5 c 128
 879 1177 879 1177 844.5 1228 c 128
 810 1279 810 1279 760.5 1310 c 128
 711 1341 711 1341 643 1341 c 257
NamedP: "sv02"
 582 1341 582 1341 536.5 1317.5 c 128
 491 1294 491 1294 458 1254 c 128
 425 1214 425 1214 404 1160 c 128
 383 1106 383 1106 370.5 1045 c 128
 358 984 358 984 353 919.5 c 128
 348 855 348 855 348 793 c 257
NamedP: "sh03"
EndSplineSet
PickledDataWithLists: "(dp0
Vcom.adobe.type.autohint
p1
(c_codecs
encode
p2
(Vdata
p3
Vlatin1
p4
tp5
Rp6
g2
(V<data>\\u000a        <hintSetList>\\u000a          <hintset pointTag=\"ab01\">\\u000a            <hstem pos=\"1341\" width=\"176\"/>\\u000a            <vstem pos=\"100\" width=\"207\"/>\\u000a            <vstem pos=\"913\" width=\"207\"/>\\u000a          </hintset>\\u000a        </hintSetList>\\u000a      </data>
p7
g4
tp8
Rp9
Ntp10
sVcom.fontlab.ttprogram
p11
(g2
(Vdata
p12
g4
tp13
Rp14
g2
(V<data>\\u000a        <ttProgram>\\u000a          <ttc align=\"round\" code=\"alignh\" point=\"lsb\"/>\\u000a          <ttc align=\"round\" code=\"alignh\" point=\"ah01\"/>\\u000a          <ttc code=\"singleh\" point1=\"lsb\" point2=\"sh01\" round=\"true\"/>\\u000a          <ttc code=\"singleh\" point1=\"ah01\" point2=\"sh02\" stem=\"X: 208\"/>\\u000a          <ttc code=\"singleh\" point1=\"sh01\" point2=\"sh03\" stem=\"X: 208\"/>\\u000a          <ttc code=\"singleh\" point1=\"sh02\" point2=\"rsb\"/>\\u000a          <ttc code=\"alignt\" point=\"at01\" zone=\"t: 1\"/>\\u000a          <ttc code=\"alignb\" point=\"ab01\" zone=\"b: 0\"/>\\u000a          <ttc code=\"singlev\" point1=\"ab01\" point2=\"sv01\" stem=\"Y: 171\"/>\\u000a          <ttc code=\"singlev\" point1=\"at01\" point2=\"sv02\" stem=\"Y: 171\"/>\\u000a        </ttProgram>\\u000a      </data>
p15
g4
tp16
Rp17
Ntp18
s."
EndChar
StartChar: one
Encoding: 348 49 348
GlifName: one
Width: 1300
VWidth: 0
Flags: W
LayerCount: 2
Fore
SplineSet
238 0 m 257
NamedP: "ab01"
 238 160 l 257
NamedP: "sh01"
 583 160 l 257
NamedP: "dh01"
 583 1126 l 257
 641 1353 l 257
NamedP: "ih01"
 505 1167 l 257
NamedP: "fh01"
 293 979 l 257
NamedP: "fh02"
 185 1100 l 257
NamedP: "fh03"
 643 1520 l 257
NamedP: "at01"
 793 1500 l 257
 793 160 l 257
NamedP: "dh02"
 1138 160 l 257
NamedP: "sh02"
 1138 0 l 257
NamedP: "ab02"
 238 0 l 257
NamedP: "ab01"
EndSplineSet
PickledDataWithLists: "(dp0
Vcom.adobe.type.autohint
p1
(c_codecs
encode
p2
(Vdata
p3
Vlatin1
p4
tp5
Rp6
g2
(V<data>\\u000a        <hintSetList>\\u000a          <hintset pointTag=\"ab01\">\\u000a            <hstem pos=\"0\" width=\"160\"/>\\u000a            <hstem pos=\"1520\" width=\"-20\"/>\\u000a            <vstem pos=\"683\" width=\"210\"/>\\u000a          </hintset>\\u000a        </hintSetList>\\u000a      </data>
p7
g4
tp8
Rp9
Ntp10
sVcom.fontlab.ttprogram
p11
(g2
(Vdata
p12
g4
tp13
Rp14
g2
(V<data>\\u000a        <ttProgram>\\u000a          <ttc code=\"doubleh\" point1=\"dh01\" point2=\"dh02\" stem=\"X: 208\"/>\\u000a          <ttc code=\"singleh\" point1=\"dh01\" point2=\"sh01\" round=\"true\"/>\\u000a          <ttc code=\"interpolateh\" point=\"ih01\" point1=\"dh01\" point2=\"dh02\"/>\\u000a          <ttc code=\"singleh\" point1=\"dh02\" point2=\"sh02\" round=\"true\"/>\\u000a          <ttc code=\"alignt\" point=\"at01\" zone=\"t: 1\"/>\\u000a          <ttc code=\"alignb\" point=\"ab01\" zone=\"b: 0\"/>\\u000a          <ttc code=\"alignb\" point=\"ab02\" zone=\"b: 0\"/>\\u000a          <ttc code=\"singlev\" point1=\"ab01\" point2=\"sh01\" stem=\"Y: 162\"/>\\u000a          <ttc code=\"singlev\" point1=\"ab02\" point2=\"sh02\" stem=\"Y: 162\"/>\\u000a          <ttc code=\"fdeltah\" delta=\"-4\" point=\"fh01\" ppm1=\"33\" ppm2=\"33\"/>\\u000a          <ttc code=\"fdeltah\" delta=\"-3\" point=\"fh01\" ppm1=\"37\" ppm2=\"37\"/>\\u000a          <ttc code=\"fdeltah\" delta=\"-2\" point=\"fh01\" ppm1=\"31\" ppm2=\"31\"/>\\u000a          <ttc code=\"fdeltah\" delta=\"-1\" point=\"fh01\" ppm1=\"29\" ppm2=\"29\"/>\\u000a          <ttc code=\"fdeltah\" delta=\"-1\" point=\"fh01\" ppm1=\"32\" ppm2=\"32\"/>\\u000a          <ttc code=\"fdeltah\" delta=\"3\" point=\"fh02\" ppm1=\"40\" ppm2=\"40\"/>\\u000a          <ttc code=\"fdeltah\" delta=\"5\" point=\"fh02\" ppm1=\"42\" ppm2=\"42\"/>\\u000a          <ttc code=\"fdeltah\" delta=\"6\" point=\"fh02\" ppm1=\"39\" ppm2=\"39\"/>\\u000a          <ttc code=\"fdeltah\" delta=\"4\" point=\"fh03\" ppm1=\"39\" ppm2=\"39\"/>\\u000a          <ttc code=\"fdeltah\" delta=\"-4\" point=\"at01\" ppm1=\"41\" ppm2=\"41\"/>\\u000a          <ttc code=\"fdeltah\" delta=\"-3\" point=\"at01\" ppm1=\"38\" ppm2=\"38\"/>\\u000a          <ttc code=\"fdeltah\" delta=\"-3\" point=\"at01\" ppm1=\"42\" ppm2=\"43\"/>\\u000a          <ttc code=\"fdeltah\" delta=\"-2\" point=\"at01\" ppm1=\"37\" ppm2=\"37\"/>\\u000a          <ttc code=\"fdeltah\" delta=\"-2\" point=\"at01\" ppm1=\"39\" ppm2=\"40\"/>\\u000a          <ttc code=\"fdeltah\" delta=\"-1\" point=\"at01\" ppm1=\"36\" ppm2=\"36\"/>\\u000a          <ttc code=\"fdeltav\" delta=\"-6\" point=\"fh02\" ppm1=\"38\" ppm2=\"38\"/>\\u000a          <ttc code=\"fdeltav\" delta=\"-1\" point=\"fh02\" ppm1=\"39\" ppm2=\"39\"/>\\u000a          <ttc code=\"fdeltav\" delta=\"1\" point=\"fh02\" ppm1=\"40\" ppm2=\"40\"/>\\u000a          <ttc code=\"fdeltav\" delta=\"1\" point=\"fh02\" ppm1=\"42\" ppm2=\"42\"/>\\u000a          <ttc code=\"fdeltav\" delta=\"-4\" point=\"fh03\" ppm1=\"41\" ppm2=\"41\"/>\\u000a          <ttc code=\"fdeltav\" delta=\"1\" point=\"fh03\" ppm1=\"39\" ppm2=\"39\"/>\\u000a        </ttProgram>\\u000a      </data>
p15
g4
tp16
Rp17
Ntp18
s."
EndChar
StartChar: two
Encoding: 534 50 534
GlifName: two
Width: 1300
VWidth: 0
Flags: W
LayerCount: 2
Fore
SplineSet
183 0 m 257
NamedP: "sh01"
 183 168 l 257
 229 241 229 241 283 312 c 128
 337 383 337 383 392.5 449.5 c 128
 448 516 448 516 501 576.5 c 128
 554 637 554 637 599 688 c 257
 651 748 651 748 699.5 798.5 c 128
 748 849 748 849 785 898 c 128
 822 947 822 947 844 999.5 c 128
 866 1052 866 1052 866 1115 c 257
NamedP: "dh01"
 866 1163 866 1163 848 1205.5 c 128
 830 1248 830 1248 797.5 1279.5 c 128
 765 1311 765 1311 720 1329.5 c 128
 675 1348 675 1348 621 1348 c 257
NamedP: "sv01"
 560 1348 560 1348 515.5 1331.5 c 128
 471 1315 471 1315 437.5 1288 c 128
 404 1261 404 1261 379.5 1227.5 c 128
 355 1194 355 1194 334 1160 c 257
 193 1220 l 257
 219 1285 219 1285 259.5 1339.5 c 128
 300 1394 300 1394 355 1433.5 c 128
 410 1473 410 1473 480 1495 c 128
 550 1517 550 1517 636 1517 c 257
NamedP: "at01"
 737 1517 737 1517 816 1481 c 128
 895 1445 895 1445 949.5 1386.5 c 128
 1004 1328 1004 1328 1032.5 1254 c 128
 1061 1180 1061 1180 1061 1104 c 257
NamedP: "dh02"
 1061 1027 1061 1027 1032.5 957.5 c 128
 1004 888 1004 888 961.5 825.5 c 128
 919 763 919 763 870 708 c 128
 821 653 821 653 780 605 c 257
 728 544 728 544 676 485 c 128
 624 426 624 426 576.5 369.5 c 128
 529 313 529 313 488 260.5 c 128
 447 208 447 208 417 160 c 257
NamedP: "sv02"
 1117 160 l 257
 1117 0 l 257
 183 0 l 257
NamedP: "sh01"
EndSplineSet
PickledDataWithLists: "(dp0
Vcom.adobe.type.autohint
p1
(c_codecs
encode
p2
(Vdata
p3
Vlatin1
p4
tp5
Rp6
g2
(V<data>\\u000a        <hintSetList>\\u000a          <hintset pointTag=\"sh01\">\\u000a            <hstem pos=\"0\" width=\"160\"/>\\u000a            <hstem pos=\"1348\" width=\"169\"/>\\u000a            <vstem pos=\"836\" width=\"195\"/>\\u000a          </hintset>\\u000a        </hintSetList>\\u000a      </data>
p7
g4
tp8
Rp9
Ntp10
sVcom.fontlab.ttprogram
p11
(g2
(Vdata
p12
g4
tp13
Rp14
g2
(V<data>\\u000a        <ttProgram>\\u000a          <ttc align=\"round\" code=\"alignh\" point=\"lsb\"/>\\u000a          <ttc code=\"doubleh\" point1=\"dh01\" point2=\"dh02\" stem=\"X: 199\"/>\\u000a          <ttc code=\"singleh\" point1=\"lsb\" point2=\"sh01\"/>\\u000a          <ttc code=\"singleh\" point1=\"dh02\" point2=\"rsb\" round=\"true\"/>\\u000a          <ttc code=\"alignt\" point=\"at01\" zone=\"t: 1\"/>\\u000a          <ttc code=\"alignb\" point=\"sh01\" zone=\"b: 0\"/>\\u000a          <ttc code=\"singlev\" point1=\"at01\" point2=\"sv01\" stem=\"Y: 171\"/>\\u000a          <ttc code=\"singlev\" point1=\"sh01\" point2=\"sv02\" stem=\"Y: 162\"/>\\u000a        </ttProgram>\\u000a      </data>
p15
g4
tp16
Rp17
Ntp18
s."
EndChar
StartChar: three
Encoding: 522 51 522
GlifName: three
Width: 1300
VWidth: 0
Flags: W
LayerCount: 2
Fore
SplineSet
227 1340 m 257,0,-1
NamedP: "sv01"
 242 1500 l 257,1,-1
NamedP: "at01"
 1022 1500 l 257,2,-1
 1022 1360 l 257,3,4
 1010 1320 1010 1320 981.5 1276.5 c 128,-1,5
 953 1233 953 1233 914.5 1188.5 c 128,-1,6
 876 1144 876 1144 830.5 1101 c 128,-1,7
 785 1058 785 1058 739 1019 c 257,8,-1
 607 945 l 257,9,10
 617 947 617 947 632.5 947.5 c 128,-1,11
 648 948 648 948 662 948 c 257,12,13
NamedP: "dv02"
 759 948 759 948 842.5 924 c 128,-1,14
 926 900 926 900 987.5 851.5 c 128,-1,15
 1049 803 1049 803 1084.5 728.5 c 128,-1,16
 1120 654 1120 654 1120 553 c 257,17,18
NamedP: "dh04"
 1120 456 1120 456 1084 377 c 128,-1,19
 1048 298 1048 298 985.5 236.5 c 128,-1,20
 923 175 923 175 839 130.5 c 128,-1,21
 755 86 755 86 659.5 57 c 128,-1,22
 564 28 564 28 462 14 c 128,-1,23
 360 0 360 0 262 0 c 257,24,-1
NamedP: "ab01"
 262 160 l 257,25,26
NamedP: "dh01"
 345 163 345 163 425 175 c 128,-1,27
 505 187 505 187 577 208.5 c 128,-1,28
 649 230 649 230 710 261 c 128,-1,29
 771 292 771 292 815.5 333.5 c 128,-1,30
 860 375 860 375 885 427.5 c 128,-1,31
 910 480 910 480 910 543 c 257,32,33
NamedP: "dh03"
 910 615 910 615 879.5 663 c 128,-1,34
 849 711 849 711 796 739 c 128,-1,35
 743 767 743 767 671.5 778.5 c 128,-1,36
 600 790 600 790 518 790 c 257,37,38
NamedP: "dv01"
 486 790 486 790 448.5 788.5 c 128,-1,39
 411 787 411 787 381 785 c 257,40,-1
NamedP: "dh02"
 381 940 l 257,41,42
 422 970 422 970 470 1008 c 128,-1,43
 518 1046 518 1046 567 1087.5 c 128,-1,44
 616 1129 616 1129 662.5 1171.5 c 128,-1,45
 709 1214 709 1214 747 1252.5 c 128,-1,46
 785 1291 785 1291 811 1324.5 c 128,-1,47
 837 1358 837 1358 845 1380 c 257,48,-1
NamedP: "iv01"
 693 1340 l 257,49,-1
 227 1340 l 257,0,-1
NamedP: "sv01"
EndSplineSet
PickledDataWithLists: "(dp0
Vcom.adobe.type.autohint
p1
(c_codecs
encode
p2
(Vdata
p3
Vlatin1
p4
tp5
Rp6
g2
(V<data>\\u000a        <hintSetList>\\u000a          <hintset pointTag=\"sv01\">\\u000a            <hstem pos=\"0\" width=\"160\"/>\\u000a            <hstem pos=\"790\" width=\"158\"/>\\u000a            <hstem pos=\"1340\" width=\"160\"/>\\u000a            <vstem pos=\"849\" width=\"210\"/>\\u000a          </hintset>\\u000a        </hintSetList>\\u000a      </data>
p7
g4
tp8
Rp9
Ntp10
sVcom.fontlab.ttprogram
p11
(g2
(Vdata
p12
g4
tp13
Rp14
g2
(V<data>\\u000a        <ttProgram>\\u000a          <ttc code=\"doubleh\" point1=\"dh01\" point2=\"dh02\" stem=\"X: ecart du B\"/>\\u000a          <ttc code=\"doubleh\" point1=\"dh03\" point2=\"dh04\" stem=\"X: 208\"/>\\u000a          <ttc code=\"singleh\" point1=\"dh04\" point2=\"rsb\"/>\\u000a          <ttc code=\"alignt\" point=\"at01\" zone=\"t: 1\"/>\\u000a          <ttc code=\"alignb\" point=\"ab01\" zone=\"b: 0\"/>\\u000a          <ttc code=\"doublev\" point1=\"dv01\" point2=\"dv02\" stem=\"Y: 153\"/>\\u000a          <ttc code=\"singlev\" point1=\"at01\" point2=\"sv01\" stem=\"Y: 162\"/>\\u000a          <ttc code=\"singlev\" point1=\"ab01\" point2=\"dh01\" stem=\"Y: 162\"/>\\u000a          <ttc code=\"interpolatev\" point=\"iv01\" point1=\"at01\" point2=\"sv01\"/>\\u000a        </ttProgram>\\u000a      </data>
p15
g4
tp16
Rp17
Ntp18
s."
EndChar
StartChar: four
Encoding: 260 52 260
GlifName: four
Width: 1300
VWidth: 0
Flags: W
LayerCount: 2
Fore
SplineSet
1136 300 m 257
NamedP: "dv01"
 956 300 l 257
 956 0 l 257
NamedP: "dh02"
 746 0 l 257
NamedP: "dh01"
 746 300 l 257
NamedP: "sv01"
 151 300 l 257
 151 471 l 257
NamedP: "sh01"
 635 1520 l 257
NamedP: "at01"
 824 1500 l 257
NamedP: "ih01"
 409 600 l 257
 316 460 l 257
 746 460 l 257
NamedP: "sh02"
 746 867 l 257
 956 850 l 257
NamedP: "sh03"
 956 460 l 257
 1151 460 l 257
NamedP: "dv02"
 1136 300 l 257
NamedP: "dv01"
EndSplineSet
PickledDataWithLists: "(dp0
Vcom.adobe.type.autohint
p1
(c_codecs
encode
p2
(Vdata
p3
Vlatin1
p4
tp5
Rp6
g2
(V<data>\\u000a        <hintSetList>\\u000a          <hintset pointTag=\"dv01\">\\u000a            <hstem pos=\"21\" width=\"-21\"/>\\u000a            <hstem pos=\"300\" width=\"160\"/>\\u000a            <hstem pos=\"1520\" width=\"-20\"/>\\u000a            <vstem pos=\"696\" width=\"210\"/>\\u000a          </hintset>\\u000a        </hintSetList>\\u000a      </data>
p7
g4
tp8
Rp9
Ntp10
sVcom.fontlab.ttprogram
p11
(g2
(Vdata
p12
g4
tp13
Rp14
g2
(V<data>\\u000a        <ttProgram>\\u000a          <ttc align=\"round\" code=\"alignh\" point=\"lsb\"/>\\u000a          <ttc code=\"doubleh\" point1=\"dh01\" point2=\"dh02\" stem=\"X: 208\"/>\\u000a          <ttc code=\"singleh\" point1=\"lsb\" point2=\"sh01\" round=\"true\"/>\\u000a          <ttc code=\"interpolateh\" point=\"ih01\" point1=\"dh01\" point2=\"dh02\"/>\\u000a          <ttc code=\"singleh\" point1=\"dh01\" point2=\"sh02\"/>\\u000a          <ttc code=\"singleh\" point1=\"dh02\" point2=\"sh03\"/>\\u000a          <ttc code=\"alignt\" point=\"at01\" zone=\"t: 1\"/>\\u000a          <ttc code=\"alignb\" point=\"dh02\" zone=\"b: 0\"/>\\u000a          <ttc code=\"doublev\" point1=\"dv01\" point2=\"dv02\" stem=\"Y: 162\"/>\\u000a          <ttc code=\"singlev\" point1=\"dv01\" point2=\"sv01\"/>\\u000a          <ttc code=\"interpolatev\" point=\"ih01\" point1=\"dh02\" point2=\"at01\"/>\\u000a        </ttProgram>\\u000a      </data>
p15
g4
tp16
Rp17
Ntp18
s."
EndChar
StartChar: five
Encoding: 252 53 252
GlifName: five
Width: 1300
VWidth: 0
Flags: W
LayerCount: 2
Fore
SplineSet
456 982 m 257
NamedP: "hr00"
 463 986 463 986 480.5 995 c 128
 498 1004 498 1004 524 1013 c 128
 550 1022 550 1022 583.5 1028.5 c 128
 617 1035 617 1035 658 1035 c 257
NamedP: "dv01"
 762 1035 762 1035 843.5 1002.5 c 128
 925 970 925 970 981.5 913.5 c 128
 1038 857 1038 857 1067.5 781 c 128
 1097 705 1097 705 1097 619 c 257
NamedP: "dh02"
 1097 518 1097 518 1061 432.5 c 128
 1025 347 1025 347 962.5 278.5 c 128
 900 210 900 210 816.5 158 c 128
 733 106 733 106 638.5 70.5 c 128
 544 35 544 35 444 17.5 c 128
 344 0 344 0 248 0 c 257
NamedP: "av01"
 248 160 l 257
NamedP: "sh01"
 323 162 323 162 400 178 c 128
 477 194 477 194 548.5 222 c 128
 620 250 620 250 682.5 289 c 128
 745 328 745 328 791.5 376 c 128
 838 424 838 424 865 480 c 128
 892 536 892 536 892 598 c 257
NamedP: "dh01"
 892 649 892 649 875.5 697 c 128
 859 745 859 745 826.5 782.5 c 128
 794 820 794 820 745 843 c 128
 696 866 696 866 631 866 c 257
NamedP: "dv02"
 580 866 580 866 539 859.5 c 128
 498 853 498 853 466 843 c 128
 434 833 434 833 410.5 821.5 c 128
 387 810 387 810 372 800 c 257
 248 800 l 257
NamedP: "sh02"
 248 1500 l 257
NamedP: "at01"
 1001 1500 l 257
NamedP: "at02"
 1001 1340 l 257
NamedP: "sv01"
 456 1340 l 257
NamedP: "sh03"
 456 982 l 257
NamedP: "hr00"
EndSplineSet
PickledDataWithLists: "(dp0
Vcom.adobe.type.autohint
p1
(c_codecs
encode
p2
(Vdata
p3
Vlatin1
p4
tp5
Rp6
g2
(V<data>\\u000a        <hintSetList>\\u000a          <hintset pointTag=\"hr00\">\\u000a            <hstem pos=\"0\" width=\"160\"/>\\u000a            <hstem pos=\"866\" width=\"169\"/>\\u000a            <hstem pos=\"1340\" width=\"160\"/>\\u000a            <vstem pos=\"218\" width=\"208\"/>\\u000a            <vstem pos=\"862\" width=\"205\"/>\\u000a          </hintset>\\u000a        </hintSetList>\\u000a      </data>
p7
g4
tp8
Rp9
Ntp10
sVcom.fontlab.ttprogram
p11
(g2
(Vdata
p12
g4
tp13
Rp14
g2
(V<data>\\u000a        <ttProgram>\\u000a          <ttc align=\"round\" code=\"alignh\" point=\"lsb\"/>\\u000a          <ttc code=\"doubleh\" point1=\"dh01\" point2=\"dh02\" stem=\"X: 208\"/>\\u000a          <ttc code=\"singleh\" point1=\"lsb\" point2=\"sh01\" round=\"true\"/>\\u000a          <ttc code=\"singleh\" point1=\"lsb\" point2=\"sh02\" round=\"true\"/>\\u000a          <ttc code=\"singleh\" point1=\"sh02\" point2=\"sh03\" stem=\"X: 208\"/>\\u000a          <ttc align=\"right\" code=\"alignv\" point=\"av01\"/>\\u000a          <ttc code=\"alignt\" point=\"at01\" zone=\"t: 1\"/>\\u000a          <ttc code=\"alignt\" point=\"at02\" zone=\"t: 1\"/>\\u000a          <ttc code=\"doublev\" point1=\"dv01\" point2=\"dv02\" stem=\"Y: 171\"/>\\u000a          <ttc align=\"round\" code=\"singlev\" point1=\"av01\" point2=\"sh01\" stem=\"Y: 162\"/>\\u000a          <ttc code=\"singlev\" point1=\"at01\" point2=\"sv01\" stem=\"Y: 162\"/>\\u000a        </ttProgram>\\u000a      </data>
p15
g4
tp16
Rp17
Ntp18
s."
EndChar
StartChar: six
Encoding: 447 54 447
GlifName: six
Width: 1300
VWidth: 0
Flags: W
LayerCount: 2
Fore
SplineSet
959 1344 m 257
NamedP: "sh01"
 952 1346 952 1346 938.5 1346.5 c 128
 925 1347 925 1347 914 1347 c 257
NamedP: "sv01"
 842 1347 842 1347 774 1324.5 c 128
 706 1302 706 1302 646 1261 c 128
 586 1220 586 1220 535.5 1163 c 128
 485 1106 485 1106 446.5 1037.5 c 128
 408 969 408 969 383 891 c 128
 358 813 358 813 350 730 c 257
NamedP: "sh04"
 433 847 l 257
 458 863 458 863 491.5 877.5 c 128
 525 892 525 892 562 903 c 128
 599 914 599 914 637 920.5 c 128
 675 927 675 927 709 927 c 257
NamedP: "dv02"
 796 927 796 927 876.5 903 c 128
 957 879 957 879 1019.5 829 c 128
 1082 779 1082 779 1119.5 700.5 c 128
 1157 622 1157 622 1157 513 c 257
NamedP: "sh05"
 1157 405 1157 405 1120.5 308.5 c 128
 1084 212 1084 212 1018 139.5 c 128
 952 67 952 67 860 25 c 128
 768 -17 768 -17 656 -17 c 257
NamedP: "ab01"
 558 -17 558 -17 482.5 14.5 c 128
 407 46 407 46 351 98 c 128
 295 150 295 150 257.5 217 c 128
 220 284 220 284 196.5 354.5 c 128
 173 425 173 425 163 494 c 128
 153 563 153 563 153 620 c 257
NamedP: "sh02"
 153 739 153 739 177.5 852 c 128
 202 965 202 965 248.5 1064.5 c 128
 295 1164 295 1164 362 1247.5 c 128
 429 1331 429 1331 514.5 1390.5 c 128
 600 1450 600 1450 702.5 1483.5 c 128
 805 1517 805 1517 923 1517 c 257
NamedP: "at01"
 938 1517 938 1517 956 1516.5 c 128
 974 1516 974 1516 984 1514 c 257
NamedP: "at02"
 959 1344 l 257
NamedP: "sh01"
359 597 m 257
NamedP: "sh03"
 359 569 359 569 359.5 546 c 128
 360 523 360 523 362 501 c 128
 364 479 364 479 368 456.5 c 128
 372 434 372 434 379 407 c 257
 393 350 393 350 417.5 303.5 c 128
 442 257 442 257 476.5 223.5 c 128
 511 190 511 190 556.5 171.5 c 128
 602 153 602 153 659 153 c 257
NamedP: "sv02"
 738 153 738 153 793.5 183 c 128
 849 213 849 213 884 262.5 c 128
 919 312 919 312 935.5 375 c 128
 952 438 952 438 952 503 c 257
NamedP: "ah01"
 952 566 952 566 933.5 614 c 128
 915 662 915 662 881 693.5 c 128
 847 725 847 725 799.5 741 c 128
 752 757 752 757 694 757 c 257
NamedP: "dv01"
 640 757 640 757 589 744 c 128
 538 731 538 731 493.5 709 c 128
 449 687 449 687 414.5 658 c 128
 380 629 380 629 359 597 c 257
NamedP: "sh03"
EndSplineSet
PickledDataWithLists: "(dp0
Vcom.adobe.type.autohint
p1
(c_codecs
encode
p2
(Vdata
p3
Vlatin1
p4
tp5
Rp6
g2
(V<data>\\u000a        <hintSetList>\\u000a          <hintset pointTag=\"sh01\">\\u000a            <hstem pos=\"-17\" width=\"170\"/>\\u000a            <hstem pos=\"757\" width=\"170\"/>\\u000a            <hstem pos=\"1347\" width=\"170\"/>\\u000a            <vstem pos=\"123\" width=\"206\"/>\\u000a            <vstem pos=\"922\" width=\"205\"/>\\u000a          </hintset>\\u000a        </hintSetList>\\u000a      </data>
p7
g4
tp8
Rp9
Ntp10
sVcom.fontlab.ttprogram
p11
(g2
(Vdata
p12
g4
tp13
Rp14
g2
(V<data>\\u000a        <ttProgram>\\u000a          <ttc align=\"round\" code=\"alignh\" point=\"lsb\"/>\\u000a          <ttc align=\"round\" code=\"alignh\" point=\"ah01\"/>\\u000a          <ttc code=\"singleh\" point1=\"ah01\" point2=\"sh01\"/>\\u000a          <ttc code=\"singleh\" point1=\"lsb\" point2=\"sh02\"/>\\u000a          <ttc code=\"singleh\" point1=\"sh02\" point2=\"sh03\" stem=\"X: 208\"/>\\u000a          <ttc code=\"singleh\" point1=\"sh03\" point2=\"sh04\"/>\\u000a          <ttc code=\"singleh\" point1=\"ah01\" point2=\"sh05\" stem=\"X: 208\"/>\\u000a          <ttc code=\"singleh\" point1=\"sh05\" point2=\"rsb\" round=\"true\"/>\\u000a          <ttc code=\"alignt\" point=\"at01\" zone=\"t: 1\"/>\\u000a          <ttc code=\"alignt\" point=\"at02\" zone=\"t: 1\"/>\\u000a          <ttc code=\"alignb\" point=\"ab01\" zone=\"b: 0\"/>\\u000a          <ttc code=\"doublev\" point1=\"dv01\" point2=\"dv02\" stem=\"Y: 171\"/>\\u000a          <ttc code=\"singlev\" point1=\"at01\" point2=\"sv01\" stem=\"Y: 171\"/>\\u000a          <ttc code=\"interpolatev\" point=\"sh04\" point1=\"at01\" point2=\"ab01\"/>\\u000a          <ttc code=\"singlev\" point1=\"ab01\" point2=\"sv02\" stem=\"Y: 171\"/>\\u000a        </ttProgram>\\u000a      </data>
p15
g4
tp16
Rp17
Ntp18
s."
EndChar
StartChar: seven
Encoding: 440 55 440
GlifName: seven
Width: 1300
VWidth: 0
Flags: W
LayerCount: 2
Fore
SplineSet
177 1500 m 257
NamedP: "at01"
 1120 1500 l 257
NamedP: "at02"
 1120 1370 l 257
NamedP: "sh01"
 1120 1327 1120 1327 1087.5 1259.5 c 128
 1055 1192 1055 1192 1005 1108 c 128
 955 1024 955 1024 895.5 927.5 c 128
 836 831 836 831 782.5 729.5 c 128
 729 628 729 628 689 526 c 128
 649 424 649 424 638 329 c 257
NamedP: "sh04"
 633 288 633 288 630.5 244.5 c 128
 628 201 628 201 626.5 158 c 128
 625 115 625 115 625 74.5 c 128
 625 34 625 34 625 0 c 257
NamedP: "sh03"
 420 0 l 257
NamedP: "sh02"
 420 30 420 30 420.5 80.5 c 128
 421 131 421 131 423 187 c 128
 425 243 425 243 430 298 c 128
 435 353 435 353 443 392 c 257
 466 499 466 499 508.5 602.5 c 128
 551 706 551 706 601.5 801.5 c 128
 652 897 652 897 705 982 c 128
 758 1067 758 1067 801 1136.5 c 128
 844 1206 844 1206 871.5 1258 c 128
 899 1310 899 1310 899 1340 c 257
NamedP: "sv01"
 177 1340 l 257
 177 1500 l 257
NamedP: "at01"
EndSplineSet
PickledDataWithLists: "(dp0
Vcom.adobe.type.autohint
p1
(c_codecs
encode
p2
(Vdata
p3
Vlatin1
p4
tp5
Rp6
g2
(V<data>\\u000a        <hintSetList>\\u000a          <hintset pointTag=\"at01\">\\u000a            <hstem pos=\"21\" width=\"-21\"/>\\u000a            <hstem pos=\"1340\" width=\"160\"/>\\u000a            <vstem pos=\"400\" width=\"205\"/>\\u000a            <vstem pos=\"879\" width=\"221\"/>\\u000a          </hintset>\\u000a        </hintSetList>\\u000a      </data>
p7
g4
tp8
Rp9
Ntp10
sVcom.fontlab.ttprogram
p11
(g2
(Vdata
p12
g4
tp13
Rp14
g2
(V<data>\\u000a        <ttProgram>\\u000a          <ttc align=\"round\" code=\"alignh\" point=\"lsb\"/>\\u000a          <ttc align=\"round\" code=\"alignh\" point=\"rsb\"/>\\u000a          <ttc code=\"singleh\" point1=\"rsb\" point2=\"sh01\" round=\"true\"/>\\u000a          <ttc code=\"singleh\" point1=\"lsb\" point2=\"sh02\"/>\\u000a          <ttc code=\"singleh\" point1=\"sh02\" point2=\"sh03\" stem=\"X: 208\"/>\\u000a          <ttc code=\"singleh\" point1=\"sh03\" point2=\"sh04\"/>\\u000a          <ttc code=\"alignt\" point=\"at01\" zone=\"t: 1\"/>\\u000a          <ttc code=\"alignt\" point=\"at02\" zone=\"t: 1\"/>\\u000a          <ttc code=\"alignb\" point=\"sh02\" zone=\"b: 0\"/>\\u000a          <ttc code=\"alignb\" point=\"sh03\" zone=\"b: 0\"/>\\u000a          <ttc code=\"singlev\" point1=\"at01\" point2=\"sv01\" stem=\"Y: 162\"/>\\u000a        </ttProgram>\\u000a      </data>
p15
g4
tp16
Rp17
Ntp18
s."
EndChar
StartChar: eight
Encoding: 225 56 225
GlifName: eight
Width: 1300
VWidth: 0
Flags: W
LayerCount: 2
Fore
SplineSet
631 1517 m 257,0,1
NamedP: "at01"
 722 1517 722 1517 800 1492 c 128,-1,2
 878 1467 878 1467 934.5 1420 c 128,-1,3
 991 1373 991 1373 1023 1306 c 128,-1,4
 1055 1239 1055 1239 1055 1155 c 257,5,6
NamedP: "ih01"
 1055 1096 1055 1096 1037.5 1050 c 128,-1,7
 1020 1004 1020 1004 990 967.5 c 128,-1,8
 960 931 960 931 920.5 901.5 c 128,-1,9
 881 872 881 872 837 846 c 257,10,11
NamedP: "ih02"
 911 813 911 813 969.5 770.5 c 128,-1,12
 1028 728 1028 728 1068.5 674.5 c 128,-1,13
 1109 621 1109 621 1130.5 555 c 128,-1,14
 1152 489 1152 489 1152 410 c 257,15,16
NamedP: "dh04"
 1152 299 1152 299 1108 218.5 c 128,-1,17
 1064 138 1064 138 991.5 85.5 c 128,-1,18
 919 33 919 33 826.5 8 c 128,-1,19
 734 -17 734 -17 637 -17 c 257,20,21
NamedP: "ab01"
 542 -17 542 -17 454 11.5 c 128,-1,22
 366 40 366 40 298.5 95.5 c 128,-1,23
 231 151 231 151 190 233.5 c 128,-1,24
 149 316 149 316 149 424 c 257,25,26
NamedP: "dh01"
 149 504 149 504 172 569 c 128,-1,27
 195 634 195 634 235 686 c 128,-1,28
 275 738 275 738 330 778.5 c 128,-1,29
 385 819 385 819 449 850 c 257,30,31
NamedP: "ih03"
 402 879 402 879 361.5 910 c 128,-1,32
 321 941 321 941 290.5 976.5 c 128,-1,33
 260 1012 260 1012 242.5 1053 c 128,-1,34
 225 1094 225 1094 225 1144 c 257,35,36
NamedP: "ih04"
 225 1241 225 1241 263.5 1311.5 c 128,-1,37
 302 1382 302 1382 362 1427.5 c 128,-1,38
 422 1473 422 1473 493.5 1495 c 128,-1,39
 565 1517 565 1517 631 1517 c 257,0,1
NamedP: "at01"
620 760 m 257,40,41
NamedP: "mv01"
 557 733 557 733 506.5 700.5 c 128,-1,42
 456 668 456 668 420.5 626.5 c 128,-1,43
 385 585 385 585 365.5 532.5 c 128,-1,44
 346 480 346 480 346 414 c 257,45,46
NamedP: "dh02"
 346 354 346 354 370.5 305 c 128,-1,47
 395 256 395 256 435.5 220.5 c 128,-1,48
 476 185 476 185 529 166 c 128,-1,49
 582 147 582 147 638 147 c 257,50,51
NamedP: "sv01"
 702 147 702 147 759.5 164.5 c 128,-1,52
 817 182 817 182 860.5 216 c 128,-1,53
 904 250 904 250 929 300 c 128,-1,54
 954 350 954 350 954 415 c 257,55,56
NamedP: "dh03"
 954 482 954 482 924.5 534.5 c 128,-1,57
 895 587 895 587 847.5 628.5 c 128,-1,58
 800 670 800 670 740.5 702 c 128,-1,59
 681 734 681 734 620 760 c 257,40,41
NamedP: "mv01"
661 923 m 257,60,61
NamedP: "iv01"
 753 964 753 964 807.5 1022 c 128,-1,62
 862 1080 862 1080 862 1163 c 257,63,64
NamedP: "sh01"
 862 1213 862 1213 841.5 1249 c 128,-1,65
 821 1285 821 1285 790 1308 c 128,-1,66
 759 1331 759 1331 721.5 1341.5 c 128,-1,67
 684 1352 684 1352 650 1352 c 257,68,69
NamedP: "sv02"
 605 1352 605 1352 563 1338.5 c 128,-1,70
 521 1325 521 1325 489 1300 c 128,-1,71
 457 1275 457 1275 437.5 1241 c 128,-1,72
 418 1207 418 1207 418 1167 c 257,73,74
NamedP: "sh02"
 418 1121 418 1121 437.5 1085.5 c 128,-1,75
 457 1050 457 1050 490.5 1021.5 c 128,-1,76
 524 993 524 993 568 969 c 128,-1,77
 612 945 612 945 661 923 c 257,60,61
NamedP: "iv01"
EndSplineSet
PickledDataWithLists: "(dp0
Vcom.adobe.type.autohint
p1
(c_codecs
encode
p2
(Vdata
p3
Vlatin1
p4
tp5
Rp6
g2
(V<data>\\u000a        <hintSetList>\\u000a          <hintset pointTag=\"dh01\">\\u000a            <hstem pos=\"-17\" width=\"164\"/>\\u000a            <hstem pos=\"-17\" width=\"164\"/>\\u000a            <hstem pos=\"1352\" width=\"165\"/>\\u000a            <hstem pos=\"1352\" width=\"165\"/>\\u000a            <vstem pos=\"129\" width=\"197\"/>\\u000a            <vstem pos=\"205\" width=\"193\"/>\\u000a            <vstem pos=\"842\" width=\"193\"/>\\u000a            <vstem pos=\"934\" width=\"101\"/>\\u000a          </hintset>\\u000a        </hintSetList>\\u000a      </data>
p7
g4
tp8
Rp9
Ntp10
sVcom.fontlab.ttprogram
p11
(g2
(Vdata
p12
g4
tp13
Rp14
g2
(V<data>\\u000a        <ttProgram>\\u000a          <ttc code=\"doubleh\" point1=\"dh01\" point2=\"dh02\" stem=\"X: 199\"/>\\u000a          <ttc code=\"doubleh\" point1=\"dh03\" point2=\"dh04\" stem=\"X: 199\"/>\\u000a          <ttc code=\"mdeltah\" delta=\"2\" point=\"dh03\" ppm1=\"18\" ppm2=\"18\"/>\\u000a          <ttc code=\"interpolateh\" point=\"ih01\" point1=\"dh03\" point2=\"dh04\"/>\\u000a          <ttc code=\"mdeltah\" delta=\"-1\" point=\"ih01\" ppm1=\"16\" ppm2=\"16\"/>\\u000a          <ttc code=\"mdeltah\" delta=\"-2\" point=\"ih01\" ppm1=\"17\" ppm2=\"18\"/>\\u000a          <ttc code=\"interpolateh\" point=\"ih02\" point1=\"dh01\" point2=\"dh04\"/>\\u000a          <ttc code=\"interpolateh\" point=\"ih03\" point1=\"dh01\" point2=\"dh04\"/>\\u000a          <ttc code=\"mdeltah\" delta=\"3\" point=\"ih03\" ppm1=\"16\" ppm2=\"16\"/>\\u000a          <ttc align=\"round\" code=\"interpolateh\" point=\"ih04\" point1=\"dh01\" point2=\"dh02\"/>\\u000a          <ttc code=\"mdeltah\" delta=\"5\" point=\"ih04\" ppm1=\"16\" ppm2=\"16\"/>\\u000a          <ttc code=\"mdeltah\" delta=\"2\" point=\"ih04\" ppm1=\"17\" ppm2=\"17\"/>\\u000a          <ttc code=\"singleh\" point1=\"ih01\" point2=\"sh01\" stem=\"X: 190\"/>\\u000a          <ttc code=\"singleh\" point1=\"ih04\" point2=\"sh02\" stem=\"X: 190\"/>\\u000a          <ttc code=\"mdeltah\" delta=\"2\" point=\"sh02\" ppm1=\"16\" ppm2=\"16\"/>\\u000a          <ttc code=\"singleh\" point1=\"ih01\" point2=\"rsb\" round=\"true\"/>\\u000a          <ttc code=\"alignt\" point=\"at01\" zone=\"t: 1\"/>\\u000a          <ttc code=\"alignb\" point=\"ab01\" zone=\"b: 0\"/>\\u000a          <ttc code=\"interpolatev\" point=\"ih02\" point1=\"ab01\" point2=\"at01\"/>\\u000a          <ttc code=\"interpolatev\" point=\"ih03\" point1=\"ab01\" point2=\"at01\"/>\\u000a          <ttc code=\"mdeltav\" delta=\"3\" point=\"mv01\" ppm1=\"18\" ppm2=\"18\"/>\\u000a          <ttc code=\"mdeltav\" delta=\"4\" point=\"mv01\" ppm1=\"17\" ppm2=\"17\"/>\\u000a          <ttc code=\"mdeltav\" delta=\"2\" point=\"mv01\" ppm1=\"16\" ppm2=\"16\"/>\\u000a          <ttc code=\"mdeltav\" delta=\"2\" point=\"mv01\" ppm1=\"19\" ppm2=\"19\"/>\\u000a          <ttc code=\"singlev\" point1=\"ab01\" point2=\"sv01\" stem=\"Y: 162\"/>\\u000a          <ttc code=\"interpolatev\" point=\"iv01\" point1=\"at01\" point2=\"sv01\"/>\\u000a          <ttc code=\"mdeltav\" delta=\"-2\" point=\"iv01\" ppm1=\"19\" ppm2=\"19\"/>\\u000a          <ttc code=\"singlev\" point1=\"at01\" point2=\"sv02\" stem=\"Y: 162\"/>\\u000a          <ttc code=\"mdeltav\" delta=\"-3\" point=\"sv02\" ppm1=\"18\" ppm2=\"18\"/>\\u000a        </ttProgram>\\u000a      </data>
p15
g4
tp16
Rp17
Ntp18
s."
EndChar
StartChar: nine
Encoding: 330 57 330
GlifName: nine
Width: 1300
VWidth: 0
Flags: W
LayerCount: 2
Fore
SplineSet
869 663 m 257,0,1
NamedP: "hr00"
 810 617 810 617 750.5 595 c 128,-1,2
 691 573 691 573 616 573 c 257,3,4
NamedP: "dv01"
 518 573 518 573 433 605.5 c 128,-1,5
 348 638 348 638 285 698 c 128,-1,6
 222 758 222 758 186 842.5 c 128,-1,7
 150 927 150 927 150 1031 c 257,8,9
NamedP: "dh02"
 150 1139 150 1139 184.5 1228 c 128,-1,10
 219 1317 219 1317 282.5 1381.5 c 128,-1,11
 346 1446 346 1446 436.5 1481.5 c 128,-1,12
 527 1517 527 1517 639 1517 c 257,13,14
NamedP: "at01"
 739 1517 739 1517 815.5 1486 c 128,-1,15
 892 1455 892 1455 948 1404 c 128,-1,16
 1004 1353 1004 1353 1041.5 1287 c 128,-1,17
 1079 1221 1079 1221 1101.5 1150 c 128,-1,18
 1124 1079 1124 1079 1133.5 1009 c 128,-1,19
 1143 939 1143 939 1143 880 c 257,20,21
NamedP: "sh01"
 1143 764 1143 764 1119.5 653.5 c 128,-1,22
 1096 543 1096 543 1050.5 445 c 128,-1,23
 1005 347 1005 347 939 264.5 c 128,-1,24
 873 182 873 182 788.5 121 c 128,-1,25
 704 60 704 60 602 24 c 128,-1,26
 500 -12 500 -12 382 -17 c 257,27,-1
NamedP: "ab01"
 351 150 l 257,28,29
NamedP: "sh02"
 471 156 471 156 576.5 207 c 128,-1,30
 682 258 682 258 762.5 342.5 c 128,-1,31
 843 427 843 427 892.5 539.5 c 128,-1,32
 942 652 942 652 949 780 c 257,33,-1
NamedP: "sh03"
 869 663 l 257,0,1
NamedP: "hr00"
937 953 m 257,34,35
NamedP: "ah01"
 934 1028 934 1028 915.5 1098.5 c 128,-1,36
 897 1169 897 1169 861 1224.5 c 128,-1,37
 825 1280 825 1280 772 1313.5 c 128,-1,38
 719 1347 719 1347 647 1347 c 257,39,40
NamedP: "sv01"
 579 1347 579 1347 525 1325 c 128,-1,41
 471 1303 471 1303 433 1264 c 128,-1,42
 395 1225 395 1225 374.5 1170 c 128,-1,43
 354 1115 354 1115 354 1049 c 257,44,45
NamedP: "dh01"
 354 984 354 984 370.5 928 c 128,-1,46
 387 872 387 872 420.5 831 c 128,-1,47
 454 790 454 790 505.5 766.5 c 128,-1,48
 557 743 557 743 626 743 c 257,49,50
NamedP: "dv02"
 679 743 679 743 727.5 760 c 128,-1,51
 776 777 776 777 816.5 805.5 c 128,-1,52
 857 834 857 834 888 872 c 128,-1,53
 919 910 919 910 937 953 c 257,34,35
NamedP: "ah01"
EndSplineSet
PickledDataWithLists: "(dp0
Vcom.adobe.type.autohint
p1
(c_codecs
encode
p2
(Vdata
p3
Vlatin1
p4
tp5
Rp6
g2
(V<data>\\u000a        <hintSetList>\\u000a          <hintset pointTag=\"hr00\">\\u000a            <hstem pos=\"-17\" width=\"167\"/>\\u000a            <hstem pos=\"573\" width=\"170\"/>\\u000a            <hstem pos=\"1347\" width=\"170\"/>\\u000a            <vstem pos=\"130\" width=\"204\"/>\\u000a            <vstem pos=\"917\" width=\"206\"/>\\u000a          </hintset>\\u000a        </hintSetList>\\u000a      </data>
p7
g4
tp8
Rp9
Ntp10
sVcom.fontlab.ttprogram
p11
(g2
(Vdata
p12
g4
tp13
Rp14
g2
(V<data>\\u000a        <ttProgram>\\u000a          <ttc align=\"round\" code=\"alignh\" point=\"lsb\"/>\\u000a          <ttc align=\"round\" code=\"alignh\" point=\"ah01\"/>\\u000a          <ttc code=\"doubleh\" point1=\"dh01\" point2=\"dh02\" stem=\"X: 208\"/>\\u000a          <ttc code=\"mdeltah\" delta=\"3\" point=\"ah01\" ppm1=\"16\" ppm2=\"17\"/>\\u000a          <ttc code=\"mdeltah\" delta=\"2\" point=\"ah01\" ppm1=\"9\" ppm2=\"15\"/>\\u000a          <ttc code=\"singleh\" point1=\"ah01\" point2=\"sh01\" stem=\"X: 208\"/>\\u000a          <ttc code=\"mdeltah\" delta=\"-2\" point=\"dh01\" ppm1=\"9\" ppm2=\"15\"/>\\u000a          <ttc code=\"mdeltah\" delta=\"-3\" point=\"dh01\" ppm1=\"16\" ppm2=\"17\"/>\\u000a          <ttc align=\"round\" code=\"singleh\" point1=\"dh01\" point2=\"sh02\"/>\\u000a          <ttc align=\"round\" code=\"singleh\" point1=\"ah01\" point2=\"sh03\"/>\\u000a          <ttc code=\"singleh\" point1=\"sh01\" point2=\"rsb\" round=\"true\"/>\\u000a          <ttc code=\"alignt\" point=\"at01\" zone=\"t: 1\"/>\\u000a          <ttc code=\"alignb\" point=\"ab01\" zone=\"b: 0\"/>\\u000a          <ttc code=\"doublev\" point1=\"dv01\" point2=\"dv02\" stem=\"Y: 162\"/>\\u000a          <ttc code=\"singlev\" point1=\"ab01\" point2=\"sh02\" stem=\"Y: 162\"/>\\u000a          <ttc code=\"interpolatev\" point=\"sh03\" point1=\"ab01\" point2=\"at01\"/>\\u000a          <ttc code=\"singlev\" point1=\"at01\" point2=\"sv01\" stem=\"Y: 162\"/>\\u000a          <ttc code=\"mdeltav\" delta=\"2\" point=\"sv01\" ppm1=\"16\" ppm2=\"17\"/>\\u000a          <ttc code=\"mdeltav\" delta=\"1\" point=\"sv01\" ppm1=\"9\" ppm2=\"15\"/>\\u000a        </ttProgram>\\u000a      </data>
p15
g4
tp16
Rp17
Ntp18
s."
EndChar
StartChar: colon
Encoding: 190 58 190
GlifName: colon
Width: 1300
VWidth: 0
Flags: W
LayerCount: 2
Fore
SplineSet
152 133 m 257
NamedP: "ah03"
 152 164 152 164 164 191 c 128
 176 218 176 218 196 238 c 128
 216 258 216 258 242.5 269.5 c 128
 269 281 269 281 300 281 c 257
NamedP: "av03"
 331 281 331 281 358 269.5 c 128
 385 258 385 258 405 238 c 128
 425 218 425 218 436.5 191 c 128
 448 164 448 164 448 133 c 257
NamedP: "ah04"
 448 102 448 102 436.5 74.5 c 128
 425 47 425 47 405 27 c 128
 385 7 385 7 358.5 -5 c 128
 332 -17 332 -17 302 -17 c 257
NamedP: "ab01"
 271 -17 271 -17 243.5 -5 c 128
 216 7 216 7 196 27 c 128
 176 47 176 47 164 74.5 c 128
 152 102 152 102 152 133 c 257
NamedP: "ah03"
152 647 m 257
NamedP: "ah01"
 152 678 152 678 164 705 c 128
 176 732 176 732 196 752 c 128
 216 772 216 772 242.5 783.5 c 128
 269 795 269 795 300 795 c 257
NamedP: "av01"
 331 795 331 795 358 783.5 c 128
 385 772 385 772 405 752 c 128
 425 732 425 732 436.5 705 c 128
 448 678 448 678 448 647 c 257
NamedP: "ah02"
 448 616 448 616 436.5 588.5 c 128
 425 561 425 561 405 541 c 128
 385 521 385 521 358.5 509 c 128
 332 497 332 497 302 497 c 257
NamedP: "av02"
 271 497 271 497 243.5 509 c 128
 216 521 216 521 196 541 c 128
 176 561 176 561 164 588.5 c 128
 152 616 152 616 152 647 c 257
NamedP: "ah01"
EndSplineSet
PickledDataWithLists: "(dp0
Vcom.adobe.type.autohint
p1
(c_codecs
encode
p2
(Vdata
p3
Vlatin1
p4
tp5
Rp6
g2
(V<data>\\u000a        <hintSetList>\\u000a          <hintset pointTag=\"ah03\">\\u000a            <hstem pos=\"-17\" width=\"218\"/>\\u000a            <hstem pos=\"480\" width=\"218\"/>\\u000a            <vstem pos=\"191\" width=\"216\"/>\\u000a          </hintset>\\u000a        </hintSetList>\\u000a      </data>
p7
g4
tp8
Rp9
Ntp10
sVcom.fontlab.ttprogram
p11
(g2
(Vdata
p12
g4
tp13
Rp14
g2
(V<data>\\u000a        <ttProgram>\\u000a          <ttc align=\"round\" code=\"alignh\" point=\"ah01\"/>\\u000a          <ttc align=\"round\" code=\"alignh\" point=\"ah02\"/>\\u000a          <ttc align=\"round\" code=\"alignh\" point=\"ah03\"/>\\u000a          <ttc align=\"round\" code=\"alignh\" point=\"ah04\"/>\\u000a          <ttc align=\"round\" code=\"alignv\" point=\"av01\"/>\\u000a          <ttc align=\"round\" code=\"alignv\" point=\"av02\"/>\\u000a          <ttc align=\"round\" code=\"alignv\" point=\"av03\"/>\\u000a          <ttc code=\"alignb\" point=\"ab01\" zone=\"b: 0\"/>\\u000a        </ttProgram>\\u000a      </data>
p15
g4
tp16
Rp17
Ntp18
s."
EndChar
StartChar: equal
Encoding: 235 61 235
GlifName: equal
Width: 1300
VWidth: 0
Flags: W
LayerCount: 2
Fore
SplineSet
200 700 m 257,0,-1
NamedP: "hr00"
 1000 700 l 257,1,-1
NamedP: "sv01"
 1000 560 l 257,2,-1
 200 560 l 257,3,-1
NamedP: "av01"
 200 700 l 257,0,-1
NamedP: "hr00"
200 400 m 257,4,-1
 1000 400 l 257,5,-1
NamedP: "sv02"
 1000 260 l 257,6,-1
 200 260 l 257,7,-1
NamedP: "av02"
 200 400 l 257,4,-1
EndSplineSet
PickledDataWithLists: "(dp0
Vcom.adobe.type.autohint
p1
(c_codecs
encode
p2
(Vdata
p3
Vlatin1
p4
tp5
Rp6
g2
(V<data>\\u000a        <hintSetList>\\u000a          <hintset pointTag=\"hr00\">\\u000a            <hstem pos=\"260\" width=\"140\"/>\\u000a            <hstem pos=\"560\" width=\"140\"/>\\u000a          </hintset>\\u000a        </hintSetList>\\u000a      </data>
p7
g4
tp8
Rp9
Ntp10
sVcom.fontlab.ttprogram
p11
(g2
(Vdata
p12
g4
tp13
Rp14
g2
(V<data>\\u000a        <ttProgram>\\u000a          <ttc align=\"round\" code=\"alignv\" point=\"av01\"/>\\u000a          <ttc align=\"round\" code=\"alignv\" point=\"av02\"/>\\u000a          <ttc code=\"singlev\" point1=\"av01\" point2=\"sv01\" stem=\"Y: 144\"/>\\u000a          <ttc code=\"singlev\" point1=\"av02\" point2=\"sv02\" stem=\"Y: 144\"/>\\u000a        </ttProgram>\\u000a      </data>
p15
g4
tp16
Rp17
Ntp18
s."
EndChar
StartChar: greater
Encoding: 269 62 269
GlifName: greater
Width: 1300
VWidth: 0
Flags: W
LayerCount: 2
Fore
SplineSet
1100 757 m 257,0,-1
 1100 548 l 257,1,-1
 200 91 l 257,2,-1
 200 266 l 257,3,-1
 888 630 l 257,4,-1
 965 650 l 257,5,-1
 887 670 l 257,6,-1
 200 1036 l 257,7,-1
 200 1211 l 257,8,-1
 1100 757 l 257,0,-1
EndSplineSet
EndChar
StartChar: question
Encoding: 393 63 393
GlifName: question
Width: 1300
VWidth: 0
Flags: W
LayerCount: 2
Fore
SplineSet
1000 1144 m 257,0,1
 1000 1081 1000 1081 983 1031 c 128,-1,2
 966 981 966 981 938.5 940 c 128,-1,3
 911 899 911 899 875.5 864 c 128,-1,4
 840 829 840 829 802.5 795.5 c 128,-1,5
 765 762 765 762 729.5 727 c 128,-1,6
 694 692 694 692 666.5 651.5 c 128,-1,7
 639 611 639 611 622 561.5 c 128,-1,8
 605 512 605 512 605 450 c 257,9,-1
NamedP: "av02"
 395 429 l 257,10,11
NamedP: "av01"
 395 518 395 518 412 586 c 128,-1,12
 429 654 429 654 456.5 706.5 c 128,-1,13
 484 759 484 759 519.5 799.5 c 128,-1,14
 555 840 555 840 592.5 873.5 c 128,-1,15
 630 907 630 907 665.5 937 c 128,-1,16
 701 967 701 967 728.5 999 c 128,-1,17
 756 1031 756 1031 773 1068 c 128,-1,18
 790 1105 790 1105 790 1152 c 257,19,20
 790 1204 790 1204 770 1242 c 128,-1,21
 750 1280 750 1280 715.5 1304 c 128,-1,22
 681 1328 681 1328 634.5 1339.5 c 128,-1,23
 588 1351 588 1351 535 1351 c 257,24,25
 497 1351 497 1351 456.5 1340 c 128,-1,26
 416 1329 416 1329 377.5 1308 c 128,-1,27
 339 1287 339 1287 303.5 1257 c 128,-1,28
 268 1227 268 1227 240 1190 c 257,29,-1
 107 1300 l 257,30,31
 156 1366 156 1366 213.5 1408.5 c 128,-1,32
 271 1451 271 1451 330.5 1475 c 128,-1,33
 390 1499 390 1499 448.5 1508 c 128,-1,34
 507 1517 507 1517 560 1517 c 257,35,36
 645 1517 645 1517 724 1494.5 c 128,-1,37
 803 1472 803 1472 864.5 1426.5 c 128,-1,38
 926 1381 926 1381 963 1310.5 c 128,-1,39
 1000 1240 1000 1240 1000 1144 c 257,0,1
378 106 m 257,40,41
NamedP: "ah01"
 378 131 378 131 387.5 153 c 128,-1,42
 397 175 397 175 413.5 191.5 c 128,-1,43
 430 208 430 208 452 217.5 c 128,-1,44
 474 227 474 227 499 227 c 257,45,46
NamedP: "av03"
 524 227 524 227 546 217.5 c 128,-1,47
 568 208 568 208 584.5 191.5 c 128,-1,48
 601 175 601 175 610.5 153 c 128,-1,49
 620 131 620 131 620 106 c 257,50,51
NamedP: "sh01"
 620 81 620 81 610.5 58.5 c 128,-1,52
 601 36 601 36 585 19.5 c 128,-1,53
 569 3 569 3 547 -7 c 128,-1,54
 525 -17 525 -17 500 -17 c 257,55,56
NamedP: "ab01"
 474 -17 474 -17 452 -7 c 128,-1,57
 430 3 430 3 413.5 19.5 c 128,-1,58
 397 36 397 36 387.5 58.5 c 128,-1,59
 378 81 378 81 378 106 c 257,40,41
NamedP: "ah01"
EndSplineSet
PickledDataWithLists: "(dp0
Vcom.fontlab.ttprogram
p1
(c_codecs
encode
p2
(Vdata
p3
Vlatin1
p4
tp5
Rp6
g2
(V<data>\\u000a        <ttProgram>\\u000a          <ttc align=\"round\" code=\"alignh\" point=\"ah01\"/>\\u000a          <ttc code=\"singleh\" point1=\"ah01\" point2=\"sh01\" stem=\"X: 208\"/>\\u000a          <ttc align=\"round\" code=\"alignv\" point=\"av01\"/>\\u000a          <ttc align=\"round\" code=\"alignv\" point=\"av02\"/>\\u000a          <ttc align=\"round\" code=\"alignv\" point=\"av03\"/>\\u000a          <ttc code=\"alignb\" point=\"ab01\" zone=\"b: 0\"/>\\u000a        </ttProgram>\\u000a      </data>
p7
g4
tp8
Rp9
Ntp10
s."
EndChar
StartChar: at
Encoding: 128 64 128
GlifName: at
Width: 1300
VWidth: 0
Flags: W
LayerCount: 2
Fore
SplineSet
651 1486 m 257
 745 1486 745 1486 821 1453 c 128
 897 1420 897 1420 956 1360.5 c 128
 1015 1301 1015 1301 1057.5 1217.5 c 128
 1100 1134 1100 1134 1127 1033.5 c 128
 1154 933 1154 933 1167 817.5 c 128
 1180 702 1180 702 1180 578 c 257
 1180 458 1180 458 1172 347.5 c 128
 1164 237 1164 237 1139 152 c 128
 1114 67 1114 67 1066 16.5 c 128
 1018 -34 1018 -34 939 -34 c 257
 906 -34 906 -34 874 -24 c 128
 842 -14 842 -14 815.5 4.5 c 128
 789 23 789 23 770 49 c 128
 751 75 751 75 743 108 c 257
 705 8 l 257
 678 -17 678 -17 632 -17 c 257
 586 -17 586 -17 543.5 6 c 128
 501 29 501 29 468 73.5 c 128
 435 118 435 118 415.5 184 c 128
 396 250 396 250 396 337 c 257
NamedP: "mh01"
 396 427 396 427 415.5 494.5 c 128
 435 562 435 562 468.5 606.5 c 128
 502 651 502 651 546 673 c 128
 590 695 590 695 640 695 c 257
 673 695 673 695 693 689 c 128
 713 683 713 683 724 675 c 257
 736 666 736 666 742 655 c 257
 742 690 l 257
 742 745 742 745 740.5 784.5 c 128
 739 824 739 824 731 849.5 c 128
 723 875 723 875 706 887.5 c 128
 689 900 689 900 657 900 c 257
 625 900 625 900 595 893 c 128
 565 886 565 886 542 877 c 128
 519 868 519 868 505.5 861 c 130
 492 854 l 257
 492 981 l 257
 509 996 509 996 534 1008 c 257
 555 1019 555 1019 586.5 1027.5 c 128
 618 1036 618 1036 663 1036 c 257
 748 1036 748 1036 794 1013.5 c 128
 840 991 840 991 861.5 946 c 128
 883 901 883 901 886.5 833.5 c 128
 890 766 890 766 890 676 c 257
 890 174 l 257
 890 143 890 143 901.5 121.5 c 128
 913 100 913 100 946 100 c 257
 966 100 966 100 980 124.5 c 128
 994 149 994 149 1003.5 187 c 128
 1013 225 1013 225 1018.5 272 c 128
 1024 319 1024 319 1026.5 363.5 c 128
 1029 408 1029 408 1029.5 445 c 128
 1030 482 1030 482 1030 501 c 257
 1030 672 1030 672 1012.5 823 c 128
 995 974 995 974 951.5 1086.5 c 128
 908 1199 908 1199 834 1264.5 c 128
 760 1330 760 1330 647 1330 c 257
 595 1330 595 1330 547.5 1301.5 c 128
 500 1273 500 1273 458.5 1222 c 128
 417 1171 417 1171 383.5 1101 c 128
 350 1031 350 1031 326 948 c 128
 302 865 302 865 289 772.5 c 128
 276 680 276 680 276 584 c 257
 276 481 276 481 284.5 378.5 c 128
 293 276 293 276 311.5 183 c 128
 330 90 330 90 359 10 c 128
 388 -70 388 -70 430.5 -128.5 c 128
 473 -187 473 -187 528.5 -220.5 c 128
 584 -254 584 -254 655 -254 c 257
 685 -254 685 -254 713.5 -246.5 c 128
 742 -239 742 -239 766 -227 c 128
 790 -215 790 -215 809 -201 c 128
 828 -187 828 -187 840 -173 c 257
 889 -322 l 257
 835 -367 835 -367 777 -388.5 c 128
 719 -410 719 -410 651 -410 c 257
 553 -410 553 -410 476 -375 c 128
 399 -340 399 -340 340 -277 c 128
 281 -214 281 -214 239 -126.5 c 128
 197 -39 197 -39 170.5 66.5 c 128
 144 172 144 172 132 292 c 128
 120 412 120 412 120 540 c 257
 120 671 120 671 134.5 792 c 128
 149 913 149 913 178.5 1018.5 c 128
 208 1124 208 1124 252.5 1210 c 128
 297 1296 297 1296 356 1357.5 c 128
 415 1419 415 1419 488.5 1452.5 c 128
 562 1486 562 1486 651 1486 c 257
742 522 m 257
 741 525 741 525 735 529 c 257
 730 532 730 532 718 534.5 c 128
 706 537 706 537 683 537 c 257
 653 537 653 537 628.5 526 c 128
 604 515 604 515 586 491 c 128
 568 467 568 467 558 429 c 128
 548 391 548 391 548 337 c 257
 548 293 548 293 554 256.5 c 128
 560 220 560 220 572.5 194 c 128
 585 168 585 168 603.5 153.5 c 128
 622 139 622 139 647 139 c 257
 670 139 670 139 688 159 c 128
 706 179 706 179 718 203 c 257
 732 231 732 231 742 267 c 257
 742 522 l 257
EndSplineSet
PickledDataWithLists: "(dp0
Vcom.fontlab.ttprogram
p1
(c_codecs
encode
p2
(Vdata
p3
Vlatin1
p4
tp5
Rp6
g2
(V<data>\\u000a        <ttProgram>\\u000a          <ttc code=\"mdeltah\" delta=\"2\" point=\"mh01\" ppm1=\"26\" ppm2=\"26\"/>\\u000a        </ttProgram>\\u000a      </data>
p7
g4
tp8
Rp9
Ntp10
s."
EndChar
StartChar: B
Encoding: 10 66 10
GlifName: B_
Width: 1300
VWidth: 0
Flags: W
LayerCount: 2
Fore
SplineSet
395 1147 m 257,0,-1
NamedP: "sh01"
 395 885 l 257,1,-1
 500 885 l 257,2,3
NamedP: "ih02"
 561 888 561 888 620.5 904 c 128,-1,4
 680 920 680 920 726.5 951.5 c 128,-1,5
 773 983 773 983 801.5 1031.5 c 128,-1,6
 830 1080 830 1080 830 1148 c 257,7,8
NamedP: "dh03"
 830 1214 830 1214 799.5 1257.5 c 128,-1,9
 769 1301 769 1301 721 1326 c 128,-1,10
 673 1351 673 1351 613.5 1361 c 128,-1,11
 554 1371 554 1371 497 1371 c 257,12,13
NamedP: "sv01"
 463 1371 463 1371 426.5 1368.5 c 128,-1,14
 390 1366 390 1366 359 1360 c 257,15,-1
 395 1147 l 257,0,-1
NamedP: "sh01"
210 0 m 257,16,-1
NamedP: "dh01"
 210 1290 l 257,17,-1
 180 1490 l 257,18,19
 240 1498 240 1498 303.5 1504 c 128,-1,20
 367 1510 367 1510 432 1510 c 257,21,22
NamedP: "at01"
 548 1510 548 1510 653 1495.5 c 128,-1,23
 758 1481 758 1481 837.5 1443 c 128,-1,24
 917 1405 917 1405 964 1338.5 c 128,-1,25
 1011 1272 1011 1272 1011 1169 c 257,26,27
NamedP: "dh04"
 1011 1060 1011 1060 964 981 c 128,-1,28
 917 902 917 902 830 860 c 257,29,-1
 676 816 l 257,30,-1
NamedP: "ih01"
 823 802 l 257,31,32
 884 784 884 784 938 755.5 c 128,-1,33
 992 727 992 727 1031.5 686 c 128,-1,34
 1071 645 1071 645 1094 589 c 128,-1,35
 1117 533 1117 533 1117 460 c 257,36,37
NamedP: "sh03"
 1117 375 1117 375 1094.5 308 c 128,-1,38
 1072 241 1072 241 1033 190 c 128,-1,39
 994 139 994 139 942 102.5 c 128,-1,40
 890 66 890 66 830.5 43.5 c 128,-1,41
 771 21 771 21 707 10.5 c 128,-1,42
 643 0 643 0 580 0 c 257,43,-1
 210 0 l 257,16,-1
NamedP: "dh01"
395 160 m 257,44,-1
NamedP: "dh02"
 505 160 l 257,45,46
 604 160 604 160 681.5 174.5 c 128,-1,47
 759 189 759 189 812.5 222.5 c 128,-1,48
 866 256 866 256 894 311.5 c 128,-1,49
 922 367 922 367 922 450 c 257,50,51
NamedP: "sh02"
 922 525 922 525 896 578 c 128,-1,52
 870 631 870 631 822.5 665 c 128,-1,53
 775 699 775 699 708 714.5 c 128,-1,54
 641 730 641 730 560 730 c 257,55,-1
NamedP: "dv01"
 500 730 l 257,56,-1
NamedP: "ih03"
 395 730 l 257,57,-1
 395 160 l 257,44,-1
NamedP: "dh02"
EndSplineSet
PickledDataWithLists: "(dp0
Vcom.fontlab.ttprogram
p1
(c_codecs
encode
p2
(Vdata
p3
Vlatin1
p4
tp5
Rp6
g2
(V<data>\\u000a        <ttProgram>\\u000a          <ttc code=\"doubleh\" point1=\"dh01\" point2=\"dh02\" stem=\"X: 208\"/>\\u000a          <ttc code=\"doubleh\" point1=\"dh03\" point2=\"dh04\" stem=\"X: 199\"/>\\u000a          <ttc code=\"singleh\" point1=\"dh02\" point2=\"sh01\"/>\\u000a          <ttc code=\"interpolateh\" point=\"ih01\" point1=\"ih02\" point2=\"ih03\"/>\\u000a          <ttc code=\"singleh\" point1=\"dh04\" point2=\"sh02\" stem=\"X: ecart du B\"/>\\u000a          <ttc code=\"singleh\" point1=\"sh02\" point2=\"sh03\" stem=\"X: 208\"/>\\u000a          <ttc code=\"singleh\" point1=\"dh01\" point2=\"lsb\" round=\"true\"/>\\u000a          <ttc code=\"singleh\" point1=\"dh04\" point2=\"rsb\" round=\"true\"/>\\u000a          <ttc code=\"alignt\" point=\"at01\" zone=\"t: 1\"/>\\u000a          <ttc code=\"alignb\" point=\"dh01\" zone=\"b: 0\"/>\\u000a          <ttc code=\"doublev\" point1=\"dv01\" point2=\"ih02\" stem=\"Y: 153\"/>\\u000a          <ttc code=\"singlev\" point1=\"at01\" point2=\"sv01\" stem=\"Y: 144\"/>\\u000a          <ttc code=\"interpolatev\" point=\"ih01\" point1=\"ih02\" point2=\"dv01\"/>\\u000a          <ttc code=\"singlev\" point1=\"dh01\" point2=\"dh02\" stem=\"Y: 162\"/>\\u000a        </ttProgram>\\u000a      </data>
p7
g4
tp8
Rp9
Ntp10
s."
EndChar
StartChar: C
Encoding: 12 67 12
GlifName: C_
Width: 1300
VWidth: 0
Flags: W
LayerCount: 2
Fore
SplineSet
1147 104 m 257,0,1
NamedP: "fh01"
 1106 71 1106 71 1064 48 c 128,-1,2
 1022 25 1022 25 976 10.5 c 128,-1,3
 930 -4 930 -4 879 -10.5 c 128,-1,4
 828 -17 828 -17 769 -17 c 257,5,6
NamedP: "ab01"
 673 -17 673 -17 586 11.5 c 128,-1,7
 499 40 499 40 424.5 91.5 c 128,-1,8
 350 143 350 143 290 215 c 128,-1,9
 230 287 230 287 188 374.5 c 128,-1,10
 146 462 146 462 123 562 c 128,-1,11
 100 662 100 662 100 770 c 257,12,13
NamedP: "dh01"
 100 921 100 921 143 1056.5 c 128,-1,14
 186 1192 186 1192 271 1294.5 c 128,-1,15
 356 1397 356 1397 481.5 1457 c 128,-1,16
 607 1517 607 1517 772 1517 c 257,17,18
NamedP: "at01"
 887 1517 887 1517 979.5 1480.5 c 128,-1,19
 1072 1444 1072 1444 1144 1375 c 257,20,-1
NamedP: "fh02"
 1054 1268 l 257,21,22
NamedP: "fh03"
 1030 1284 1030 1284 1003 1298.5 c 128,-1,23
 976 1313 976 1313 943.5 1324 c 128,-1,24
 911 1335 911 1335 872.5 1341.5 c 128,-1,25
 834 1348 834 1348 788 1348 c 257,26,27
NamedP: "sv01"
 666 1348 666 1348 575.5 1302 c 128,-1,28
 485 1256 485 1256 425 1177.5 c 128,-1,29
 365 1099 365 1099 335.5 994.5 c 128,-1,30
 306 890 306 890 306 773 c 257,31,32
NamedP: "dh02"
 306 700 306 700 321 626 c 128,-1,33
 336 552 336 552 364.5 483 c 128,-1,34
 393 414 393 414 435 354 c 128,-1,35
 477 294 477 294 531.5 249 c 128,-1,36
 586 204 586 204 652 178.5 c 128,-1,37
 718 153 718 153 795 153 c 257,38,39
NamedP: "sv02"
 840 153 840 153 874 157 c 128,-1,40
 908 161 908 161 938.5 170 c 128,-1,41
 969 179 969 179 1000 193.5 c 128,-1,42
 1031 208 1031 208 1070 230 c 257,43,-1
NamedP: "fh04"
 1147 104 l 257,0,1
NamedP: "fh01"
EndSplineSet
PickledDataWithLists: "(dp0
Vcom.adobe.type.autohint
p1
(c_codecs
encode
p2
(Vdata
p3
Vlatin1
p4
tp5
Rp6
g2
(V<data>\\u000a        <hintSetList>\\u000a          <hintset pointTag=\"fh01\">\\u000a            <hstem pos=\"-17\" width=\"170\"/>\\u000a            <hstem pos=\"1348\" width=\"169\"/>\\u000a            <vstem pos=\"99\" width=\"209\"/>\\u000a          </hintset>\\u000a        </hintSetList>\\u000a      </data>
p7
g4
tp8
Rp9
Ntp10
sVcom.fontlab.ttprogram
p11
(g2
(Vdata
p12
g4
tp13
Rp14
g2
(V<data>\\u000a        <ttProgram>\\u000a          <ttc code=\"doubleh\" point1=\"dh01\" point2=\"dh02\" stem=\"X: 208\"/>\\u000a          <ttc code=\"alignt\" point=\"at01\" zone=\"t: 1\"/>\\u000a          <ttc code=\"alignb\" point=\"ab01\" zone=\"b: 0\"/>\\u000a          <ttc code=\"singlev\" point1=\"at01\" point2=\"sv01\" stem=\"Y: 171\"/>\\u000a          <ttc align=\"round\" code=\"singlev\" point1=\"ab01\" point2=\"sv02\" stem=\"Y: 171\"/>\\u000a          <ttc code=\"fdeltah\" delta=\"-5\" point=\"fh01\" ppm1=\"18\" ppm2=\"18\"/>\\u000a          <ttc code=\"fdeltah\" delta=\"1\" point=\"fh01\" ppm1=\"19\" ppm2=\"22\"/>\\u000a          <ttc code=\"fdeltah\" delta=\"-8\" point=\"fh02\" ppm1=\"18\" ppm2=\"18\"/>\\u000a          <ttc code=\"fdeltah\" delta=\"-2\" point=\"fh02\" ppm1=\"19\" ppm2=\"19\"/>\\u000a          <ttc code=\"fdeltah\" delta=\"1\" point=\"fh02\" ppm1=\"20\" ppm2=\"22\"/>\\u000a          <ttc code=\"fdeltah\" delta=\"1\" point=\"fh03\" ppm1=\"18\" ppm2=\"18\"/>\\u000a          <ttc code=\"fdeltah\" delta=\"3\" point=\"fh03\" ppm1=\"19\" ppm2=\"19\"/>\\u000a          <ttc code=\"fdeltah\" delta=\"4\" point=\"fh04\" ppm1=\"19\" ppm2=\"19\"/>\\u000a          <ttc code=\"fdeltav\" delta=\"1\" point=\"fh03\" ppm1=\"18\" ppm2=\"18\"/>\\u000a          <ttc code=\"fdeltav\" delta=\"2\" point=\"fh03\" ppm1=\"20\" ppm2=\"22\"/>\\u000a          <ttc code=\"fdeltav\" delta=\"3\" point=\"fh03\" ppm1=\"19\" ppm2=\"19\"/>\\u000a          <ttc code=\"fdeltav\" delta=\"2\" point=\"fh04\" ppm1=\"19\" ppm2=\"19\"/>\\u000a        </ttProgram>\\u000a      </data>
p15
g4
tp16
Rp17
Ntp18
sVcom.typemytype.robofont.guides
p19
(lp20
(dp21
Vangle
p22
I0
sVisGlobal
p23
I00
sVmagnetic
p24
I5
sVx
p25
I0
sVy
p26
I153
sas."
EndChar
StartChar: D
Encoding: 15 68 15
GlifName: D_
Width: 1300
VWidth: 0
Flags: W
LayerCount: 2
Fore
SplineSet
175 1500 m 257
NamedP: "at01"
 206 1503 206 1503 246 1505 c 128
 286 1507 286 1507 328 1508.5 c 128
 370 1510 370 1510 411 1510.5 c 128
 452 1511 452 1511 485 1511 c 257
NamedP: "at02"
 644 1511 644 1511 779.5 1472 c 128
 915 1433 915 1433 1014 1348 c 128
 1113 1263 1113 1263 1169 1130 c 128
 1225 997 1225 997 1225 810 c 257
NamedP: "sh01"
 1225 664 1225 664 1197 547.5 c 128
 1169 431 1169 431 1119.5 341 c 128
 1070 251 1070 251 1000.5 186.5 c 128
 931 122 931 122 847.5 80.5 c 128
 764 39 764 39 670 19.5 c 128
 576 0 576 0 476 0 c 257
NamedP: "ab01"
 205 0 l 257
NamedP: "sh02"
 205 1290 l 257
 175 1500 l 257
NamedP: "at01"
395 1150 m 257
 395 160 l 257
NamedP: "sh03"
 415 160 l 257
 544 160 544 160 639 190 c 128
 734 220 734 220 800.5 269.5 c 128
 867 319 867 319 909 383.5 c 128
 951 448 951 448 974.5 517 c 128
 998 586 998 586 1006.5 654 c 128
 1015 722 1015 722 1015 780 c 257
NamedP: "ah01"
 1015 865 1015 865 1007 941 c 128
 999 1017 999 1017 977 1081 c 128
 955 1145 955 1145 917 1196 c 128
 879 1247 879 1247 819 1283 c 128
 759 1319 759 1319 674.5 1338.5 c 128
 590 1358 590 1358 476 1358 c 257
NamedP: "sv01"
 460 1358 460 1358 442 1357 c 128
 424 1356 424 1356 408 1354 c 257
NamedP: "sh04"
 370 1350 l 257
NamedP: "sv02"
 395 1150 l 257
EndSplineSet
PickledDataWithLists: "(dp0
Vcom.adobe.type.autohint
p1
(c_codecs
encode
p2
(Vdata
p3
Vlatin1
p4
tp5
Rp6
g2
(V<data>\\u000a        <hintSetList>\\u000a          <hintset pointTag=\"at01\">\\u000a            <hstem pos=\"0\" width=\"160\"/>\\u000a            <hstem pos=\"1358\" width=\"153\"/>\\u000a            <vstem pos=\"99\" width=\"210\"/>\\u000a            <vstem pos=\"929\" width=\"210\"/>\\u000a          </hintset>\\u000a        </hintSetList>\\u000a      </data>
p7
g4
tp8
Rp9
Ntp10
sVcom.fontlab.ttprogram
p11
(g2
(Vdata
p12
g4
tp13
Rp14
g2
(V<data>\\u000a        <ttProgram>\\u000a          <ttc align=\"round\" code=\"alignh\" point=\"lsb\"/>\\u000a          <ttc align=\"round\" code=\"alignh\" point=\"ah01\"/>\\u000a          <ttc code=\"singleh\" point1=\"ah01\" point2=\"sh01\" stem=\"X: 208\"/>\\u000a          <ttc align=\"round\" code=\"singleh\" point1=\"lsb\" point2=\"sh02\"/>\\u000a          <ttc code=\"singleh\" point1=\"sh02\" point2=\"sh03\" stem=\"X: 208\"/>\\u000a          <ttc align=\"round\" code=\"singleh\" point1=\"sh03\" point2=\"sh04\"/>\\u000a          <ttc code=\"singleh\" point1=\"sh01\" point2=\"rsb\" round=\"true\"/>\\u000a          <ttc code=\"alignt\" point=\"at01\" zone=\"t: 1\"/>\\u000a          <ttc code=\"alignt\" point=\"at02\" zone=\"t: 1\"/>\\u000a          <ttc code=\"alignb\" point=\"ab01\" zone=\"b: 0\"/>\\u000a          <ttc code=\"singlev\" point1=\"ab01\" point2=\"sh03\" stem=\"Y: 162\"/>\\u000a          <ttc code=\"singlev\" point1=\"at02\" point2=\"sv01\" stem=\"Y: 153\"/>\\u000a          <ttc align=\"round\" code=\"singlev\" point1=\"sv01\" point2=\"sh04\"/>\\u000a          <ttc align=\"round\" code=\"singlev\" point1=\"sh04\" point2=\"sv02\"/>\\u000a        </ttProgram>\\u000a      </data>
p15
g4
tp16
Rp17
Ntp18
sVcom.typemytype.robofont.guides
p19
(lp20
(dp21
Vangle
p22
I0
sVisGlobal
p23
I00
sVmagnetic
p24
I5
sVx
p25
I0
sVy
p26
I1370
sa(dp27
g22
I0
sg23
I00
sg24
I5
sg25
I0
sg26
I130
sa(dp28
g22
I90
sg23
I00
sg24
I5
sg25
I278
sg26
I0
sas."
EndChar
StartChar: F
Encoding: 26 70 26
GlifName: F_
Width: 1300
VWidth: 0
Flags: W
LayerCount: 2
Fore
SplineSet
395 0 m 257
NamedP: "dh02"
 205 0 l 257
NamedP: "dh01"
 205 1290 l 257
 175 1500 l 257
NamedP: "at01"
 1120 1500 l 257
NamedP: "dh04"
 1100 1340 l 257
NamedP: "sv01"
 375 1340 l 257
 395 1150 l 257
NamedP: "sh01"
 395 885 l 257
 1015 885 l 257
NamedP: "dh03"
 1015 740 l 257
NamedP: "dv01"
 395 740 l 257
 395 0 l 257
NamedP: "dh02"
EndSplineSet
PickledDataWithLists: "(dp0
Vcom.adobe.type.autohint
p1
(c_codecs
encode
p2
(Vdata
p3
Vlatin1
p4
tp5
Rp6
g2
(V<data>\\u000a        <hintSetList>\\u000a          <hintset pointTag=\"dh02\">\\u000a            <hstem pos=\"21\" width=\"-21\"/>\\u000a            <hstem pos=\"740\" width=\"145\"/>\\u000a            <hstem pos=\"1340\" width=\"160\"/>\\u000a            <vstem pos=\"90\" width=\"210\"/>\\u000a          </hintset>\\u000a        </hintSetList>\\u000a      </data>
p7
g4
tp8
Rp9
Ntp10
sVcom.fontlab.ttprogram
p11
(g2
(Vdata
p12
g4
tp13
Rp14
g2
(V<data>\\u000a        <ttProgram>\\u000a          <ttc code=\"doubleh\" point1=\"dh01\" point2=\"dh02\" stem=\"X: 208\"/>\\u000a          <ttc code=\"doubleh\" point1=\"dh03\" point2=\"dh04\" stem=\"X: ecart du B\"/>\\u000a          <ttc code=\"singleh\" point1=\"dh02\" point2=\"sh01\"/>\\u000a          <ttc code=\"alignt\" point=\"at01\" zone=\"t: 1\"/>\\u000a          <ttc code=\"alignb\" point=\"dh02\" zone=\"b: 0\"/>\\u000a          <ttc code=\"doublev\" point1=\"dv01\" point2=\"dh03\" stem=\"Y: 144\"/>\\u000a          <ttc code=\"singlev\" point1=\"at01\" point2=\"sv01\" stem=\"Y: 162\"/>\\u000a        </ttProgram>\\u000a      </data>
p15
g4
tp16
Rp17
Ntp18
s."
EndChar
StartChar: G
Encoding: 27 71 27
GlifName: G_
Width: 1300
VWidth: 0
Flags: W
LayerCount: 2
Fore
SplineSet
1190 197 m 257,0,1
NamedP: "sh01"
 1149 152 1149 152 1098 112.5 c 128,-1,2
 1047 73 1047 73 986 44.5 c 128,-1,3
 925 16 925 16 853 -0.5 c 128,-1,4
 781 -17 781 -17 698 -17 c 257,5,6
NamedP: "ab01"
 554 -17 554 -17 446.5 45.5 c 128,-1,7
 339 108 339 108 268.5 215 c 128,-1,8
 198 322 198 322 163 465 c 128,-1,9
 128 608 128 608 128 770 c 257,10,11
NamedP: "sh02"
 128 871 128 871 141.5 965.5 c 128,-1,12
 155 1060 155 1060 184 1143 c 128,-1,13
 213 1226 213 1226 259.5 1294.5 c 128,-1,14
 306 1363 306 1363 372 1412.5 c 128,-1,15
 438 1462 438 1462 524.5 1489.5 c 128,-1,16
 611 1517 611 1517 721 1517 c 257,17,18
NamedP: "at01"
 836 1517 836 1517 938.5 1480.5 c 128,-1,19
 1041 1444 1041 1444 1113 1375 c 257,20,-1
NamedP: "fh01"
 1023 1268 l 257,21,22
 975 1300 975 1300 903 1324 c 128,-1,23
 831 1348 831 1348 737 1348 c 257,24,25
NamedP: "sv01"
 656 1348 656 1348 595 1327 c 128,-1,26
 534 1306 534 1306 489.5 1268 c 128,-1,27
 445 1230 445 1230 416 1177.5 c 128,-1,28
 387 1125 387 1125 369.5 1061 c 128,-1,29
 352 997 352 997 345 924 c 128,-1,30
 338 851 338 851 338 773 c 257,31,32
NamedP: "sh03"
 338 704 338 704 345.5 631.5 c 128,-1,33
 353 559 353 559 370 490 c 128,-1,34
 387 421 387 421 416 360 c 128,-1,35
 445 299 445 299 487.5 253 c 128,-1,36
 530 207 530 207 588.5 180 c 128,-1,37
 647 153 647 153 724 153 c 257,38,39
NamedP: "sv02"
 769 153 769 153 813 163 c 128,-1,40
 857 173 857 173 896 189 c 128,-1,41
 935 205 935 205 965.5 224.5 c 128,-1,42
 996 244 996 244 1014 263 c 257,43,-1
NamedP: "ah01"
 1014 612 l 257,44,-1
NamedP: "sv03"
 700 632 l 257,45,-1
 700 762 l 257,46,-1
 1190 762 l 257,47,-1
NamedP: "av01"
 1190 197 l 257,0,1
NamedP: "sh01"
EndSplineSet
PickledDataWithLists: "(dp0
Vcom.adobe.type.autohint
p1
(c_codecs
encode
p2
(Vdata
p3
Vlatin1
p4
tp5
Rp6
g2
(V<data>\\u000a        <hintSetList>\\u000a          <hintset pointTag=\"sh01\">\\u000a            <hstem pos=\"-17\" width=\"170\"/>\\u000a            <hstem pos=\"645\" width=\"160\"/>\\u000a            <hstem pos=\"1348\" width=\"169\"/>\\u000a            <vstem pos=\"98\" width=\"210\"/>\\u000a            <vstem pos=\"1020\" width=\"190\"/>\\u000a          </hintset>\\u000a        </hintSetList>\\u000a      </data>
p7
g4
tp8
Rp9
Ntp10
sVcom.fontlab.ttprogram
p11
(g2
(Vdata
p12
g4
tp13
Rp14
g2
(V<data>\\u000a        <ttProgram>\\u000a          <ttc align=\"round\" code=\"alignh\" point=\"lsb\"/>\\u000a          <ttc align=\"round\" code=\"alignh\" point=\"ah01\"/>\\u000a          <ttc code=\"singleh\" point1=\"ah01\" point2=\"sh01\" stem=\"X: 208\"/>\\u000a          <ttc align=\"round\" code=\"singleh\" point1=\"lsb\" point2=\"sh02\"/>\\u000a          <ttc code=\"singleh\" point1=\"sh02\" point2=\"sh03\" stem=\"X: 208\"/>\\u000a          <ttc code=\"singleh\" point1=\"sh01\" point2=\"rsb\" round=\"true\"/>\\u000a          <ttc align=\"right\" code=\"alignv\" point=\"av01\"/>\\u000a          <ttc code=\"alignt\" point=\"at01\" zone=\"t: 1\"/>\\u000a          <ttc code=\"alignb\" point=\"ab01\" zone=\"b: 0\"/>\\u000a          <ttc code=\"singlev\" point1=\"at01\" point2=\"sv01\" stem=\"Y: 171\"/>\\u000a          <ttc code=\"singlev\" point1=\"ab01\" point2=\"sv02\" stem=\"Y: 171\"/>\\u000a          <ttc code=\"singlev\" point1=\"av01\" point2=\"sv03\" stem=\"Y: 162\"/>\\u000a          <ttc code=\"fdeltah\" delta=\"-8\" point=\"fh01\" ppm1=\"18\" ppm2=\"18\"/>\\u000a        </ttProgram>\\u000a      </data>
p15
g4
tp16
Rp17
Ntp18
s."
EndChar
StartChar: H
Encoding: 29 72 29
GlifName: H_
Width: 1300
VWidth: 0
Flags: W
LayerCount: 2
Fore
SplineSet
946 0 m 257
NamedP: "ah01"
 946 725 l 257
NamedP: "dv01"
 378 725 l 257
 378 0 l 257
NamedP: "sh02"
 188 0 l 257
NamedP: "sh01"
 188 1290 l 257
 159 1500 l 257
 378 1520 l 257
NamedP: "sh03"
 378 885 l 257
 946 885 l 257
NamedP: "sh04"
 946 1500 l 257
 1136 1520 l 257
NamedP: "at01"
 1136 0 l 257
NamedP: "sh05"
 946 0 l 257
NamedP: "ah01"
EndSplineSet
PickledDataWithLists: "(dp0
Vcom.adobe.type.autohint
p1
(c_codecs
encode
p2
(Vdata
p3
Vlatin1
p4
tp5
Rp6
g2
(V<data>\\u000a        <hintSetList>\\u000a          <hintset pointTag=\"ah01\">\\u000a            <hstem pos=\"21\" width=\"-21\"/>\\u000a            <hstem pos=\"725\" width=\"160\"/>\\u000a            <hstem pos=\"1520\" width=\"-20\"/>\\u000a            <vstem pos=\"151\" width=\"205\"/>\\u000a            <vstem pos=\"986\" width=\"205\"/>\\u000a          </hintset>\\u000a        </hintSetList>\\u000a      </data>
p7
g4
tp8
Rp9
Ntp10
sVcom.fontlab.ttprogram
p11
(g2
(Vdata
p12
g4
tp13
Rp14
g2
(V<data>\\u000a        <ttProgram>\\u000a          <ttc align=\"round\" code=\"alignh\" point=\"lsb\"/>\\u000a          <ttc align=\"round\" code=\"alignh\" point=\"ah01\"/>\\u000a          <ttc align=\"round\" code=\"singleh\" point1=\"lsb\" point2=\"sh01\"/>\\u000a          <ttc code=\"singleh\" point1=\"sh01\" point2=\"sh02\" stem=\"X: 208\"/>\\u000a          <ttc code=\"singleh\" point1=\"sh02\" point2=\"sh03\"/>\\u000a          <ttc code=\"singleh\" point1=\"ah01\" point2=\"sh04\"/>\\u000a          <ttc code=\"singleh\" point1=\"ah01\" point2=\"sh05\" stem=\"X: 208\"/>\\u000a          <ttc code=\"singleh\" point1=\"sh05\" point2=\"rsb\" round=\"true\"/>\\u000a          <ttc code=\"alignt\" point=\"sh03\" zone=\"t: 1\"/>\\u000a          <ttc code=\"alignt\" point=\"at01\" zone=\"t: 1\"/>\\u000a          <ttc code=\"alignb\" point=\"ah01\" zone=\"b: 0\"/>\\u000a          <ttc code=\"alignb\" point=\"sh02\" zone=\"b: 0\"/>\\u000a          <ttc code=\"doublev\" point1=\"dv01\" point2=\"sh04\" stem=\"Y: 162\"/>\\u000a        </ttProgram>\\u000a      </data>
p15
g4
tp16
Rp17
Ntp18
s."
EndChar
StartChar: J
Encoding: 37 74 37
GlifName: J_
Width: 1300
VWidth: 0
Flags: W
LayerCount: 2
Fore
SplineSet
390 1500 m 257,0,-1
NamedP: "hr00"
 1090 1500 l 257,1,-1
NamedP: "ah01"
 1090 430 l 257,2,3
NamedP: "dh02"
 1090 333 1090 333 1066 254 c 128,-1,4
 1042 175 1042 175 990 112 c 257,5,6
 938 49 938 49 854 16 c 128,-1,7
 770 -17 770 -17 648 -17 c 257,8,9
NamedP: "ab01"
 570 -17 570 -17 508.5 1.5 c 128,-1,10
 447 20 447 20 398 49.5 c 128,-1,11
 349 79 349 79 310.5 114 c 128,-1,12
 272 149 272 149 240 182 c 257,13,-1
NamedP: "dv01"
 342 300 l 257,14,15
NamedP: "dv02"
 352 290 352 290 379 267.5 c 128,-1,16
 406 245 406 245 445 222.5 c 128,-1,17
 484 200 484 200 533 183 c 128,-1,18
 582 166 582 166 638 166 c 257,19,20
NamedP: "sv01"
 767 166 767 166 838.5 239 c 128,-1,21
 910 312 910 312 910 470 c 257,22,-1
NamedP: "dh01"
 910 1148 l 257,23,-1
 930 1340 l 257,24,-1
 410 1340 l 257,25,-1
NamedP: "sh01"
 390 1500 l 257,0,-1
NamedP: "hr00"
EndSplineSet
PickledDataWithLists: "(dp0
Vcom.adobe.type.autohint
p1
(c_codecs
encode
p2
(Vdata
p3
Vlatin1
p4
tp5
Rp6
g2
(V<data>\\u000a        <hintSetList>\\u000a          <hintset pointTag=\"hr00\">\\u000a            <hstem pos=\"-17\" width=\"173\"/>\\u000a            <hstem pos=\"1520\" width=\"-20\"/>\\u000a            <vstem pos=\"590\" width=\"210\"/>\\u000a          </hintset>\\u000a        </hintSetList>\\u000a      </data>
p7
g4
tp8
Rp9
Ntp10
sVcom.fontlab.ttprogram
p11
(g2
(Vdata
p12
g4
tp13
Rp14
g2
(V<data>\\u000a        <ttProgram>\\u000a          <ttc align=\"round\" code=\"alignh\" point=\"ah01\"/>\\u000a          <ttc code=\"doubleh\" point1=\"dh01\" point2=\"dh02\" stem=\"X: 208\"/>\\u000a          <ttc code=\"singleh\" point1=\"ah01\" point2=\"sh01\" round=\"true\"/>\\u000a          <ttc code=\"singleh\" point1=\"dh02\" point2=\"rsb\" round=\"true\"/>\\u000a          <ttc code=\"alignt\" point=\"ah01\" zone=\"t: 1\"/>\\u000a          <ttc code=\"alignb\" point=\"ab01\" zone=\"b: 0\"/>\\u000a          <ttc code=\"doublev\" point1=\"dv01\" point2=\"dv02\" stem=\"Y: 171\"/>\\u000a          <ttc code=\"singlev\" point1=\"ab01\" point2=\"sv01\" stem=\"Y: 171\"/>\\u000a          <ttc code=\"singlev\" point1=\"ah01\" point2=\"sh01\" stem=\"Y: 171\"/>\\u000a        </ttProgram>\\u000a      </data>
p15
g4
tp16
Rp17
Ntp18
s."
EndChar
StartChar: O
Encoding: 48 79 48
GlifName: O_
Width: 1300
VWidth: 0
Flags: W
LayerCount: 2
Fore
SplineSet
650 -17 m 257
NamedP: "ab01"
 560 -17 560 -17 484.5 10.5 c 128
 409 38 409 38 347.5 88.5 c 128
 286 139 286 139 240 209 c 128
 194 279 194 279 162.5 364.5 c 128
 131 450 131 450 115.5 547.5 c 128
 100 645 100 645 100 750 c 257
NamedP: "sh01"
 100 855 100 855 115 952.5 c 128
 130 1050 130 1050 160.5 1135.5 c 128
 191 1221 191 1221 236.5 1291 c 128
 282 1361 282 1361 343 1411.5 c 128
 404 1462 404 1462 481 1489.5 c 128
 558 1517 558 1517 650 1517 c 257
NamedP: "at01"
 740 1517 740 1517 815.5 1489.5 c 128
 891 1462 891 1462 952.5 1411.5 c 128
 1014 1361 1014 1361 1060 1291 c 128
 1106 1221 1106 1221 1137.5 1135.5 c 128
 1169 1050 1169 1050 1184.5 952.5 c 128
 1200 855 1200 855 1200 750 c 257
NamedP: "sh02"
 1200 645 1200 645 1185 547.5 c 128
 1170 450 1170 450 1139.5 364.5 c 128
 1109 279 1109 279 1063.5 209 c 128
 1018 139 1018 139 957 88.5 c 128
 896 38 896 38 819 10.5 c 128
 742 -17 742 -17 650 -17 c 257
NamedP: "ab01"
992 719 m 257
NamedP: "ah01"
 992 789 992 789 987.5 862 c 128
 983 935 983 935 969.5 1004.5 c 128
 956 1074 956 1074 932 1135.5 c 128
 908 1197 908 1197 869.5 1242.5 c 128
 831 1288 831 1288 775.5 1315 c 128
 720 1342 720 1342 644 1342 c 257
NamedP: "sv01"
 572 1342 572 1342 519 1318 c 128
 466 1294 466 1294 429 1252.5 c 128
 392 1211 392 1211 368 1155.5 c 128
 344 1100 344 1100 331 1038 c 128
 318 976 318 976 313 911 c 128
 308 846 308 846 308 785 c 257
NamedP: "sh03"
 308 714 308 714 312.5 640 c 128
 317 566 317 566 330.5 496.5 c 128
 344 427 344 427 368 365.5 c 128
 392 304 392 304 431 258 c 128
 470 212 470 212 525 185 c 128
 580 158 580 158 656 158 c 257
NamedP: "sv02"
 727 158 727 158 779.5 182.5 c 128
 832 207 832 207 869.5 249.5 c 128
 907 292 907 292 931 347.5 c 128
 955 403 955 403 968.5 465.5 c 128
 982 528 982 528 987 593 c 128
 992 658 992 658 992 719 c 257
NamedP: "ah01"
EndSplineSet
PickledDataWithLists: "(dp0
Vcom.adobe.type.autohint
p1
(c_codecs
encode
p2
(Vdata
p3
Vlatin1
p4
tp5
Rp6
g2
(V<data>\\u000a        <hintSetList>\\u000a          <hintset pointTag=\"ab01\">\\u000a            <hstem pos=\"-17\" width=\"170\"/>\\u000a            <hstem pos=\"1347\" width=\"170\"/>\\u000a            <vstem pos=\"150\" width=\"208\"/>\\u000a            <vstem pos=\"1294\" width=\"208\"/>\\u000a          </hintset>\\u000a        </hintSetList>\\u000a      </data>
p7
g4
tp8
Rp9
Ntp10
sVcom.fontlab.ttprogram
p11
(g2
(Vdata
p12
g4
tp13
Rp14
g2
(V<data>\\u000a        <ttProgram>\\u000a          <ttc align=\"round\" code=\"alignh\" point=\"lsb\"/>\\u000a          <ttc align=\"round\" code=\"alignh\" point=\"ah01\"/>\\u000a          <ttc align=\"round\" code=\"singleh\" point1=\"lsb\" point2=\"sh01\"/>\\u000a          <ttc code=\"singleh\" point1=\"ah01\" point2=\"sh02\" stem=\"X: 208\"/>\\u000a          <ttc code=\"singleh\" point1=\"sh01\" point2=\"sh03\" stem=\"X: 208\"/>\\u000a          <ttc code=\"singleh\" point1=\"sh02\" point2=\"rsb\" round=\"true\"/>\\u000a          <ttc code=\"alignt\" point=\"at01\" zone=\"t: 1\"/>\\u000a          <ttc code=\"alignb\" point=\"ab01\" zone=\"b: 0\"/>\\u000a          <ttc code=\"singlev\" point1=\"at01\" point2=\"sv01\" stem=\"Y: 171\"/>\\u000a          <ttc code=\"singlev\" point1=\"ab01\" point2=\"sv02\" stem=\"Y: 171\"/>\\u000a        </ttProgram>\\u000a      </data>
p15
g4
tp16
Rp17
Ntp18
s."
EndChar
StartChar: Q
Encoding: 62 81 62
GlifName: Q_
Width: 1300
VWidth: 0
Flags: W
LayerCount: 2
Fore
SplineSet
916 314 m 257
NamedP: "hr00"
 935 346 935 346 951 385.5 c 128
 967 425 967 425 977.5 477 c 128
 988 529 988 529 994 596.5 c 128
 1000 664 1000 664 1000 751 c 257
NamedP: "dh03"
 1000 821 1000 821 993.5 892 c 128
 987 963 987 963 971 1029.5 c 128
 955 1096 955 1096 929 1154 c 128
 903 1212 903 1212 863 1254.5 c 128
 823 1297 823 1297 769 1322 c 128
 715 1347 715 1347 644 1347 c 257
NamedP: "sv01"
 576 1347 576 1347 524.5 1322.5 c 128
 473 1298 473 1298 435 1256 c 128
 397 1214 397 1214 371 1158 c 128
 345 1102 345 1102 329 1039.5 c 128
 313 977 313 977 306.5 911.5 c 128
 300 846 300 846 300 785 c 257
NamedP: "dh02"
 300 705 300 705 305 628 c 128
 310 551 310 551 324.5 482 c 128
 339 413 339 413 365.5 355 c 128
 392 297 392 297 435.5 254.5 c 128
 479 212 479 212 542 188 c 128
NamedP: "sv02"
 605 164 605 164 693 163 c 257
 703 163 703 163 711 165 c 128
 719 167 719 167 736 172 c 257
NamedP: "iv01"
 710 217 710 217 690.5 251.5 c 128
 671 286 671 286 651 309.5 c 128
 631 333 631 333 607 344.5 c 128
 583 356 583 356 549 356 c 257
NamedP: "dv03"
 600 500 l 257
NamedP: "dv04"
 649 500 649 500 688.5 479.5 c 128
 728 459 728 459 764 418 c 128
 800 377 800 377 836 316.5 c 128
 872 256 872 256 916 177 c 257
NamedP: "iv02"
 916 314 l 257
NamedP: "hr00"
756 0 m 257
 723 -8 723 -8 685.5 -11 c 128
 648 -14 648 -14 600 -14 c 257
NamedP: "ab01"
 476 -14 476 -14 382.5 49 c 128
 289 112 289 112 226 218 c 128
 163 324 163 324 131.5 462 c 128
 100 600 100 600 100 750 c 257
NamedP: "dh01"
 100 855 100 855 115 952.5 c 128
 130 1050 130 1050 160.5 1135.5 c 128
 191 1221 191 1221 236.5 1291 c 128
 282 1361 282 1361 343 1411.5 c 128
 404 1462 404 1462 481 1489.5 c 128
 558 1517 558 1517 650 1517 c 257
NamedP: "at01"
 785 1517 785 1517 888 1461 c 128
 991 1405 991 1405 1060 1307 c 128
 1129 1209 1129 1209 1164.5 1074 c 128
 1200 939 1200 939 1200 782 c 257
NamedP: "dh04"
 1200 686 1200 686 1189 590.5 c 128
 1178 495 1178 495 1154.5 409 c 128
 1131 323 1131 323 1093.5 249.5 c 128
 1056 176 1056 176 1002 124 c 257
 994 116 994 116 985 107.5 c 128
 976 99 976 99 968 92 c 257
 987 60 987 60 1002 42 c 128
 1017 24 1017 24 1036 14.5 c 128
 1055 5 1055 5 1082 2.5 c 128
 1109 0 1109 0 1151 0 c 257
NamedP: "dv02"
 1100 -145 l 257
NamedP: "dv01"
 1050 -145 1050 -145 1008.5 -137 c 128
 967 -129 967 -129 928.5 -103 c 128
 890 -77 890 -77 853 -28 c 128
 816 21 816 21 774 102 c 257
 756 137 l 257
 756 0 l 257
EndSplineSet
PickledDataWithLists: "(dp0
Vcom.adobe.type.autohint
p1
(c_codecs
encode
p2
(Vdata
p3
Vlatin1
p4
tp5
Rp6
g2
(V<data>\\u000a        <hintSetList>\\u000a          <hintset pointTag=\"hr00\">\\u000a            <hstem pos=\"-17\" width=\"170\"/>\\u000a            <hstem pos=\"301\" width=\"144\"/>\\u000a            <hstem pos=\"1347\" width=\"170\"/>\\u000a            <vstem pos=\"150\" width=\"208\"/>\\u000a            <vstem pos=\"1294\" width=\"208\"/>\\u000a          </hintset>\\u000a        </hintSetList>\\u000a      </data>
p7
g4
tp8
Rp9
Ntp10
sVcom.fontlab.ttprogram
p11
(g2
(Vdata
p12
g4
tp13
Rp14
g2
(V<data>\\u000a        <ttProgram>\\u000a          <ttc code=\"doubleh\" point1=\"dh01\" point2=\"dh02\" stem=\"X: 208\"/>\\u000a          <ttc code=\"doubleh\" point1=\"dh03\" point2=\"dh04\" stem=\"X: 208\"/>\\u000a          <ttc code=\"singleh\" point1=\"dh04\" point2=\"rsb\" round=\"true\"/>\\u000a          <ttc code=\"alignt\" point=\"at01\" zone=\"t: 1\"/>\\u000a          <ttc code=\"alignb\" point=\"ab01\" zone=\"b: 0\"/>\\u000a          <ttc code=\"doublev\" point1=\"dv01\" point2=\"dv02\" stem=\"Y: 144\"/>\\u000a          <ttc code=\"doublev\" point1=\"dv03\" point2=\"dv04\" stem=\"Y: 144\"/>\\u000a          <ttc code=\"singlev\" point1=\"at01\" point2=\"sv01\" stem=\"Y: 171\"/>\\u000a          <ttc code=\"singlev\" point1=\"ab01\" point2=\"sv02\" stem=\"Y: 171\"/>\\u000a          <ttc code=\"interpolatev\" point=\"iv01\" point1=\"dv03\" point2=\"ab01\"/>\\u000a          <ttc code=\"interpolatev\" point=\"iv02\" point1=\"at01\" point2=\"ab01\"/>\\u000a        </ttProgram>\\u000a      </data>
p15
g4
tp16
Rp17
Ntp18
s."
EndChar
StartChar: R
Encoding: 63 82 63
GlifName: R_
Width: 1300
VWidth: 0
Flags: W
LayerCount: 2
Fore
SplineSet
392 614 m 257,0,-1
NamedP: "dv02"
 392 0 l 257,1,-1
NamedP: "sh02"
 209 0 l 257,2,-1
NamedP: "sh01"
 209 1290 l 257,3,-1
 174 1490 l 257,4,5
 241 1498 241 1498 321.5 1505 c 128,-1,6
 402 1512 402 1512 489 1512 c 257,7,8
NamedP: "at01"
 615 1512 615 1512 722 1485.5 c 128,-1,9
 829 1459 829 1459 907 1407 c 128,-1,10
 985 1355 985 1355 1029 1277.5 c 128,-1,11
 1073 1200 1073 1200 1073 1099 c 257,12,13
NamedP: "sh03"
 1073 994 1073 994 1037 914 c 128,-1,14
 1001 834 1001 834 939 777.5 c 128,-1,15
 877 721 877 721 792 685.5 c 128,-1,16
 707 650 707 650 610 633 c 257,17,-1
NamedP: "ih01"
 752 593 l 257,18,-1
 1155 0 l 257,19,-1
NamedP: "ab01"
 932 0 l 257,20,-1
 529 595 l 257,21,22
 518 609 518 609 504 611.5 c 128,-1,23
 490 614 490 614 482 614 c 257,24,-1
 392 614 l 257,0,-1
NamedP: "dv02"
392 1147 m 257,25,-1
NamedP: "sh04"
 392 765 l 257,26,-1
NamedP: "dv01"
 510 765 l 257,27,28
 601 765 601 765 671 790.5 c 128,-1,29
 741 816 741 816 789 859.5 c 128,-1,30
 837 903 837 903 862 960.5 c 128,-1,31
 887 1018 887 1018 887 1083 c 257,32,33
NamedP: "ah01"
 887 1140 887 1140 871 1184 c 128,-1,34
 855 1228 855 1228 827 1260 c 128,-1,35
 799 1292 799 1292 762 1314.5 c 128,-1,36
 725 1337 725 1337 683.5 1350 c 128,-1,37
 642 1363 642 1363 598.5 1369 c 128,-1,38
 555 1375 555 1375 514 1375 c 257,39,40
NamedP: "sv01"
 472 1375 472 1375 438.5 1372.5 c 128,-1,41
 405 1370 405 1370 372 1364 c 257,42,-1
NamedP: "sv02"
 392 1147 l 257,25,-1
NamedP: "sh04"
EndSplineSet
PickledDataWithLists: "(dp0
Vcom.adobe.type.autohint
p1
(c_codecs
encode
p2
(Vdata
p3
Vlatin1
p4
tp5
Rp6
g2
(V<data>\\u000a        <hintSetList>\\u000a          <hintset pointTag=\"dv02\">\\u000a            <hstem pos=\"21\" width=\"-21\"/>\\u000a            <hstem pos=\"614\" width=\"151\"/>\\u000a            <hstem pos=\"1375\" width=\"137\"/>\\u000a            <vstem pos=\"90\" width=\"210\"/>\\u000a            <vstem pos=\"805\" width=\"186\"/>\\u000a          </hintset>\\u000a        </hintSetList>\\u000a      </data>
p7
g4
tp8
Rp9
Ntp10
sVcom.fontlab.ttprogram
p11
(g2
(Vdata
p12
g4
tp13
Rp14
g2
(V<data>\\u000a        <ttProgram>\\u000a          <ttc align=\"round\" code=\"alignh\" point=\"ah01\"/>\\u000a          <ttc align=\"round\" code=\"alignh\" point=\"lsb\"/>\\u000a          <ttc code=\"singleh\" point1=\"lsb\" point2=\"sh01\"/>\\u000a          <ttc code=\"singleh\" point1=\"sh01\" point2=\"sh02\" stem=\"X: 208\"/>\\u000a          <ttc code=\"singleh\" point1=\"ah01\" point2=\"sh03\" stem=\"X: 190\"/>\\u000a          <ttc code=\"interpolateh\" point=\"ih01\" point1=\"sh03\" point2=\"sh01\"/>\\u000a          <ttc code=\"singleh\" point1=\"sh02\" point2=\"sh04\"/>\\u000a          <ttc code=\"singleh\" point1=\"sh03\" point2=\"rsb\" round=\"true\"/>\\u000a          <ttc code=\"alignt\" point=\"at01\" zone=\"t: 1\"/>\\u000a          <ttc code=\"alignb\" point=\"sh02\" zone=\"b: 0\"/>\\u000a          <ttc code=\"alignb\" point=\"ab01\" zone=\"b: 0\"/>\\u000a          <ttc code=\"doublev\" point1=\"dv01\" point2=\"dv02\" stem=\"Y: 153\"/>\\u000a          <ttc code=\"interpolatev\" point=\"ih01\" point1=\"dv01\" point2=\"dv02\"/>\\u000a          <ttc code=\"singlev\" point1=\"at01\" point2=\"sv01\" stem=\"Y: 135\"/>\\u000a          <ttc code=\"singlev\" point1=\"sv01\" point2=\"sv02\"/>\\u000a        </ttProgram>\\u000a      </data>
p15
g4
tp16
Rp17
Ntp18
s."
EndChar
StartChar: S
Encoding: 66 83 66
GlifName: S_
Width: 1300
VWidth: 0
Flags: W
LayerCount: 2
Fore
SplineSet
193 94 m 257
NamedP: "hr00"
 284 244 l 257
 304 231 304 231 336.5 214.5 c 128
 369 198 369 198 409 183 c 128
 449 168 449 168 494 158 c 128
 539 148 539 148 585 148 c 257
NamedP: "sv01"
 647 148 647 148 709.5 163.5 c 128
 772 179 772 179 822.5 211.5 c 128
 873 244 873 244 904.5 294 c 128
 936 344 936 344 936 413 c 257
NamedP: "ah01"
 936 478 936 478 906 527 c 128
 876 576 876 576 827 615 c 128
 778 654 778 654 715 686 c 128
NamedP: "iv01"
 652 718 652 718 586.5 750 c 128
 521 782 521 782 458 816.5 c 128
 395 851 395 851 346 895 c 128
 297 939 297 939 267 995 c 128
 237 1051 237 1051 237 1126 c 257
NamedP: "sh01"
 237 1223 237 1223 278 1296 c 128
 319 1369 319 1369 385 1418 c 128
 451 1467 451 1467 535 1492 c 128
 619 1517 619 1517 705 1517 c 257
NamedP: "at01"
 918 1517 918 1517 1098 1397 c 257
 1001 1274 l 257
 933 1314 933 1314 870.5 1333 c 128
 808 1352 808 1352 731 1352 c 257
NamedP: "sv02"
 677 1352 677 1352 622.5 1341 c 128
 568 1330 568 1330 524.5 1305.5 c 128
 481 1281 481 1281 453.5 1241.5 c 128
 426 1202 426 1202 426 1145 c 257
NamedP: "sh02"
 426 1089 426 1089 456.5 1048 c 128
 487 1007 487 1007 536.5 974.5 c 128
 586 942 586 942 649 913.5 c 128
NamedP: "iv02"
 712 885 712 885 778.5 854.5 c 128
 845 824 845 824 908 787.5 c 128
 971 751 971 751 1020.5 701.5 c 128
 1070 652 1070 652 1100.5 585.5 c 128
 1131 519 1131 519 1131 429 c 257
NamedP: "sh03"
 1131 317 1131 317 1085.5 233.5 c 128
 1040 150 1040 150 965.5 94.5 c 128
 891 39 891 39 795 11 c 128
 699 -17 699 -17 599 -17 c 257
NamedP: "ab01"
 535 -17 535 -17 480 -9.5 c 128
 425 -2 425 -2 375.5 12 c 128
 326 26 326 26 281 46.5 c 128
 236 67 236 67 193 94 c 257
NamedP: "hr00"
EndSplineSet
PickledDataWithLists: "(dp0
Vcom.adobe.type.autohint
p1
(c_codecs
encode
p2
(Vdata
p3
Vlatin1
p4
tp5
Rp6
g2
(V<data>\\u000a        <hintSetList>\\u000a          <hintset pointTag=\"hr00\">\\u000a            <hstem pos=\"-17\" width=\"165\"/>\\u000a            <hstem pos=\"1352\" width=\"165\"/>\\u000a            <vstem pos=\"167\" width=\"204\"/>\\u000a            <vstem pos=\"861\" width=\"204\"/>\\u000a          </hintset>\\u000a        </hintSetList>\\u000a      </data>
p7
g4
tp8
Rp9
Ntp10
sVcom.fontlab.ttprogram
p11
(g2
(Vdata
p12
g4
tp13
Rp14
g2
(V<data>\\u000a        <ttProgram>\\u000a          <ttc align=\"round\" code=\"alignh\" point=\"lsb\"/>\\u000a          <ttc align=\"round\" code=\"alignh\" point=\"ah01\"/>\\u000a          <ttc code=\"singleh\" point1=\"lsb\" point2=\"sh01\"/>\\u000a          <ttc code=\"singleh\" point1=\"sh01\" point2=\"sh02\" stem=\"X: 208\"/>\\u000a          <ttc code=\"singleh\" point1=\"ah01\" point2=\"sh03\" stem=\"X: 208\"/>\\u000a          <ttc code=\"singleh\" point1=\"sh03\" point2=\"rsb\" round=\"true\"/>\\u000a          <ttc code=\"alignt\" point=\"at01\" zone=\"t: 1\"/>\\u000a          <ttc code=\"alignb\" point=\"ab01\" zone=\"b: 0\"/>\\u000a          <ttc code=\"singlev\" point1=\"ab01\" point2=\"sv01\" stem=\"Y: 162\"/>\\u000a          <ttc code=\"singlev\" point1=\"at01\" point2=\"sv02\" stem=\"Y: 162\"/>\\u000a          <ttc code=\"interpolatev\" point=\"iv01\" point1=\"sv02\" point2=\"sv01\"/>\\u000a          <ttc code=\"interpolatev\" point=\"iv02\" point1=\"sv01\" point2=\"sv02\"/>\\u000a        </ttProgram>\\u000a      </data>
p15
g4
tp16
Rp17
Ntp18
s."
EndChar
StartChar: V
Encoding: 80 86 80
GlifName: V_
Width: 1300
VWidth: 0
Flags: W
LayerCount: 2
Fore
SplineSet
605 500 m 257
NamedP: "hr00"
 663 140 l 257
NamedP: "ah01"
 701 454 l 257
 1011 1500 l 257
NamedP: "sh01"
 1195 1500 l 257
NamedP: "sh02"
 808 180 l 257
 782 -20 l 257
NamedP: "ab01"
 554 0 l 257
NamedP: "fh01"
 112 1500 l 257
NamedP: "sh04"
 302 1520 l 257
NamedP: "sh03"
 605 500 l 257
NamedP: "hr00"
EndSplineSet
PickledDataWithLists: "(dp0
Vcom.adobe.type.autohint
p1
(c_codecs
encode
p2
(Vdata
p3
Vlatin1
p4
tp5
Rp6
g2
(V<data>\\u000a        <hintSetList>\\u000a          <hintset pointTag=\"hr00\">\\u000a            <hstem pos=\"1\" width=\"-21\"/>\\u000a            <hstem pos=\"1520\" width=\"-20\"/>\\u000a          </hintset>\\u000a        </hintSetList>\\u000a      </data>
p7
g4
tp8
Rp9
Ntp10
sVcom.fontlab.ttprogram
p11
(g2
(Vdata
p12
g4
tp13
Rp14
g2
(V<data>\\u000a        <ttProgram>\\u000a          <ttc align=\"center\" code=\"alignh\" point=\"ah01\"/>\\u000a          <ttc code=\"singleh\" point1=\"ah01\" point2=\"sh01\" round=\"true\"/>\\u000a          <ttc code=\"singleh\" point1=\"sh01\" point2=\"sh02\" stem=\"X: dia Lite\"/>\\u000a          <ttc code=\"singleh\" point1=\"ah01\" point2=\"sh03\" round=\"true\"/>\\u000a          <ttc code=\"singleh\" point1=\"sh03\" point2=\"sh04\" stem=\"X: dia Fat\"/>\\u000a          <ttc code=\"alignt\" point=\"sh03\" zone=\"t: 1\"/>\\u000a          <ttc code=\"alignb\" point=\"ab01\" zone=\"b: 0\"/>\\u000a          <ttc code=\"interpolatev\" point=\"ah01\" point1=\"ab01\" point2=\"sh03\"/>\\u000a          <ttc code=\"fdeltah\" delta=\"3\" point=\"fh01\" ppm1=\"18\" ppm2=\"18\"/>\\u000a        </ttProgram>\\u000a      </data>
p15
g4
tp16
Rp17
Ntp18
s."
EndChar
StartChar: W
Encoding: 81 87 81
GlifName: W_
Width: 1300
VWidth: 0
Flags: W
LayerCount: 2
Fore
SplineSet
484 700 m 257
NamedP: "hr00"
 580 1100 l 257
NamedP: "sh01"
 720 1100 l 257
NamedP: "sh02"
 823 700 l 257
 894 200 l 257
NamedP: "ah02"
 898 200 l 257
NamedP: "iv01"
 930 660 l 257
 1083 1500 l 257
NamedP: "sh03"
 1260 1500 l 257
NamedP: "sh04"
 988 0 l 257
NamedP: "ab01"
 807 0 l 257
NamedP: "sh05"
 711 450 l 257
 652 950 l 257
NamedP: "ah03"
 648 950 l 257
 590 450 l 257
 492 0 l 257
NamedP: "sh06"
 314 0 l 257
 38 1500 l 257
NamedP: "sh08"
 212 1520 l 257
NamedP: "sh07"
 380 660 l 257
 411 200 l 257
NamedP: "ah01"
 415 200 l 257
NamedP: "iv02"
 484 700 l 257
NamedP: "hr00"
EndSplineSet
PickledDataWithLists: "(dp0
Vcom.adobe.type.autohint
p1
(c_codecs
encode
p2
(Vdata
p3
Vlatin1
p4
tp5
Rp6
g2
(V<data>\\u000a        <hintSetList>\\u000a          <hintset pointTag=\"hr00\">\\u000a            <hstem pos=\"21\" width=\"-21\"/>\\u000a            <hstem pos=\"1520\" width=\"-20\"/>\\u000a          </hintset>\\u000a        </hintSetList>\\u000a      </data>
p7
g4
tp8
Rp9
Ntp10
sVcom.fontlab.ttprogram
p11
(g2
(Vdata
p12
g4
tp13
Rp14
g2
(V<data>\\u000a        <ttProgram>\\u000a          <ttc align=\"round\" code=\"alignh\" point=\"ah01\"/>\\u000a          <ttc align=\"round\" code=\"alignh\" point=\"ah02\"/>\\u000a          <ttc align=\"round\" code=\"alignh\" point=\"ah03\"/>\\u000a          <ttc code=\"singleh\" point1=\"ah01\" point2=\"sh01\"/>\\u000a          <ttc code=\"singleh\" point1=\"ah02\" point2=\"sh02\"/>\\u000a          <ttc code=\"singleh\" point1=\"ah02\" point2=\"sh03\"/>\\u000a          <ttc code=\"singleh\" point1=\"sh03\" point2=\"sh04\" stem=\"X: dia Lite\"/>\\u000a          <ttc code=\"singleh\" point1=\"ah03\" point2=\"sh05\"/>\\u000a          <ttc code=\"singleh\" point1=\"ah03\" point2=\"sh06\"/>\\u000a          <ttc code=\"singleh\" point1=\"ah01\" point2=\"sh07\"/>\\u000a          <ttc code=\"singleh\" point1=\"sh07\" point2=\"sh08\" stem=\"X: dia Fat\"/>\\u000a          <ttc code=\"alignt\" point=\"sh07\" zone=\"t: 1\"/>\\u000a          <ttc code=\"alignb\" point=\"sh06\" zone=\"b: 0\"/>\\u000a          <ttc code=\"alignb\" point=\"ab01\" zone=\"b: 0\"/>\\u000a          <ttc code=\"interpolatev\" point=\"iv01\" point1=\"sh07\" point2=\"ab01\"/>\\u000a          <ttc code=\"interpolatev\" point=\"ah03\" point1=\"sh07\" point2=\"ab01\"/>\\u000a          <ttc code=\"interpolatev\" point=\"iv02\" point1=\"sh07\" point2=\"ab01\"/>\\u000a        </ttProgram>\\u000a      </data>
p15
g4
tp16
Rp17
Ntp18
s."
EndChar
StartChar: X
Encoding: 82 88 82
GlifName: X_
Width: 1300
VWidth: 0
Flags: W
LayerCount: 2
Fore
SplineSet
1009 0 m 257,0,-1
NamedP: "sh01"
 732 519 l 257,1,-1
NamedP: "fh01"
 655 700 l 257,2,-1
NamedP: "ah02"
 607 540 l 257,3,-1
NamedP: "fh02"
 299 0 l 257,4,-1
NamedP: "sh02"
 101 0 l 257,5,-1
NamedP: "fh03"
 564 799 l 257,6,-1
NamedP: "fh04"
 158 1500 l 257,7,-1
NamedP: "sh04"
 370 1520 l 257,8,-1
NamedP: "sh03"
 631 1056 l 257,9,-1
NamedP: "fh05"
 711 860 l 257,10,-1
NamedP: "ah01"
 746 1020 l 257,11,-1
NamedP: "fh06"
 998 1500 l 257,12,-1
NamedP: "sh05"
 1198 1500 l 257,13,-1
NamedP: "fh07"
 799 776 l 257,14,-1
NamedP: "fh08"
 1229 0 l 257,15,-1
NamedP: "sh06"
 1009 0 l 257,0,-1
NamedP: "sh01"
EndSplineSet
PickledDataWithLists: "(dp0
Vcom.adobe.type.autohint
p1
(c_codecs
encode
p2
(Vdata
p3
Vlatin1
p4
tp5
Rp6
g2
(V<data>\\u000a        <hintSetList>\\u000a          <hintset pointTag=\"sh01\">\\u000a            <hstem pos=\"0\" width=\"-20\"/>\\u000a            <hstem pos=\"1520\" width=\"-20\"/>\\u000a          </hintset>\\u000a        </hintSetList>\\u000a      </data>
p7
g4
tp8
Rp9
Ntp10
sVcom.fontlab.ttprogram
p11
(g2
(Vdata
p12
g4
tp13
Rp14
g2
(V<data>\\u000a        <ttProgram>\\u000a          <ttc align=\"center\" code=\"alignh\" point=\"ah01\"/>\\u000a          <ttc align=\"center\" code=\"alignh\" point=\"ah02\"/>\\u000a          <ttc code=\"singleh\" point1=\"ah02\" point2=\"sh01\"/>\\u000a          <ttc code=\"singleh\" point1=\"ah02\" point2=\"sh02\"/>\\u000a          <ttc code=\"singleh\" point1=\"ah01\" point2=\"sh03\"/>\\u000a          <ttc code=\"singleh\" point1=\"sh03\" point2=\"sh04\" stem=\"X: dia Fat\"/>\\u000a          <ttc code=\"singleh\" point1=\"ah01\" point2=\"sh05\"/>\\u000a          <ttc code=\"singleh\" point1=\"sh01\" point2=\"sh06\" stem=\"X: dia Fat\"/>\\u000a          <ttc code=\"alignt\" point=\"sh03\" zone=\"t: 1\"/>\\u000a          <ttc code=\"alignt\" point=\"sh04\" zone=\"t: 1\"/>\\u000a          <ttc code=\"alignt\" point=\"sh05\" zone=\"t: 1\"/>\\u000a          <ttc code=\"alignb\" point=\"sh01\" zone=\"b: 0\"/>\\u000a          <ttc code=\"alignb\" point=\"sh02\" zone=\"b: 0\"/>\\u000a          <ttc code=\"interpolatev\" point=\"ah02\" point1=\"sh01\" point2=\"sh03\"/>\\u000a          <ttc code=\"interpolatev\" point=\"ah01\" point1=\"sh01\" point2=\"sh03\"/>\\u000a          <ttc code=\"fdeltah\" delta=\"-4\" point=\"sh01\" ppm1=\"29\" ppm2=\"29\"/>\\u000a          <ttc code=\"fdeltah\" delta=\"-4\" point=\"fh01\" ppm1=\"29\" ppm2=\"29\"/>\\u000a          <ttc code=\"fdeltah\" delta=\"-3\" point=\"fh01\" ppm1=\"26\" ppm2=\"26\"/>\\u000a          <ttc code=\"fdeltah\" delta=\"8\" point=\"fh01\" ppm1=\"12\" ppm2=\"12\"/>\\u000a          <ttc code=\"fdeltah\" delta=\"2\" point=\"ah02\" ppm1=\"10\" ppm2=\"10\"/>\\u000a          <ttc code=\"fdeltah\" delta=\"2\" point=\"ah02\" ppm1=\"16\" ppm2=\"16\"/>\\u000a          <ttc code=\"fdeltah\" delta=\"4\" point=\"ah02\" ppm1=\"12\" ppm2=\"12\"/>\\u000a          <ttc code=\"fdeltah\" delta=\"-5\" point=\"fh02\" ppm1=\"26\" ppm2=\"26\"/>\\u000a          <ttc code=\"fdeltah\" delta=\"-4\" point=\"fh02\" ppm1=\"29\" ppm2=\"29\"/>\\u000a          <ttc code=\"fdeltah\" delta=\"-2\" point=\"fh02\" ppm1=\"20\" ppm2=\"20\"/>\\u000a          <ttc code=\"fdeltah\" delta=\"-1\" point=\"fh02\" ppm1=\"13\" ppm2=\"13\"/>\\u000a          <ttc code=\"fdeltah\" delta=\"2\" point=\"fh02\" ppm1=\"12\" ppm2=\"12\"/>\\u000a          <ttc code=\"fdeltah\" delta=\"-5\" point=\"sh02\" ppm1=\"26\" ppm2=\"26\"/>\\u000a          <ttc code=\"fdeltah\" delta=\"-4\" point=\"sh02\" ppm1=\"29\" ppm2=\"29\"/>\\u000a          <ttc code=\"fdeltah\" delta=\"-2\" point=\"sh02\" ppm1=\"20\" ppm2=\"20\"/>\\u000a          <ttc code=\"fdeltah\" delta=\"4\" point=\"sh02\" ppm1=\"12\" ppm2=\"12\"/>\\u000a          <ttc code=\"fdeltah\" delta=\"4\" point=\"sh02\" ppm1=\"16\" ppm2=\"16\"/>\\u000a          <ttc code=\"fdeltah\" delta=\"2\" point=\"fh03\" ppm1=\"17\" ppm2=\"17\"/>\\u000a          <ttc code=\"fdeltah\" delta=\"3\" point=\"fh03\" ppm1=\"11\" ppm2=\"11\"/>\\u000a          <ttc code=\"fdeltah\" delta=\"3\" point=\"fh03\" ppm1=\"14\" ppm2=\"14\"/>\\u000a          <ttc code=\"fdeltah\" delta=\"3\" point=\"fh03\" ppm1=\"20\" ppm2=\"20\"/>\\u000a          <ttc code=\"fdeltah\" delta=\"4\" point=\"fh03\" ppm1=\"10\" ppm2=\"10\"/>\\u000a          <ttc code=\"fdeltah\" delta=\"4\" point=\"fh03\" ppm1=\"26\" ppm2=\"26\"/>\\u000a          <ttc code=\"fdeltah\" delta=\"4\" point=\"fh03\" ppm1=\"29\" ppm2=\"29\"/>\\u000a          <ttc code=\"fdeltah\" delta=\"-3\" point=\"fh04\" ppm1=\"26\" ppm2=\"26\"/>\\u000a          <ttc code=\"fdeltah\" delta=\"-3\" point=\"fh04\" ppm1=\"29\" ppm2=\"29\"/>\\u000a          <ttc code=\"fdeltah\" delta=\"-2\" point=\"fh04\" ppm1=\"20\" ppm2=\"20\"/>\\u000a          <ttc code=\"fdeltah\" delta=\"1\" point=\"fh04\" ppm1=\"22\" ppm2=\"22\"/>\\u000a          <ttc code=\"fdeltah\" delta=\"2\" point=\"fh04\" ppm1=\"10\" ppm2=\"10\"/>\\u000a          <ttc code=\"fdeltah\" delta=\"2\" point=\"fh04\" ppm1=\"21\" ppm2=\"21\"/>\\u000a          <ttc code=\"fdeltah\" delta=\"3\" point=\"fh04\" ppm1=\"16\" ppm2=\"16\"/>\\u000a          <ttc code=\"fdeltah\" delta=\"4\" point=\"fh04\" ppm1=\"12\" ppm2=\"12\"/>\\u000a          <ttc code=\"fdeltah\" delta=\"-5\" point=\"sh04\" ppm1=\"17\" ppm2=\"17\"/>\\u000a          <ttc code=\"fdeltah\" delta=\"-3\" point=\"sh04\" ppm1=\"25\" ppm2=\"25\"/>\\u000a          <ttc code=\"fdeltah\" delta=\"-1\" point=\"sh04\" ppm1=\"16\" ppm2=\"16\"/>\\u000a          <ttc code=\"fdeltah\" delta=\"-1\" point=\"sh04\" ppm1=\"21\" ppm2=\"21\"/>\\u000a          <ttc code=\"fdeltah\" delta=\"2\" point=\"sh04\" ppm1=\"18\" ppm2=\"18\"/>\\u000a          <ttc code=\"fdeltah\" delta=\"-2\" point=\"sh03\" ppm1=\"12\" ppm2=\"12\"/>\\u000a          <ttc code=\"fdeltah\" delta=\"2\" point=\"sh03\" ppm1=\"20\" ppm2=\"20\"/>\\u000a          <ttc code=\"fdeltah\" delta=\"-4\" point=\"fh05\" ppm1=\"12\" ppm2=\"12\"/>\\u000a          <ttc code=\"fdeltah\" delta=\"3\" point=\"fh05\" ppm1=\"29\" ppm2=\"29\"/>\\u000a          <ttc code=\"fdeltah\" delta=\"2\" point=\"fh06\" ppm1=\"14\" ppm2=\"14\"/>\\u000a          <ttc code=\"fdeltah\" delta=\"3\" point=\"fh06\" ppm1=\"20\" ppm2=\"20\"/>\\u000a          <ttc code=\"fdeltah\" delta=\"4\" point=\"fh06\" ppm1=\"11\" ppm2=\"11\"/>\\u000a          <ttc code=\"fdeltah\" delta=\"4\" point=\"fh06\" ppm1=\"29\" ppm2=\"29\"/>\\u000a          <ttc code=\"fdeltah\" delta=\"6\" point=\"fh06\" ppm1=\"26\" ppm2=\"26\"/>\\u000a          <ttc code=\"fdeltah\" delta=\"-2\" point=\"sh05\" ppm1=\"16\" ppm2=\"16\"/>\\u000a          <ttc code=\"fdeltah\" delta=\"2\" point=\"sh05\" ppm1=\"13\" ppm2=\"14\"/>\\u000a          <ttc code=\"fdeltah\" delta=\"2\" point=\"sh05\" ppm1=\"21\" ppm2=\"21\"/>\\u000a          <ttc code=\"fdeltah\" delta=\"3\" point=\"sh05\" ppm1=\"20\" ppm2=\"20\"/>\\u000a          <ttc code=\"fdeltah\" delta=\"3\" point=\"sh05\" ppm1=\"29\" ppm2=\"29\"/>\\u000a          <ttc code=\"fdeltah\" delta=\"4\" point=\"sh05\" ppm1=\"11\" ppm2=\"11\"/>\\u000a          <ttc code=\"fdeltah\" delta=\"5\" point=\"sh05\" ppm1=\"26\" ppm2=\"26\"/>\\u000a          <ttc code=\"fdeltah\" delta=\"-4\" point=\"fh07\" ppm1=\"26\" ppm2=\"26\"/>\\u000a          <ttc code=\"fdeltah\" delta=\"-3\" point=\"fh07\" ppm1=\"18\" ppm2=\"18\"/>\\u000a          <ttc code=\"fdeltah\" delta=\"2\" point=\"fh07\" ppm1=\"21\" ppm2=\"21\"/>\\u000a          <ttc code=\"fdeltah\" delta=\"3\" point=\"fh07\" ppm1=\"16\" ppm2=\"16\"/>\\u000a          <ttc code=\"fdeltah\" delta=\"-2\" point=\"fh08\" ppm1=\"15\" ppm2=\"15\"/>\\u000a          <ttc code=\"fdeltah\" delta=\"-2\" point=\"fh08\" ppm1=\"21\" ppm2=\"21\"/>\\u000a          <ttc code=\"fdeltah\" delta=\"2\" point=\"fh08\" ppm1=\"11\" ppm2=\"11\"/>\\u000a          <ttc code=\"fdeltah\" delta=\"3\" point=\"fh08\" ppm1=\"20\" ppm2=\"20\"/>\\u000a          <ttc code=\"fdeltah\" delta=\"3\" point=\"fh08\" ppm1=\"29\" ppm2=\"29\"/>\\u000a          <ttc code=\"fdeltah\" delta=\"-2\" point=\"sh06\" ppm1=\"11\" ppm2=\"11\"/>\\u000a          <ttc code=\"fdeltah\" delta=\"3\" point=\"sh06\" ppm1=\"24\" ppm2=\"24\"/>\\u000a          <ttc code=\"fdeltah\" delta=\"4\" point=\"sh06\" ppm1=\"25\" ppm2=\"25\"/>\\u000a          <ttc code=\"fdeltah\" delta=\"5\" point=\"sh06\" ppm1=\"17\" ppm2=\"17\"/>\\u000a          <ttc code=\"fdeltav\" delta=\"1\" point=\"fh01\" ppm1=\"26\" ppm2=\"26\"/>\\u000a          <ttc code=\"fdeltav\" delta=\"-2\" point=\"fh04\" ppm1=\"22\" ppm2=\"22\"/>\\u000a        </ttProgram>\\u000a      </data>
p15
g4
tp16
Rp17
Ntp18
s."
EndChar
StartChar: Z
Encoding: 87 90 87
GlifName: Z_
Width: 1300
VWidth: 0
Flags: W
LayerCount: 2
Fore
SplineSet
1101 160 m 257
NamedP: "sv01"
 1121 0 l 257
NamedP: "ab01"
 181 0 l 257
 161 50 l 257
 726 1200 l 257
 910 1380 l 257
NamedP: "iv01"
 645 1340 l 257
NamedP: "sv02"
 250 1340 l 257
NamedP: "iv02"
 230 1500 l 257
NamedP: "at01"
 1056 1500 l 257
 1071 1478 l 257
 500 300 l 257
 322 120 l 257
NamedP: "iv03"
 587 160 l 257
 1101 160 l 257
NamedP: "sv01"
EndSplineSet
PickledDataWithLists: "(dp0
Vcom.adobe.type.autohint
p1
(c_codecs
encode
p2
(Vdata
p3
Vlatin1
p4
tp5
Rp6
g2
(V<data>\\u000a        <hintSetList>\\u000a          <hintset pointTag=\"sv01\">\\u000a            <hstem pos=\"0\" width=\"160\"/>\\u000a            <hstem pos=\"1340\" width=\"160\"/>\\u000a          </hintset>\\u000a        </hintSetList>\\u000a      </data>
p7
g4
tp8
Rp9
Ntp10
sVcom.fontlab.ttprogram
p11
(g2
(Vdata
p12
g4
tp13
Rp14
g2
(V<data>\\u000a        <ttProgram>\\u000a          <ttc code=\"alignt\" point=\"at01\" zone=\"t: 1\"/>\\u000a          <ttc code=\"alignb\" point=\"ab01\" zone=\"b: 0\"/>\\u000a          <ttc code=\"singlev\" point1=\"ab01\" point2=\"sv01\" stem=\"Y: 162\"/>\\u000a          <ttc code=\"interpolatev\" point=\"iv01\" point1=\"at01\" point2=\"iv02\"/>\\u000a          <ttc code=\"singlev\" point1=\"at01\" point2=\"sv02\" stem=\"Y: 162\"/>\\u000a          <ttc code=\"interpolatev\" point=\"iv03\" point1=\"ab01\" point2=\"sv01\"/>\\u000a        </ttProgram>\\u000a      </data>
p15
g4
tp16
Rp17
Ntp18
s."
EndChar
StartChar: bracketleft
Encoding: 158 91 158
GlifName: bracketleft
Width: 1300
VWidth: 0
Flags: W
LayerCount: 2
Fore
SplineSet
422 1320 m 257,0,-1
NamedP: "dh01"
 400 1520 l 257,1,-1
NamedP: "at01"
 972 1520 l 257,2,-1
 972 1370 l 257,3,-1
NamedP: "sv01"
 600 1370 l 257,4,-1
 620 1170 l 257,5,-1
NamedP: "dh02"
 620 -70 l 257,6,-1
 600 -270 l 257,7,-1
 972 -270 l 257,8,-1
NamedP: "dv02"
 972 -420 l 257,9,-1
NamedP: "dv01"
 400 -420 l 257,10,-1
 422 -220 l 257,11,-1
 422 1320 l 257,0,-1
NamedP: "dh01"
EndSplineSet
PickledDataWithLists: "(dp0
Vcom.adobe.type.autohint
p1
(c_codecs
encode
p2
(Vdata
p3
Vlatin1
p4
tp5
Rp6
g2
(V<data>\\u000a        <hintSetList>\\u000a          <hintset pointTag=\"dh01\">\\u000a            <hstem pos=\"-420\" width=\"150\"/>\\u000a            <hstem pos=\"1370\" width=\"150\"/>\\u000a            <vstem pos=\"122\" width=\"198\"/>\\u000a          </hintset>\\u000a        </hintSetList>\\u000a      </data>
p7
g4
tp8
Rp9
Ntp10
sVcom.fontlab.ttprogram
p11
(g2
(Vdata
p12
g4
tp13
Rp14
g2
(V<data>\\u000a        <ttProgram>\\u000a          <ttc code=\"doubleh\" point1=\"dh01\" point2=\"dh02\" stem=\"X: 208\"/>\\u000a          <ttc code=\"alignt\" point=\"at01\" zone=\"t: 1\"/>\\u000a          <ttc code=\"doublev\" point1=\"dv01\" point2=\"dv02\" stem=\"Y: 153\"/>\\u000a          <ttc code=\"singlev\" point1=\"at01\" point2=\"sv01\" stem=\"Y: 153\"/>\\u000a        </ttProgram>\\u000a      </data>
p15
g4
tp16
Rp17
Ntp18
s."
EndChar
StartChar: backslash
Encoding: 132 92 132
GlifName: backslash
Width: 1300
VWidth: 0
Flags: W
LayerCount: 2
Fore
SplineSet
175 1600 m 257
 375 1600 l 257
 1085 -100 l 257
 875 -100 l 257
 175 1600 l 257
EndSplineSet
EndChar
StartChar: bracketright
Encoding: 159 93 159
GlifName: bracketright
Width: 1300
VWidth: 0
Flags: W
LayerCount: 2
Fore
SplineSet
978 -220 m 257
NamedP: "dh02"
 1000 -420 l 257
NamedP: "dv01"
 428 -420 l 257
 428 -270 l 257
 800 -270 l 257
NamedP: "dv02"
 780 -70 l 257
NamedP: "dh01"
 780 1170 l 257
 800 1370 l 257
NamedP: "sv01"
 428 1370 l 257
 428 1520 l 257
NamedP: "at01"
 1000 1520 l 257
 978 1320 l 257
 978 -220 l 257
NamedP: "dh02"
EndSplineSet
PickledDataWithLists: "(dp0
Vcom.adobe.type.autohint
p1
(c_codecs
encode
p2
(Vdata
p3
Vlatin1
p4
tp5
Rp6
g2
(V<data>\\u000a        <hintSetList>\\u000a          <hintset pointTag=\"dh02\">\\u000a            <hstem pos=\"-420\" width=\"150\"/>\\u000a            <hstem pos=\"1370\" width=\"150\"/>\\u000a            <vstem pos=\"480\" width=\"198\"/>\\u000a          </hintset>\\u000a        </hintSetList>\\u000a      </data>
p7
g4
tp8
Rp9
Ntp10
sVcom.fontlab.ttprogram
p11
(g2
(Vdata
p12
g4
tp13
Rp14
g2
(V<data>\\u000a        <ttProgram>\\u000a          <ttc code=\"doubleh\" point1=\"dh01\" point2=\"dh02\" stem=\"X: 208\"/>\\u000a          <ttc code=\"alignt\" point=\"at01\" zone=\"t: 1\"/>\\u000a          <ttc code=\"doublev\" point1=\"dv01\" point2=\"dv02\" stem=\"Y: 153\"/>\\u000a          <ttc code=\"singlev\" point1=\"at01\" point2=\"sv01\" stem=\"Y: 153\"/>\\u000a        </ttProgram>\\u000a      </data>
p15
g4
tp16
Rp17
Ntp18
s."
EndChar
StartChar: underscore
Encoding: 545 95 545
GlifName: underscore
Width: 1300
VWidth: 0
Flags: W
LayerCount: 2
Fore
SplineSet
100 -300 m 257
 1200 -300 l 257
 1200 -455 l 257
NamedP: "av02"
 100 -455 l 257
NamedP: "av01"
 100 -300 l 257
EndSplineSet
PickledDataWithLists: "(dp0
Vcom.fontlab.ttprogram
p1
(c_codecs
encode
p2
(Vdata
p3
Vlatin1
p4
tp5
Rp6
g2
(V<data>\\u000a        <ttProgram>\\u000a          <ttc align=\"round\" code=\"alignv\" point=\"av01\"/>\\u000a          <ttc align=\"round\" code=\"alignv\" point=\"av02\"/>\\u000a        </ttProgram>\\u000a      </data>
p7
g4
tp8
Rp9
Ntp10
s."
EndChar
StartChar: grave
Encoding: 268 96 268
GlifName: grave
Width: 1300
VWidth: 0
Flags: W
LayerCount: 2
Fore
SplineSet
860 1200 m 257
NamedP: "av01"
 710 1200 l 257
 485 1500 l 257
NamedP: "iv01"
 689 1520 l 257
NamedP: "at01"
 860 1200 l 257
NamedP: "av01"
EndSplineSet
PickledDataWithLists: "(dp0
Vcom.adobe.type.autohint
p1
(c_codecs
encode
p2
(Vdata
p3
Vlatin1
p4
tp5
Rp6
g2
(V<data>\\u000a        <hintSetList>\\u000a          <hintset pointTag=\"av01\">\\u000a            <hstem pos=\"1221\" width=\"-21\"/>\\u000a            <hstem pos=\"1520\" width=\"-20\"/>\\u000a          </hintset>\\u000a        </hintSetList>\\u000a      </data>
p7
g4
tp8
Rp9
Ntp10
sVcom.fontlab.ttprogram
p11
(g2
(Vdata
p12
g4
tp13
Rp14
g2
(V<data>\\u000a        <ttProgram>\\u000a          <ttc align=\"round\" code=\"alignv\" point=\"av01\"/>\\u000a          <ttc code=\"alignt\" point=\"at01\" zone=\"t: 1\"/>\\u000a          <ttc code=\"interpolatev\" point=\"iv01\" point1=\"av01\" point2=\"at01\"/>\\u000a        </ttProgram>\\u000a      </data>
p15
g4
tp16
Rp17
Ntp18
s."
EndChar
StartChar: a
Encoding: 89 97 89
GlifName: a
Width: 1300
VWidth: 0
Flags: W
LayerCount: 2
Fore
SplineSet
1110 0 m 257
NamedP: "ab02"
 910 0 l 257
 910 162 l 257
NamedP: "ah01"
 816 50 l 257
NamedP: "ah02"
 799 37 799 37 772.5 25 c 128
 746 13 746 13 716 3.5 c 128
 686 -6 686 -6 655 -11.5 c 128
 624 -17 624 -17 596 -17 c 257
NamedP: "ab01"
 521 -17 521 -17 445 6.5 c 128
 369 30 369 30 308 75.5 c 128
 247 121 247 121 208.5 188.5 c 128
 170 256 170 256 170 344 c 257
NamedP: "sh01"
 170 437 170 437 209.5 504.5 c 128
 249 572 249 572 313 616 c 128
 377 660 377 660 459 681 c 128
 541 702 541 702 625 702 c 257
NamedP: "dv02"
 720 702 720 702 790 691.5 c 128
 860 681 860 681 910 662 c 257
NamedP: "sh02"
 910 705 l 257
 910 764 910 764 895.5 811 c 128
 881 858 881 858 850 890.5 c 128
 819 923 819 923 770.5 940 c 128
 722 957 722 957 655 957 c 257
NamedP: "sv01"
 592 957 592 957 546.5 949.5 c 128
 501 942 501 942 462 933 c 257
 439 928 439 928 418 922 c 128
 397 916 397 916 377 910 c 257
NamedP: "ih01"
 305 1044 l 257
 347 1063 347 1063 405 1080 c 257
NamedP: "sh04"
 453 1094 453 1094 514.5 1105.5 c 128
 576 1117 576 1117 665 1117 c 257
NamedP: "at01"
 780 1117 780 1117 861 1086 c 128
 942 1055 942 1055 993 999 c 128
 1044 943 1044 943 1067 864.5 c 128
 1090 786 1090 786 1090 690 c 257
 1090 180 l 257
NamedP: "sh05"
 1110 0 l 257
NamedP: "ab02"
910 525 m 257
NamedP: "sh06"
 850 533 l 257
 836 534 836 534 813 536 c 128
 790 538 790 538 763.5 539 c 128
 737 540 737 540 710.5 541 c 128
 684 542 684 542 665 542 c 257
NamedP: "dv01"
 609 542 609 542 555 532 c 128
 501 522 501 522 458.5 499 c 128
 416 476 416 476 389.5 438.5 c 128
 363 401 363 401 363 345 c 257
NamedP: "sh03"
 363 300 363 300 383 263 c 128
 403 226 403 226 436.5 199 c 128
 470 172 470 172 513.5 157.5 c 128
 557 143 557 143 604 143 c 257
NamedP: "sv02"
 697 143 697 143 771 178.5 c 128
 845 214 845 214 910 274 c 257
 910 525 l 257
NamedP: "sh06"
EndSplineSet
PickledDataWithLists: "(dp0
Vcom.adobe.type.autohint
p1
(c_codecs
encode
p2
(Vdata
p3
Vlatin1
p4
tp5
Rp6
g2
(V<data>\\u000a        <hintSetList>\\u000a          <hintset pointTag=\"ab02\">\\u000a            <hstem pos=\"-17\" width=\"160\"/>\\u000a            <hstem pos=\"550\" width=\"160\"/>\\u000a            <hstem pos=\"957\" width=\"160\"/>\\u000a            <vstem pos=\"70\" width=\"190\"/>\\u000a            <vstem pos=\"710\" width=\"190\"/>\\u000a          </hintset>\\u000a        </hintSetList>\\u000a      </data>
p7
g4
tp8
Rp9
Ntp10
sVcom.fontlab.ttprogram
p11
(g2
(Vdata
p12
g4
tp13
Rp14
g2
(V<data>\\u000a        <ttProgram>\\u000a          <ttc align=\"round\" code=\"alignh\" point=\"lsb\"/>\\u000a          <ttc align=\"round\" code=\"alignh\" point=\"ah01\"/>\\u000a          <ttc align=\"round\" code=\"alignh\" point=\"ah02\"/>\\u000a          <ttc code=\"singleh\" point1=\"lsb\" point2=\"sh01\"/>\\u000a          <ttc code=\"singleh\" point1=\"ah01\" point2=\"sh02\"/>\\u000a          <ttc code=\"interpolateh\" point=\"ih01\" point1=\"sh01\" point2=\"sh02\"/>\\u000a          <ttc code=\"singleh\" point1=\"sh01\" point2=\"sh03\" stem=\"X: 190\"/>\\u000a          <ttc code=\"singleh\" point1=\"sh03\" point2=\"sh04\"/>\\u000a          <ttc code=\"singleh\" point1=\"ah01\" point2=\"sh05\" stem=\"X: 190\"/>\\u000a          <ttc code=\"singleh\" point1=\"ah01\" point2=\"sh06\"/>\\u000a          <ttc code=\"singleh\" point1=\"sh05\" point2=\"rsb\" round=\"true\"/>\\u000a          <ttc code=\"alignt\" point=\"at01\" zone=\"t: x\"/>\\u000a          <ttc code=\"alignb\" point=\"ab01\" zone=\"b: 0\"/>\\u000a          <ttc code=\"alignb\" point=\"ab02\" zone=\"b: 0\"/>\\u000a          <ttc code=\"doublev\" point1=\"dv01\" point2=\"dv02\" stem=\"Y: 162\"/>\\u000a          <ttc code=\"interpolatev\" point=\"sh02\" point1=\"dv02\" point2=\"dv01\"/>\\u000a          <ttc code=\"singlev\" point1=\"at01\" point2=\"sv01\" stem=\"Y: 162\"/>\\u000a          <ttc code=\"singlev\" point1=\"ab01\" point2=\"sv02\" stem=\"Y: 162\"/>\\u000a        </ttProgram>\\u000a      </data>
p15
g4
tp16
Rp17
Ntp18
s."
EndChar
StartChar: b
Encoding: 130 98 130
GlifName: b
Width: 1300
VWidth: 0
Flags: W
LayerCount: 2
Fore
SplineSet
390 171 m 257,0,1
NamedP: "sh03"
 409 165 409 165 434 160 c 128,-1,2
 459 155 459 155 487.5 151 c 128,-1,3
 516 147 516 147 545.5 145 c 128,-1,4
 575 143 575 143 604 143 c 257,5,6
NamedP: "sv01"
 665 143 665 143 714.5 163 c 128,-1,7
 764 183 764 183 803 216.5 c 128,-1,8
 842 250 842 250 871 295.5 c 128,-1,9
 900 341 900 341 918.5 391.5 c 128,-1,10
 937 442 937 442 946 496 c 128,-1,11
 955 550 955 550 955 601 c 257,12,13
NamedP: "ah01"
 955 701 955 701 929 769 c 128,-1,14
 903 837 903 837 862 879 c 128,-1,15
 821 921 821 921 771.5 939 c 128,-1,16
 722 957 722 957 675 957 c 257,17,18
NamedP: "sv02"
 596 957 596 957 524.5 926.5 c 128,-1,19
 453 896 453 896 390 845 c 257,20,-1
 390 171 l 257,0,1
NamedP: "sh03"
210 1420 m 257,21,-1
NamedP: "sh01"
 190 1600 l 257,22,-1
 390 1620 l 257,23,-1
NamedP: "sh02"
 390 974 l 257,24,-1
NamedP: "iv01"
 475 1065 l 257,25,26
 526 1089 526 1089 581.5 1103 c 128,-1,27
 637 1117 637 1117 694 1117 c 257,28,29
NamedP: "av01"
 776 1117 776 1117 858 1083 c 128,-1,30
 940 1049 940 1049 1004.5 982.5 c 128,-1,31
 1069 916 1069 916 1109.5 819 c 128,-1,32
 1150 722 1150 722 1150 596 c 257,33,34
NamedP: "sh04"
 1150 458 1150 458 1104.5 345 c 128,-1,35
 1059 232 1059 232 982.5 151.5 c 128,-1,36
 906 71 906 71 805.5 27 c 128,-1,37
 705 -17 705 -17 595 -17 c 257,38,39
NamedP: "ab01"
 532 -17 532 -17 472.5 -12.5 c 128,-1,40
 413 -8 413 -8 362 -0.5 c 128,-1,41
 311 7 311 7 271.5 16.5 c 128,-1,42
 232 26 232 26 210 35 c 257,43,-1
 210 1420 l 257,21,-1
NamedP: "sh01"
EndSplineSet
PickledDataWithLists: "(dp0
Vcom.adobe.type.autohint
p1
(c_codecs
encode
p2
(Vdata
p3
Vlatin1
p4
tp5
Rp6
g2
(V<data>\\u000a        <hintSetList>\\u000a          <hintset pointTag=\"sh03\">\\u000a            <hstem pos=\"-17\" width=\"160\"/>\\u000a            <hstem pos=\"957\" width=\"160\"/>\\u000a            <hstem pos=\"1620\" width=\"-20\"/>\\u000a            <vstem pos=\"101\" width=\"190\"/>\\u000a            <vstem pos=\"811\" width=\"190\"/>\\u000a          </hintset>\\u000a        </hintSetList>\\u000a      </data>
p7
g4
tp8
Rp9
Ntp10
sVcom.fontlab.ttprogram
p11
(g2
(Vdata
p12
g4
tp13
Rp14
g2
(V<data>\\u000a        <ttProgram>\\u000a          <ttc align=\"round\" code=\"alignh\" point=\"lsb\"/>\\u000a          <ttc align=\"round\" code=\"alignh\" point=\"ah01\"/>\\u000a          <ttc align=\"round\" code=\"singleh\" point1=\"lsb\" point2=\"sh01\"/>\\u000a          <ttc code=\"singleh\" point1=\"sh01\" point2=\"sh02\" stem=\"X: 190\"/>\\u000a          <ttc code=\"singleh\" point1=\"sh02\" point2=\"sh03\"/>\\u000a          <ttc code=\"singleh\" point1=\"ah01\" point2=\"sh04\" stem=\"X: 190\"/>\\u000a          <ttc code=\"singleh\" point1=\"sh04\" point2=\"rsb\" round=\"true\"/>\\u000a          <ttc align=\"round\" code=\"alignv\" point=\"sh02\"/>\\u000a          <ttc align=\"round\" code=\"alignv\" point=\"av01\"/>\\u000a          <ttc code=\"alignb\" point=\"ab01\" zone=\"b: 0\"/>\\u000a          <ttc code=\"singlev\" point1=\"ab01\" point2=\"sv01\" stem=\"Y: 162\"/>\\u000a          <ttc code=\"singlev\" point1=\"av01\" point2=\"sv02\" stem=\"Y: 162\"/>\\u000a          <ttc code=\"interpolatev\" point=\"iv01\" point1=\"sv02\" point2=\"av01\"/>\\u000a        </ttProgram>\\u000a      </data>
p15
g4
tp16
Rp17
Ntp18
s."
EndChar
StartChar: c
Encoding: 164 99 164
GlifName: c
Width: 1300
VWidth: 0
Flags: W
LayerCount: 2
Fore
SplineSet
1007 878 m 257
NamedP: "hr00"
 968 913 968 913 899 935 c 128
 830 957 830 957 724 957 c 257
NamedP: "sv01"
 640 957 640 957 573.5 925.5 c 128
 507 894 507 894 460.5 840 c 128
 414 786 414 786 389.5 714.5 c 128
 365 643 365 643 365 564 c 257
NamedP: "sh02"
 365 482 365 482 388.5 407.5 c 128
 412 333 412 333 458.5 276 c 128
 505 219 505 219 574 185.5 c 128
 643 152 643 152 735 152 c 257
NamedP: "sv02"
 787 152 787 152 835 164 c 128
 883 176 883 176 922 192.5 c 128
 961 209 961 209 988.5 225.5 c 128
 1016 242 1016 242 1028 252 c 257
 1100 111 l 257
 1085 98 1085 98 1055 76.5 c 128
 1025 55 1025 55 978.5 34 c 128
 932 13 932 13 868.5 -2 c 128
 805 -17 805 -17 721 -17 c 257
NamedP: "ab01"
 596 -17 596 -17 494.5 32.5 c 128
 393 82 393 82 321 164.5 c 128
 249 247 249 247 209.5 354 c 128
 170 461 170 461 170 577 c 257
NamedP: "sh01"
 170 681 170 681 208.5 778.5 c 128
 247 876 247 876 319 951 c 128
 391 1026 391 1026 494 1071.5 c 128
 597 1117 597 1117 726 1117 c 257
NamedP: "at01"
 848 1117 848 1117 945.5 1088.5 c 128
 1043 1060 1043 1060 1106 991 c 257
 1007 878 l 257
NamedP: "hr00"
EndSplineSet
PickledDataWithLists: "(dp0
Vcom.adobe.type.autohint
p1
(c_codecs
encode
p2
(Vdata
p3
Vlatin1
p4
tp5
Rp6
g2
(V<data>\\u000a        <hintSetList>\\u000a          <hintset pointTag=\"hr00\">\\u000a            <hstem pos=\"-17\" width=\"169\"/>\\u000a            <hstem pos=\"957\" width=\"160\"/>\\u000a            <vstem pos=\"95\" width=\"195\"/>\\u000a          </hintset>\\u000a        </hintSetList>\\u000a      </data>
p7
g4
tp8
Rp9
Ntp10
sVcom.fontlab.ttprogram
p11
(g2
(Vdata
p12
g4
tp13
Rp14
g2
(V<data>\\u000a        <ttProgram>\\u000a          <ttc align=\"round\" code=\"alignh\" point=\"lsb\"/>\\u000a          <ttc code=\"singleh\" point1=\"lsb\" point2=\"sh01\" round=\"true\"/>\\u000a          <ttc code=\"singleh\" point1=\"sh01\" point2=\"sh02\" stem=\"X: 199\"/>\\u000a          <ttc code=\"alignt\" point=\"at01\" zone=\"t: x\"/>\\u000a          <ttc code=\"alignb\" point=\"ab01\" zone=\"b: 0\"/>\\u000a          <ttc code=\"singlev\" point1=\"at01\" point2=\"sv01\" stem=\"Y: 162\"/>\\u000a          <ttc code=\"singlev\" point1=\"ab01\" point2=\"sv02\" stem=\"Y: 171\"/>\\u000a        </ttProgram>\\u000a      </data>
p15
g4
tp16
Rp17
Ntp18
s."
EndChar
StartChar: d
Encoding: 202 100 202
GlifName: d
Width: 1300
VWidth: 0
Flags: W
LayerCount: 2
Fore
SplineSet
746 940 m 257
NamedP: "sv01"
 654 940 654 940 579 905.5 c 128
 504 871 504 871 450.5 812 c 128
 397 753 397 753 368 673 c 128
 339 593 339 593 339 502 c 257
NamedP: "sh02"
 339 413 339 413 364.5 346 c 128
 390 279 390 279 431.5 234 c 128
 473 189 473 189 525 166.5 c 128
 577 144 577 144 630 144 c 257
NamedP: "sv02"
 677 144 677 144 719 160 c 128
 761 176 761 176 797 200 c 128
 833 224 833 224 862 252.5 c 128
 891 281 891 281 911 306 c 257
NamedP: "sh03"
 911 940 l 257
 746 940 l 257
NamedP: "sv01"
911 0 m 257
NamedP: "ab02"
 911 162 l 257
NamedP: "ah01"
 825 49 l 257
 789 25 789 25 729 4 c 128
 669 -17 669 -17 591 -17 c 257
NamedP: "ab01"
 501 -17 501 -17 421 15.5 c 128
 341 48 341 48 281 114.5 c 128
 221 181 221 181 186 283.5 c 128
 151 386 151 386 151 526 c 257
NamedP: "sh01"
 151 646 151 646 197.5 750.5 c 128
 244 855 244 855 324 933 c 128
 404 1011 404 1011 512.5 1055.5 c 128
 621 1100 621 1100 745 1100 c 257
NamedP: "av02"
 911 1100 l 257
NamedP: "sh04"
 911 1620 l 257
NamedP: "av01"
 1091 1600 l 257
 1091 180 l 257
NamedP: "sh05"
 1111 0 l 257
 911 0 l 257
NamedP: "ab02"
EndSplineSet
PickledDataWithLists: "(dp0
Vcom.adobe.type.autohint
p1
(c_codecs
encode
p2
(Vdata
p3
Vlatin1
p4
tp5
Rp6
g2
(V<data>\\u000a        <hintSetList>\\u000a          <hintset pointTag=\"sv01\">\\u000a            <hstem pos=\"-17\" width=\"161\"/>\\u000a            <hstem pos=\"940\" width=\"160\"/>\\u000a            <hstem pos=\"1620\" width=\"-20\"/>\\u000a            <vstem pos=\"12\" width=\"189\"/>\\u000a            <vstem pos=\"711\" width=\"190\"/>\\u000a          </hintset>\\u000a        </hintSetList>\\u000a      </data>
p7
g4
tp8
Rp9
Ntp10
sVcom.fontlab.ttprogram
p11
(g2
(Vdata
p12
g4
tp13
Rp14
g2
(V<data>\\u000a        <ttProgram>\\u000a          <ttc align=\"round\" code=\"alignh\" point=\"lsb\"/>\\u000a          <ttc align=\"round\" code=\"alignh\" point=\"ah01\"/>\\u000a          <ttc align=\"round\" code=\"singleh\" point1=\"lsb\" point2=\"sh01\"/>\\u000a          <ttc code=\"singleh\" point1=\"sh01\" point2=\"sh02\" stem=\"X: 190\"/>\\u000a          <ttc code=\"singleh\" point1=\"ah01\" point2=\"sh03\"/>\\u000a          <ttc code=\"singleh\" point1=\"ah01\" point2=\"sh04\"/>\\u000a          <ttc code=\"singleh\" point1=\"ah01\" point2=\"sh05\" stem=\"X: 190\"/>\\u000a          <ttc code=\"singleh\" point1=\"sh05\" point2=\"rsb\" round=\"true\"/>\\u000a          <ttc align=\"round\" code=\"alignv\" point=\"av01\"/>\\u000a          <ttc align=\"round\" code=\"alignv\" point=\"av02\"/>\\u000a          <ttc code=\"alignb\" point=\"ab01\" zone=\"b: 0\"/>\\u000a          <ttc code=\"alignb\" point=\"ab02\" zone=\"b: 0\"/>\\u000a          <ttc code=\"singlev\" point1=\"av02\" point2=\"sv01\" stem=\"Y: 162\"/>\\u000a          <ttc code=\"singlev\" point1=\"ab01\" point2=\"sv02\" stem=\"Y: 162\"/>\\u000a        </ttProgram>\\u000a      </data>
p15
g4
tp16
Rp17
Ntp18
s."
EndChar
StartChar: e
Encoding: 220 101 220
GlifName: e
Width: 1300
VWidth: 0
Flags: W
LayerCount: 2
Fore
SplineSet
1034 129 m 257
NamedP: "hr00"
 1003 97 1003 97 966 70 c 128
 929 43 929 43 884 23.5 c 128
 839 4 839 4 784.5 -6.5 c 128
 730 -17 730 -17 663 -17 c 257
NamedP: "ih01"
 530 -17 530 -17 433 30 c 128
 336 77 336 77 273 156 c 128
 210 235 210 235 180 337 c 128
 150 439 150 439 150 550 c 257
NamedP: "sh01"
 150 621 150 621 164.5 690.5 c 128
 179 760 179 760 206.5 823 c 128
 234 886 234 886 275.5 940 c 128
 317 994 317 994 371.5 1033 c 128
 426 1072 426 1072 492.5 1094.5 c 128
 559 1117 559 1117 638 1117 c 257
NamedP: "ih02"
 746 1117 746 1117 833 1082 c 128
 920 1047 920 1047 981 984 c 128
 1042 921 1042 921 1075 832.5 c 128
 1108 744 1108 744 1108 638 c 257
NamedP: "dh02"
 1108 607 1108 607 1106 570 c 128
 1104 533 1104 533 1100 500 c 257
NamedP: "ih04"
 340 500 l 257
NamedP: "sh02"
 340 423 340 423 364 357.5 c 128
 388 292 388 292 429.5 244.5 c 128
 471 197 471 197 527.5 170 c 128
 584 143 584 143 650 143 c 257
NamedP: "ih03"
 714 143 714 143 759.5 152.5 c 128
 805 162 805 162 836.5 176 c 128
 868 190 868 190 889 206 c 128
 910 222 910 222 925 236 c 257
 1034 129 l 257
NamedP: "hr00"
932 650 m 257
NamedP: "dh01"
 932 694 l 257
 932 751 932 751 909.5 799 c 128
 887 847 887 847 848.5 882.5 c 128
 810 918 810 918 759.5 938 c 128
 709 958 709 958 653 958 c 257
NamedP: "sv01"
 586 958 586 958 535.5 936.5 c 128
 485 915 485 915 449 881.5 c 128
 413 848 413 848 391 808 c 128
 369 768 369 768 359 732 c 257
 300 618 l 257
NamedP: "ih05"
 485 650 l 257
 932 650 l 257
NamedP: "dh01"
EndSplineSet
PickledDataWithLists: "(dp0
Vcom.adobe.type.autohint
p1
(c_codecs
encode
p2
(Vdata
p3
Vlatin1
p4
tp5
Rp6
g2
(V<data>\\u000a        <hintSetList>\\u000a          <hintset pointTag=\"hr00\">\\u000a            <hstem pos=\"-17\" width=\"160\"/>\\u000a            <hstem pos=\"500\" width=\"150\"/>\\u000a            <hstem pos=\"958\" width=\"159\"/>\\u000a            <vstem pos=\"100\" width=\"190\"/>\\u000a            <vstem pos=\"802\" width=\"188\"/>\\u000a          </hintset>\\u000a        </hintSetList>\\u000a      </data>
p7
g4
tp8
Rp9
Ntp10
sVcom.fontlab.ttprogram
p11
(g2
(Vdata
p12
g4
tp13
Rp14
g2
(V<data>\\u000a        <ttProgram>\\u000a          <ttc align=\"round\" code=\"alignh\" point=\"lsb\"/>\\u000a          <ttc code=\"doubleh\" point1=\"dh01\" point2=\"dh02\" stem=\"X: 190\"/>\\u000a          <ttc code=\"singleh\" point1=\"lsb\" point2=\"sh01\" round=\"true\"/>\\u000a          <ttc code=\"interpolateh\" point=\"ih01\" point1=\"sh01\" point2=\"dh02\"/>\\u000a          <ttc code=\"interpolateh\" point=\"ih02\" point1=\"sh01\" point2=\"dh02\"/>\\u000a          <ttc code=\"singleh\" point1=\"sh01\" point2=\"sh02\" stem=\"X: 190\"/>\\u000a          <ttc code=\"interpolateh\" point=\"ih03\" point1=\"sh02\" point2=\"ih04\"/>\\u000a          <ttc code=\"interpolateh\" point=\"ih05\" point1=\"sh01\" point2=\"sh02\"/>\\u000a          <ttc code=\"singleh\" point1=\"dh02\" point2=\"rsb\" round=\"true\"/>\\u000a          <ttc code=\"alignt\" point=\"ih02\" zone=\"t: x\"/>\\u000a          <ttc code=\"alignb\" point=\"ih01\" zone=\"b: 0\"/>\\u000a          <ttc code=\"doublev\" point1=\"dh01\" point2=\"ih04\" stem=\"Y: 153\"/>\\u000a          <ttc code=\"singlev\" point1=\"ih01\" point2=\"ih03\" stem=\"Y: 162\"/>\\u000a          <ttc code=\"singlev\" point1=\"ih02\" point2=\"sv01\" stem=\"Y: 162\"/>\\u000a          <ttc code=\"interpolatev\" point=\"ih05\" point1=\"ih04\" point2=\"dh01\"/>\\u000a        </ttProgram>\\u000a      </data>
p15
g4
tp16
Rp17
Ntp18
s."
EndChar
StartChar: f
Encoding: 245 102 245
GlifName: f
Width: 1300
VWidth: 0
Flags: W
LayerCount: 2
Fore
SplineSet
148 1100 m 257
NamedP: "dv01"
 400 1100 l 257
NamedP: "dh01"
 400 1255 l 257
NamedP: "sh01"
 400 1340 400 1340 434 1407 c 128
 468 1474 468 1474 526 1520.5 c 128
 584 1567 584 1567 662 1592 c 128
 740 1617 740 1617 828 1617 c 257
NamedP: "av01"
 873 1617 873 1617 919 1609 c 128
 965 1601 965 1601 1007.5 1588.5 c 128
 1050 1576 1050 1576 1086 1560 c 128
 1122 1544 1122 1544 1145 1529 c 257
 1060 1411 l 257
 1048 1418 1048 1418 1023.5 1426 c 128
 999 1434 999 1434 970.5 1441 c 128
 942 1448 942 1448 912 1452.5 c 128
 882 1457 882 1457 860 1457 c 257
NamedP: "sv01"
 817 1457 817 1457 768.5 1445.5 c 128
 720 1434 720 1434 679.5 1408.5 c 128
 639 1383 639 1383 612 1342.5 c 128
 585 1302 585 1302 585 1245 c 257
NamedP: "sh02"
 585 1100 l 257
NamedP: "dh02"
 1033 1100 l 257
NamedP: "dv03"
 1013 940 l 257
NamedP: "dv04"
 590 940 l 257
NamedP: "dh04"
 590 0 l 257
NamedP: "ab01"
 400 0 l 257
 400 940 l 257
NamedP: "dh03"
 148 940 l 257
NamedP: "dv02"
 148 1100 l 257
NamedP: "dv01"
EndSplineSet
PickledDataWithLists: "(dp0
Vcom.adobe.type.autohint
p1
(c_codecs
encode
p2
(Vdata
p3
Vlatin1
p4
tp5
Rp6
g2
(V<data>\\u000a        <hintSetList>\\u000a          <hintset pointTag=\"dv01\">\\u000a            <hstem pos=\"21\" width=\"-21\"/>\\u000a            <hstem pos=\"940\" width=\"160\"/>\\u000a            <hstem pos=\"1457\" width=\"160\"/>\\u000a            <vstem pos=\"200\" width=\"190\"/>\\u000a          </hintset>\\u000a        </hintSetList>\\u000a      </data>
p7
g4
tp8
Rp9
Ntp10
sVcom.fontlab.ttprogram
p11
(g2
(Vdata
p12
g4
tp13
Rp14
g2
(V<data>\\u000a        <ttProgram>\\u000a          <ttc code=\"doubleh\" point1=\"dh01\" point2=\"dh02\" stem=\"X: 190\"/>\\u000a          <ttc code=\"doubleh\" point1=\"dh03\" point2=\"dh04\" stem=\"X: 190\"/>\\u000a          <ttc code=\"singleh\" point1=\"dh03\" point2=\"sh01\"/>\\u000a          <ttc code=\"singleh\" point1=\"dh04\" point2=\"sh02\"/>\\u000a          <ttc align=\"round\" code=\"alignv\" point=\"av01\"/>\\u000a          <ttc code=\"alignb\" point=\"ab01\" zone=\"b: 0\"/>\\u000a          <ttc code=\"doublev\" point1=\"dv01\" point2=\"dv02\" stem=\"Y: 162\"/>\\u000a          <ttc code=\"doublev\" point1=\"dv03\" point2=\"dv04\" stem=\"Y: 162\"/>\\u000a          <ttc code=\"singlev\" point1=\"av01\" point2=\"sv01\" stem=\"Y: 162\"/>\\u000a        </ttProgram>\\u000a      </data>
p15
g4
tp16
Rp17
Ntp18
sVcom.typemytype.robofont.guides
p19
(lp20
(dp21
Vangle
p22
I0
sVisGlobal
p23
I00
sVmagnetic
p24
I5
sVx
p25
I0
sVy
p26
I3258
sas."
EndChar
StartChar: g
Encoding: 264 103 264
GlifName: g
Width: 1300
VWidth: 0
Flags: W
LayerCount: 2
Fore
SplineSet
910 135 m 257
NamedP: "iv01"
 823 25 l 257
 814 19 814 19 797.5 12 c 128
 781 5 781 5 757 -1.5 c 128
 733 -8 733 -8 701 -12.5 c 128
 669 -17 669 -17 630 -17 c 257
NamedP: "ab01"
 569 -17 569 -17 510 3 c 128
 451 23 451 23 397.5 60 c 128
 344 97 344 97 299 148.5 c 128
 254 200 254 200 220.5 262.5 c 128
 187 325 187 325 168.5 396.5 c 128
 150 468 150 468 150 545 c 257
NamedP: "sh01"
 150 662 150 662 188 766 c 128
 226 870 226 870 295 948 c 128
 364 1026 364 1026 461 1071.5 c 128
 558 1117 558 1117 676 1117 c 257
NamedP: "av01"
 713 1117 713 1117 748.5 1114 c 128
 784 1111 784 1111 815 1100 c 257
 910 958 l 257
NamedP: "sh02"
 910 1120 l 257
NamedP: "av02"
 1090 1100 l 257
 1090 -46 l 257
NamedP: "sh03"
 1090 -144 1090 -144 1058 -230 c 128
 1026 -316 1026 -316 965 -379.5 c 128
 904 -443 904 -443 815 -480 c 128
 726 -517 726 -517 612 -517 c 257
NamedP: "ab02"
 533 -517 533 -517 473.5 -497 c 128
 414 -477 414 -477 372 -453 c 257
 348 -439 348 -439 327 -423 c 128
 306 -407 306 -407 289 -388 c 257
 387 -278 l 257
NamedP: "sh05"
 401 -289 401 -289 417.5 -299 c 128
 434 -309 434 -309 452 -318 c 257
 483 -333 483 -333 524 -345 c 128
 565 -357 565 -357 613 -357 c 257
NamedP: "sv03"
 675 -357 675 -357 729 -331.5 c 128
 783 -306 783 -306 823.5 -262 c 128
 864 -218 864 -218 887 -158.5 c 128
 910 -99 910 -99 910 -31 c 257
NamedP: "ah01"
 910 135 l 257
NamedP: "iv01"
910 834 m 257
NamedP: "sh06"
 884 867 884 867 847 895 c 257
 816 918 816 918 772 937.5 c 128
 728 957 728 957 671 957 c 257
NamedP: "sv02"
 611 957 611 957 563 938 c 128
 515 919 515 919 478.5 887 c 128
 442 855 442 855 415.5 812.5 c 128
 389 770 389 770 372.5 722.5 c 128
 356 675 356 675 348 626.5 c 128
 340 578 340 578 340 533 c 257
NamedP: "sh04"
 340 448 340 448 366.5 376.5 c 128
 393 305 393 305 436 253.5 c 128
 479 202 479 202 534 173 c 128
 589 144 589 144 646 144 c 257
NamedP: "sv01"
 697 144 697 144 737 155 c 128
 777 166 777 166 809 184.5 c 128
 841 203 841 203 865.5 226.5 c 128
 890 250 890 250 910 275 c 257
 910 834 l 257
NamedP: "sh06"
EndSplineSet
PickledDataWithLists: "(dp0
Vcom.adobe.type.autohint
p1
(c_codecs
encode
p2
(Vdata
p3
Vlatin1
p4
tp5
Rp6
g2
(V<data>\\u000a        <hintSetList>\\u000a          <hintset pointTag=\"iv01\">\\u000a            <hstem pos=\"-517\" width=\"160\"/>\\u000a            <hstem pos=\"-17\" width=\"161\"/>\\u000a            <hstem pos=\"957\" width=\"160\"/>\\u000a            <vstem pos=\"100\" width=\"190\"/>\\u000a            <vstem pos=\"810\" width=\"190\"/>\\u000a          </hintset>\\u000a        </hintSetList>\\u000a      </data>
p7
g4
tp8
Rp9
Ntp10
sVcom.fontlab.ttprogram
p11
(g2
(Vdata
p12
g4
tp13
Rp14
g2
(V<data>\\u000a        <ttProgram>\\u000a          <ttc align=\"round\" code=\"alignh\" point=\"lsb\"/>\\u000a          <ttc align=\"round\" code=\"alignh\" point=\"ah01\"/>\\u000a          <ttc align=\"round\" code=\"singleh\" point1=\"lsb\" point2=\"sh01\"/>\\u000a          <ttc code=\"singleh\" point1=\"ah01\" point2=\"sh02\"/>\\u000a          <ttc code=\"singleh\" point1=\"ah01\" point2=\"sh03\" stem=\"X: 190\"/>\\u000a          <ttc code=\"singleh\" point1=\"sh01\" point2=\"sh04\" stem=\"X: 190\"/>\\u000a          <ttc align=\"round\" code=\"singleh\" point1=\"sh04\" point2=\"sh05\"/>\\u000a          <ttc code=\"mdeltah\" delta=\"-4\" point=\"sh05\" ppm1=\"26\" ppm2=\"26\"/>\\u000a          <ttc code=\"singleh\" point1=\"ah01\" point2=\"sh06\"/>\\u000a          <ttc code=\"singleh\" point1=\"sh03\" point2=\"rsb\" round=\"true\"/>\\u000a          <ttc align=\"round\" code=\"alignv\" point=\"av01\"/>\\u000a          <ttc align=\"round\" code=\"alignv\" point=\"av02\"/>\\u000a          <ttc code=\"alignb\" point=\"ab01\" zone=\"b: 0\"/>\\u000a          <ttc code=\"alignb\" point=\"ab02\" zone=\"b: -500\"/>\\u000a          <ttc code=\"singlev\" point1=\"ab01\" point2=\"sv01\" stem=\"Y: 162\"/>\\u000a          <ttc code=\"interpolatev\" point=\"iv01\" point1=\"ab01\" point2=\"sv01\"/>\\u000a          <ttc code=\"singlev\" point1=\"av01\" point2=\"sv02\" stem=\"Y: 162\"/>\\u000a          <ttc code=\"interpolatev\" point=\"sh02\" point1=\"av01\" point2=\"sv02\"/>\\u000a          <ttc code=\"mdeltav\" delta=\"-4\" point=\"av02\" ppm1=\"42\" ppm2=\"42\"/>\\u000a          <ttc code=\"mdeltav\" delta=\"5\" point=\"sh05\" ppm1=\"23\" ppm2=\"23\"/>\\u000a          <ttc code=\"mdeltav\" delta=\"6\" point=\"sh05\" ppm1=\"25\" ppm2=\"25\"/>\\u000a          <ttc code=\"mdeltav\" delta=\"5\" point=\"sh05\" ppm1=\"26\" ppm2=\"26\"/>\\u000a          <ttc code=\"mdeltav\" delta=\"4\" point=\"sh05\" ppm1=\"24\" ppm2=\"24\"/>\\u000a          <ttc code=\"singlev\" point1=\"ab02\" point2=\"sv03\" stem=\"Y: 162\"/>\\u000a          <ttc code=\"fdeltav\" delta=\"-3\" point=\"av02\" ppm1=\"42\" ppm2=\"42\"/>\\u000a        </ttProgram>\\u000a      </data>
p15
g4
tp16
Rp17
Ntp18
s."
EndChar
StartChar: h
Encoding: 275 104 275
GlifName: h
Width: 1300
VWidth: 0
Flags: W
LayerCount: 2
Fore
SplineSet
391 0 m 257
NamedP: "sh02"
 211 0 l 257
NamedP: "sh01"
 211 1400 l 257
 191 1600 l 257
 391 1620 l 257
NamedP: "sh03"
 391 950 l 257
NamedP: "iv01"
 480 1065 l 257
 519 1087 519 1087 592 1102 c 128
 665 1117 665 1117 780 1117 c 257
NamedP: "av01"
 931 1117 931 1117 1010.5 1017.5 c 128
 1090 918 1090 918 1090 730 c 257
 1090 0 l 257
NamedP: "sh04"
 900 0 l 257
NamedP: "ah01"
 900 709 l 257
 900 776 900 776 888.5 823 c 128
 877 870 877 870 856 900 c 128
 835 930 835 930 804 943.5 c 128
 773 957 773 957 734 957 c 257
NamedP: "ih01"
 674 957 674 957 619.5 945 c 128
 565 933 565 933 520 914.5 c 128
 475 896 475 896 441.5 874 c 128
 408 852 408 852 391 833 c 257
 391 0 l 257
NamedP: "sh02"
EndSplineSet
PickledDataWithLists: "(dp0
Vcom.adobe.type.autohint
p1
(c_codecs
encode
p2
(Vdata
p3
Vlatin1
p4
tp5
Rp6
g2
(V<data>\\u000a        <hintSetList>\\u000a          <hintset pointTag=\"sh02\">\\u000a            <hstem pos=\"21\" width=\"-21\"/>\\u000a            <hstem pos=\"957\" width=\"160\"/>\\u000a            <hstem pos=\"1620\" width=\"-20\"/>\\u000a            <vstem pos=\"201\" width=\"190\"/>\\u000a            <vstem pos=\"811\" width=\"190\"/>\\u000a          </hintset>\\u000a        </hintSetList>\\u000a      </data>
p7
g4
tp8
Rp9
Ntp10
sVcom.fontlab.ttprogram
p11
(g2
(Vdata
p12
g4
tp13
Rp14
g2
(V<data>\\u000a        <ttProgram>\\u000a          <ttc align=\"round\" code=\"alignh\" point=\"lsb\"/>\\u000a          <ttc align=\"right\" code=\"alignh\" point=\"ah01\"/>\\u000a          <ttc align=\"round\" code=\"singleh\" point1=\"lsb\" point2=\"sh01\"/>\\u000a          <ttc code=\"singleh\" point1=\"sh01\" point2=\"sh02\" stem=\"X: 190\"/>\\u000a          <ttc code=\"singleh\" point1=\"sh02\" point2=\"sh03\"/>\\u000a          <ttc code=\"singleh\" point1=\"ah01\" point2=\"sh04\" stem=\"X: 190\"/>\\u000a          <ttc code=\"interpolateh\" point=\"ih01\" point1=\"sh02\" point2=\"ah01\"/>\\u000a          <ttc code=\"singleh\" point1=\"sh04\" point2=\"rsb\" round=\"true\"/>\\u000a          <ttc align=\"round\" code=\"alignv\" point=\"sh03\"/>\\u000a          <ttc align=\"round\" code=\"alignv\" point=\"av01\"/>\\u000a          <ttc code=\"alignb\" point=\"sh02\" zone=\"b: 0\"/>\\u000a          <ttc code=\"alignb\" point=\"sh04\" zone=\"b: 0\"/>\\u000a          <ttc code=\"interpolatev\" point=\"iv01\" point1=\"sh02\" point2=\"sh03\"/>\\u000a          <ttc code=\"singlev\" point1=\"av01\" point2=\"ih01\" stem=\"Y: 162\"/>\\u000a        </ttProgram>\\u000a      </data>
p15
g4
tp16
Rp17
Ntp18
s."
EndChar
StartChar: i
Encoding: 285 105 285
GlifName: i
Width: 1300
VWidth: 0
Flags: W
LayerCount: 2
Fore
SplineSet
515 1500 m 257
NamedP: "sh01"
 717 1500 l 257
NamedP: "sh02"
 717 1300 l 257
NamedP: "sv01"
 515 1300 l 257
 515 1500 l 257
NamedP: "sh01"
711 393 m 257
NamedP: "dh02"
 711 341 711 341 717.5 297 c 128
 724 253 724 253 739 221 c 128
 754 189 754 189 779 171 c 128
 804 153 804 153 841 153 c 257
NamedP: "av01"
 890 153 890 153 936.5 161 c 128
 983 169 983 169 1020 179.5 c 128
 1057 190 1057 190 1081.5 199 c 128
 1106 208 1106 208 1112 210 c 257
NamedP: "av02"
 1151 56 l 257
 1145 53 1145 53 1119 41 c 128
 1093 29 1093 29 1051 16.5 c 128
 1009 4 1009 4 953 -6.5 c 128
 897 -17 897 -17 831 -17 c 257
NamedP: "ab01"
 733 -17 733 -17 672.5 15 c 128
 612 47 612 47 578 103.5 c 128
 544 160 544 160 532.5 237 c 128
 521 314 521 314 521 403 c 257
NamedP: "dh01"
 521 920 l 257
 561 980 l 257
NamedP: "ah02"
 421 940 l 257
 220 940 l 257
 200 1100 l 257
NamedP: "ah01"
 711 1100 l 257
 711 501 l 257
 711 393 l 257
NamedP: "dh02"
EndSplineSet
PickledDataWithLists: "(dp0
Vcom.adobe.type.autohint
p1
(c_codecs
encode
p2
(Vdata
p3
Vlatin1
p4
tp5
Rp6
g2
(V<data>\\u000a        <hintSetList>\\u000a          <hintset pointTag=\"sh01\">\\u000a            <hstem pos=\"21\" width=\"-21\"/>\\u000a            <hstem pos=\"1300\" width=\"200\"/>\\u000a            <vstem pos=\"201\" width=\"190\"/>\\u000a          </hintset>\\u000a        </hintSetList>\\u000a      </data>
p7
g4
tp8
Rp9
Ntp10
sVcom.fontlab.ttprogram
p11
(g2
(Vdata
p12
g4
tp13
Rp14
g2
(V<data>\\u000a        <ttProgram>\\u000a          <ttc align=\"round\" code=\"alignh\" point=\"ah01\"/>\\u000a          <ttc align=\"round\" code=\"alignh\" point=\"ah02\"/>\\u000a          <ttc align=\"round\" code=\"alignh\" point=\"ah03\"/>\\u000a          <ttc code=\"doubleh\" point1=\"dh01\" point2=\"dh02\" stem=\"X: 190\"/>\\u000a          <ttc code=\"singleh\" point1=\"dh01\" point2=\"sh01\"/>\\u000a          <ttc code=\"singleh\" point1=\"dh02\" point2=\"sh02\"/>\\u000a          <ttc align=\"round\" code=\"alignv\" point=\"ah02\"/>\\u000a          <ttc align=\"round\" code=\"alignv\" point=\"av01\"/>\\u000a          <ttc align=\"round\" code=\"alignv\" point=\"av02\"/>\\u000a          <ttc code=\"alignt\" point=\"sh01\" zone=\"t: 1\"/>\\u000a          <ttc code=\"alignb\" point=\"ab01\" zone=\"b: 0\"/>\\u000a          <ttc code=\"singlev\" point1=\"sh01\" point2=\"sv01\" round=\"true\"/>\\u000a          <ttc code=\"singlev\" point1=\"av02\" point2=\"ah03\" stem=\"Y: 162\"/>\\u000a        </ttProgram>\\u000a      </data>
p15
g4
tp16
Rp17
Ntp18
s."
EndChar
StartChar: l
Encoding: 301 108 301
GlifName: l
Width: 1300
VWidth: 0
Flags: W
LayerCount: 2
Fore
SplineSet
510 1420 m 257,0,-1
NamedP: "sh01"
 550 1480 l 257,1,-1
NamedP: "ah01"
 410 1440 l 257,2,-1
 209 1440 l 257,3,-1
 189 1600 l 257,4,-1
NamedP: "ah02"
 690 1600 l 257,5,-1
NamedP: "sh02"
 690 376 l 257,6,7
NamedP: "dh02"
 690 310 690 310 700 265.5 c 128,-1,8
 710 221 710 221 727 193.5 c 128,-1,9
 744 166 744 166 768 154.5 c 128,-1,10
 792 143 792 143 820 143 c 257,11,12
NamedP: "av01"
 860 143 860 143 893.5 149 c 128,-1,13
 927 155 927 155 953.5 164 c 128,-1,14
 980 173 980 173 999.5 183 c 128,-1,15
NamedP: "av02"
 1019 193 1019 193 1031 200 c 257,16,-1
 1100 79 l 257,17,18
NamedP: "ah03"
 1092 72 1092 72 1067 56 c 128,-1,19
 1042 40 1042 40 1003.5 24 c 128,-1,20
 965 8 965 8 913.5 -4.5 c 128,-1,21
 862 -17 862 -17 800 -17 c 257,22,23
NamedP: "ab01"
 710 -17 710 -17 653 16 c 128,-1,24
 596 49 596 49 564.5 106 c 128,-1,25
 533 163 533 163 521.5 238.5 c 128,-1,26
 510 314 510 314 510 400 c 257,27,-1
NamedP: "dh01"
 510 1419 l 257,28,-1
 510 1420 l 257,0,-1
NamedP: "sh01"
EndSplineSet
PickledDataWithLists: "(dp0
Vcom.adobe.type.autohint
p1
(c_codecs
encode
p2
(Vdata
p3
Vlatin1
p4
tp5
Rp6
g2
(V<data>\\u000a        <hintSetList>\\u000a          <hintset pointTag=\"sh01\">\\u000a            <hstem pos=\"-17\" width=\"160\"/>\\u000a            <hstem pos=\"1440\" width=\"160\"/>\\u000a            <vstem pos=\"510\" width=\"180\"/>\\u000a          </hintset>\\u000a        </hintSetList>\\u000a      </data>
p7
g4
tp8
Rp9
Ntp10
sVcom.fontlab.ttprogram
p11
(g2
(Vdata
p12
g4
tp13
Rp14
g2
(V<data>\\u000a        <ttProgram>\\u000a          <ttc align=\"round\" code=\"alignh\" point=\"ah01\"/>\\u000a          <ttc align=\"round\" code=\"alignh\" point=\"ah02\"/>\\u000a          <ttc align=\"round\" code=\"alignh\" point=\"ah03\"/>\\u000a          <ttc code=\"doubleh\" point1=\"dh01\" point2=\"dh02\" stem=\"X: 190\"/>\\u000a          <ttc code=\"singleh\" point1=\"dh01\" point2=\"sh01\"/>\\u000a          <ttc code=\"singleh\" point1=\"dh02\" point2=\"sh02\"/>\\u000a          <ttc align=\"round\" code=\"alignv\" point=\"ah02\"/>\\u000a          <ttc align=\"round\" code=\"alignv\" point=\"sh02\"/>\\u000a          <ttc align=\"round\" code=\"alignv\" point=\"av01\"/>\\u000a          <ttc align=\"round\" code=\"alignv\" point=\"av02\"/>\\u000a          <ttc code=\"alignb\" point=\"ab01\" zone=\"b: 0\"/>\\u000a          <ttc code=\"singlev\" point1=\"av02\" point2=\"ah03\" stem=\"Y: 162\"/>\\u000a        </ttProgram>\\u000a      </data>
p15
g4
tp16
Rp17
Ntp18
s."
EndChar
StartChar: m
Encoding: 317 109 317
GlifName: m
Width: 1300
VWidth: 0
Flags: W
LayerCount: 2
Fore
SplineSet
264 0 m 257
NamedP: "dh02"
 86 0 l 257
NamedP: "dh01"
 86 1100 l 257
 264 1120 l 257
NamedP: "sh01"
 264 937 l 257
NamedP: "iv01"
 285 977 285 977 296.5 999.5 c 128
 308 1022 308 1022 313.5 1032.5 c 128
 319 1043 319 1043 320.5 1045.5 c 130
 322 1048 l 257
 331 1057 331 1057 347.5 1069 c 128
 364 1081 364 1081 388 1091.5 c 128
 412 1102 412 1102 443 1109.5 c 128
 474 1117 474 1117 513 1117 c 257
NamedP: "at02"
 569 1117 569 1117 605 1102.5 c 128
 641 1088 641 1088 664 1062.5 c 128
 687 1037 687 1037 700 1001 c 128
 713 965 713 965 724 923 c 257
NamedP: "ih01"
 787 1043 l 257
 797 1052 797 1052 819.5 1065 c 128
 842 1078 842 1078 871.5 1089.5 c 128
 901 1101 901 1101 934 1109 c 128
 967 1117 967 1117 999 1117 c 257
NamedP: "at01"
 1075 1117 1075 1117 1119.5 1091.5 c 128
 1164 1066 1164 1066 1186.5 1018 c 128
 1209 970 1209 970 1215.5 902 c 128
 1222 834 1222 834 1222 750 c 257
 1222 0 l 257
NamedP: "sh05"
 1044 0 l 257
NamedP: "sh04"
 1044 740 l 257
 1044 794 1044 794 1042.5 834.5 c 128
 1041 875 1041 875 1030.5 902.5 c 128
 1020 930 1020 930 997.5 943.5 c 128
 975 957 975 957 934 957 c 257
NamedP: "sv01"
 914 957 914 957 885 944.5 c 128
 856 932 856 932 827.5 912.5 c 128
 799 893 799 893 774.5 868.5 c 128
 750 844 750 844 740 819 c 257
NamedP: "sh06"
 740 813 740 813 740.5 799.5 c 128
 741 786 741 786 741.5 771.5 c 128
 742 757 742 757 742 744.5 c 128
 742 732 742 732 742 727 c 257
 742 0 l 257
NamedP: "sh03"
 563 0 l 257
NamedP: "sh02"
 563 720 l 257
 563 774 563 774 561 818 c 128
 559 862 559 862 548.5 892.5 c 128
 538 923 538 923 514.5 940 c 128
 491 957 491 957 448 957 c 257
NamedP: "sv02"
 432 957 432 957 407 948 c 128
 382 939 382 939 355.5 921.5 c 128
 329 904 329 904 304.5 879.5 c 128
 280 855 280 855 264 824 c 257
 264 0 l 257
NamedP: "dh02"
EndSplineSet
PickledDataWithLists: "(dp0
Vcom.adobe.type.autohint
p1
(c_codecs
encode
p2
(Vdata
p3
Vlatin1
p4
tp5
Rp6
g2
(V<data>\\u000a        <hintSetList>\\u000a          <hintset pointTag=\"dh02\">\\u000a            <hstem pos=\"21\" width=\"-21\"/>\\u000a            <hstem pos=\"957\" width=\"160\"/>\\u000a            <vstem pos=\"200\" width=\"190\"/>\\u000a            <vstem pos=\"810\" width=\"190\"/>\\u000a            <vstem pos=\"1400\" width=\"190\"/>\\u000a          </hintset>\\u000a        </hintSetList>\\u000a      </data>
p7
g4
tp8
Rp9
Ntp10
sVcom.fontlab.ttprogram
p11
(g2
(Vdata
p12
g4
tp13
Rp14
g2
(V<data>\\u000a        <ttProgram>\\u000a          <ttc code=\"doubleh\" point1=\"dh01\" point2=\"dh02\" stem=\"X: 199\"/>\\u000a          <ttc code=\"singleh\" point1=\"dh02\" point2=\"sh01\"/>\\u000a          <ttc code=\"singleh\" point1=\"dh02\" point2=\"sh02\" round=\"true\"/>\\u000a          <ttc code=\"singleh\" point1=\"sh02\" point2=\"sh03\" stem=\"X: 199\"/>\\u000a          <ttc code=\"interpolateh\" point=\"ih01\" point1=\"sh02\" point2=\"sh03\"/>\\u000a          <ttc code=\"singleh\" point1=\"sh03\" point2=\"sh04\" round=\"true\"/>\\u000a          <ttc code=\"singleh\" point1=\"sh04\" point2=\"sh05\" stem=\"X: 199\"/>\\u000a          <ttc code=\"singleh\" point1=\"sh03\" point2=\"sh06\"/>\\u000a          <ttc code=\"singleh\" point1=\"sh05\" point2=\"rsb\" round=\"true\"/>\\u000a          <ttc code=\"alignt\" point=\"at01\" zone=\"t: x\"/>\\u000a          <ttc code=\"alignt\" point=\"at02\" zone=\"t: x\"/>\\u000a          <ttc code=\"alignt\" point=\"sh01\" zone=\"t: x\"/>\\u000a          <ttc code=\"alignb\" point=\"dh02\" zone=\"b: 0\"/>\\u000a          <ttc code=\"alignb\" point=\"sh03\" zone=\"b: 0\"/>\\u000a          <ttc code=\"alignb\" point=\"sh05\" zone=\"b: 0\"/>\\u000a          <ttc code=\"interpolatev\" point=\"iv01\" point1=\"sh01\" point2=\"dh02\"/>\\u000a          <ttc code=\"interpolatev\" point=\"ih01\" point1=\"sh01\" point2=\"dh02\"/>\\u000a          <ttc code=\"singlev\" point1=\"at01\" point2=\"sv01\" stem=\"Y: 162\"/>\\u000a          <ttc code=\"singlev\" point1=\"at02\" point2=\"sv02\" stem=\"Y: 162\"/>\\u000a        </ttProgram>\\u000a      </data>
p15
g4
tp16
Rp17
Ntp18
s."
EndChar
StartChar: q
Encoding: 392 113 392
GlifName: q
Width: 1300
VWidth: 0
Flags: W
LayerCount: 2
Fore
SplineSet
911 935 m 257,0,1
NamedP: "ah01"
 892 939 892 939 866.5 943 c 128,-1,2
 841 947 841 947 812.5 950 c 128,-1,3
 784 953 784 953 754 955 c 128,-1,4
 724 957 724 957 697 957 c 257,5,6
NamedP: "sv01"
 605 957 605 957 539 918 c 128,-1,7
 473 879 473 879 430 817 c 128,-1,8
 387 755 387 755 366.5 677.5 c 128,-1,9
 346 600 346 600 346 524 c 257,10,11
NamedP: "sh02"
 346 424 346 424 372.5 352 c 128,-1,12
 399 280 399 280 440 233.5 c 128,-1,13
 481 187 481 187 530.5 165 c 128,-1,14
 580 143 580 143 626 143 c 257,15,16
NamedP: "sv02"
 665 143 665 143 703 153.5 c 128,-1,17
 741 164 741 164 777 181.5 c 128,-1,18
 813 199 813 199 846.5 222 c 128,-1,19
 880 245 880 245 911 270 c 257,20,-1
 911 935 l 257,0,1
NamedP: "ah01"
911 136 m 257,21,-1
NamedP: "sh03"
 806 29 l 257,22,23
 755 5 755 5 705 -6 c 128,-1,24
 655 -17 655 -17 607 -17 c 257,25,26
NamedP: "ab01"
 552 -17 552 -17 497 -0.5 c 128,-1,27
 442 16 442 16 391 48.5 c 128,-1,28
 340 81 340 81 296.5 127.5 c 128,-1,29
 253 174 253 174 220.5 234.5 c 128,-1,30
 188 295 188 295 169.5 367.5 c 128,-1,31
 151 440 151 440 151 524 c 257,32,33
NamedP: "sh01"
 151 662 151 662 195.5 772 c 128,-1,34
 240 882 240 882 316 958.5 c 128,-1,35
 392 1035 392 1035 491.5 1076 c 128,-1,36
 591 1117 591 1117 701 1117 c 257,37,38
NamedP: "av02"
 764 1117 764 1117 825.5 1111.5 c 128,-1,39
 887 1106 887 1106 939 1098 c 128,-1,40
 991 1090 991 1090 1031 1081 c 128,-1,41
 1071 1072 1071 1072 1091 1065 c 257,42,-1
NamedP: "sh04"
 1091 -500 l 257,43,-1
NamedP: "av01"
 911 -500 l 257,44,-1
 911 136 l 257,21,-1
NamedP: "sh03"
EndSplineSet
PickledDataWithLists: "(dp0
Vcom.adobe.type.autohint
p1
(c_codecs
encode
p2
(Vdata
p3
Vlatin1
p4
tp5
Rp6
g2
(V<data>\\u000a        <hintSetList>\\u000a          <hintset pointTag=\"ah01\">\\u000a            <hstem pos=\"-479\" width=\"-21\"/>\\u000a            <hstem pos=\"-17\" width=\"160\"/>\\u000a            <hstem pos=\"957\" width=\"160\"/>\\u000a            <vstem pos=\"201\" width=\"195\"/>\\u000a            <vstem pos=\"911\" width=\"190\"/>\\u000a          </hintset>\\u000a        </hintSetList>\\u000a      </data>
p7
g4
tp8
Rp9
Ntp10
sVcom.fontlab.ttprogram
p11
(g2
(Vdata
p12
g4
tp13
Rp14
g2
(V<data>\\u000a        <ttProgram>\\u000a          <ttc align=\"round\" code=\"alignh\" point=\"lsb\"/>\\u000a          <ttc align=\"round\" code=\"alignh\" point=\"ah01\"/>\\u000a          <ttc code=\"mdeltah\" delta=\"8\" point=\"ah01\" ppm1=\"10\" ppm2=\"11\"/>\\u000a          <ttc align=\"round\" code=\"singleh\" point1=\"lsb\" point2=\"sh01\"/>\\u000a          <ttc code=\"mdeltah\" delta=\"8\" point=\"sh01\" ppm1=\"25\" ppm2=\"27\"/>\\u000a          <ttc code=\"mdeltah\" delta=\"8\" point=\"sh01\" ppm1=\"29\" ppm2=\"29\"/>\\u000a          <ttc code=\"singleh\" point1=\"sh01\" point2=\"sh02\" stem=\"X: 190\"/>\\u000a          <ttc code=\"singleh\" point1=\"ah01\" point2=\"sh03\"/>\\u000a          <ttc code=\"singleh\" point1=\"ah01\" point2=\"sh04\" stem=\"X: 190\"/>\\u000a          <ttc align=\"round\" code=\"alignv\" point=\"av01\"/>\\u000a          <ttc align=\"round\" code=\"alignv\" point=\"av02\"/>\\u000a          <ttc code=\"alignb\" point=\"ab01\" zone=\"b: 0\"/>\\u000a          <ttc code=\"singlev\" point1=\"av02\" point2=\"sv01\" stem=\"Y: 162\"/>\\u000a          <ttc code=\"singlev\" point1=\"ab01\" point2=\"sv02\" stem=\"Y: 162\"/>\\u000a          <ttc code=\"interpolatev\" point=\"sh03\" point1=\"ab01\" point2=\"sv02\"/>\\u000a        </ttProgram>\\u000a      </data>
p15
g4
tp16
Rp17
Ntp18
s."
EndChar
StartChar: r
Encoding: 404 114 404
GlifName: r
Width: 1300
VWidth: 0
Flags: W
LayerCount: 2
Fore
SplineSet
391 895 m 257
NamedP: "iv01"
 482 1053 l 257
 510 1074 510 1074 546 1087 c 128
 582 1100 582 1100 620 1106.5 c 128
 658 1113 658 1113 696.5 1115 c 128
 735 1117 735 1117 770 1117 c 257
NamedP: "at01"
 845 1117 845 1117 898 1110.5 c 128
 951 1104 951 1104 987.5 1094 c 128
 1024 1084 1024 1084 1046 1073.5 c 128
 1068 1063 1068 1063 1080 1055 c 257
 1130 770 l 257
NamedP: "dh04"
 980 750 l 257
NamedP: "dh03"
 930 928 l 257
NamedP: "ih01"
 922 931 922 931 905 934 c 128
 888 937 888 937 866 940 c 128
 844 943 844 943 819.5 945 c 128
 795 947 795 947 773 947 c 257
NamedP: "sv01"
 705 947 705 947 647 931.5 c 128
 589 916 589 916 541 889 c 128
 493 862 493 862 455.5 826 c 128
 418 790 418 790 391 750 c 257
 391 0 l 257
NamedP: "dh02"
 211 0 l 257
NamedP: "dh01"
 211 1100 l 257
 391 1120 l 257
NamedP: "sh01"
 391 895 l 257
NamedP: "iv01"
EndSplineSet
PickledDataWithLists: "(dp0
Vcom.adobe.type.autohint
p1
(c_codecs
encode
p2
(Vdata
p3
Vlatin1
p4
tp5
Rp6
g2
(V<data>\\u000a        <hintSetList>\\u000a          <hintset pointTag=\"iv01\">\\u000a            <hstem pos=\"21\" width=\"-21\"/>\\u000a            <hstem pos=\"948\" width=\"169\"/>\\u000a            <vstem pos=\"201\" width=\"190\"/>\\u000a          </hintset>\\u000a        </hintSetList>\\u000a      </data>
p7
g4
tp8
Rp9
Ntp10
sVcom.fontlab.ttprogram
p11
(g2
(Vdata
p12
g4
tp13
Rp14
g2
(V<data>\\u000a        <ttProgram>\\u000a          <ttc code=\"doubleh\" point1=\"dh01\" point2=\"dh02\" stem=\"X: 190\"/>\\u000a          <ttc code=\"doubleh\" point1=\"dh03\" point2=\"dh04\" stem=\"X: 190\"/>\\u000a          <ttc code=\"interpolateh\" point=\"ih01\" point1=\"dh02\" point2=\"dh04\"/>\\u000a          <ttc code=\"singleh\" point1=\"dh02\" point2=\"sh01\"/>\\u000a          <ttc code=\"alignt\" point=\"sh01\" zone=\"t: x\"/>\\u000a          <ttc code=\"alignt\" point=\"at01\" zone=\"t: x\"/>\\u000a          <ttc code=\"alignb\" point=\"dh02\" zone=\"b: 0\"/>\\u000a          <ttc code=\"interpolatev\" point=\"iv01\" point1=\"sh01\" point2=\"dh02\"/>\\u000a          <ttc code=\"singlev\" point1=\"at01\" point2=\"sv01\" stem=\"Y: 162\"/>\\u000a        </ttProgram>\\u000a      </data>
p15
g4
tp16
Rp17
Ntp18
s."
EndChar
StartChar: s
Encoding: 433 115 433
GlifName: s
Width: 1300
VWidth: 0
Flags: W
LayerCount: 2
Fore
SplineSet
962 899 m 257,0,1
NamedP: "ah02"
 943 908 943 908 916.5 919.5 c 128,-1,2
 890 931 890 931 857 940.5 c 128,-1,3
 824 950 824 950 784.5 956.5 c 128,-1,4
 745 963 745 963 700 963 c 257,5,6
NamedP: "sv01"
 639 963 639 963 581 957 c 128,-1,7
 523 951 523 951 478 935 c 128,-1,8
 433 919 433 919 405.5 892 c 128,-1,9
 378 865 378 865 378 822 c 257,10,11
NamedP: "sh02"
 378 786 378 786 405 760.5 c 128,-1,12
 432 735 432 735 475.5 716.5 c 128,-1,13
NamedP: "av02"
 519 698 519 698 574 684.5 c 128,-1,14
NamedP: "ih01"
 629 671 629 671 685 659 c 128,-1,15
NamedP: "iv01"
 741 647 741 647 793 635.5 c 128,-1,16
 845 624 845 624 883 610 c 257,17,18
NamedP: "sv03"
 927 593 927 593 965.5 567 c 128,-1,19
 1004 541 1004 541 1033 506.5 c 128,-1,20
 1062 472 1062 472 1078.5 430.5 c 128,-1,21
 1095 389 1095 389 1095 341 c 257,22,23
NamedP: "sh03"
 1095 276 1095 276 1070 224.5 c 128,-1,24
 1045 173 1045 173 1002.5 133.5 c 128,-1,25
 960 94 960 94 904 65.5 c 128,-1,26
 848 37 848 37 785.5 18.5 c 128,-1,27
 723 0 723 0 658.5 -8.5 c 128,-1,28
NamedP: "ih02"
 594 -17 594 -17 535 -17 c 257,29,30
NamedP: "ab01"
 501 -17 501 -17 450.5 -10.5 c 128,-1,31
 400 -4 400 -4 347.5 7.5 c 128,-1,32
 295 19 295 19 248 35 c 128,-1,33
 201 51 201 51 175 69 c 257,34,-1
 241 211 l 257,35,36
NamedP: "sh04"
 265 199 265 199 304 187 c 128,-1,37
 343 175 343 175 386 165 c 128,-1,38
 429 155 429 155 469.5 149 c 128,-1,39
 510 143 510 143 537 143 c 257,40,41
NamedP: "sv02"
 568 143 568 143 606.5 146.5 c 128,-1,42
 645 150 645 150 685.5 158.5 c 128,-1,43
 726 167 726 167 764.5 181.5 c 128,-1,44
 803 196 803 196 833 218 c 128,-1,45
 863 240 863 240 881.5 270 c 128,-1,46
 900 300 900 300 900 340 c 257,47,48
NamedP: "ah01"
 900 379 900 379 874 406 c 128,-1,49
 848 433 848 433 805 452 c 128,-1,50
NamedP: "av01"
 762 471 762 471 708.5 484.5 c 128,-1,51
NamedP: "ih03"
 655 498 655 498 599 510 c 128,-1,52
NamedP: "iv02"
 543 522 543 522 491 534.5 c 128,-1,53
 439 547 439 547 400 566 c 257,54,55
NamedP: "sv04"
 343 593 343 593 305.5 624.5 c 128,-1,56
 268 656 268 656 245.5 691 c 128,-1,57
 223 726 223 726 214 764 c 128,-1,58
 205 802 205 802 205 842 c 257,59,60
NamedP: "sh01"
 205 913 205 913 245.5 965 c 128,-1,61
 286 1017 286 1017 354 1050.5 c 128,-1,62
 422 1084 422 1084 510 1100.5 c 128,-1,63
NamedP: "ih04"
 598 1117 598 1117 694 1117 c 257,64,65
NamedP: "at01"
 746 1117 746 1117 795.5 1111 c 128,-1,66
 845 1105 845 1105 888.5 1095 c 128,-1,67
 932 1085 932 1085 966 1072.5 c 128,-1,68
 1000 1060 1000 1060 1020 1047 c 257,69,-1
 962 899 l 257,0,1
NamedP: "ah02"
EndSplineSet
PickledDataWithLists: "(dp0
Vcom.adobe.type.autohint
p1
(c_codecs
encode
p2
(Vdata
p3
Vlatin1
p4
tp5
Rp6
g2
(V<data>\\u000a        <hintSetList>\\u000a          <hintset pointTag=\"ah02\">\\u000a            <hstem pos=\"-17\" width=\"160\"/>\\u000a            <hstem pos=\"968\" width=\"149\"/>\\u000a            <vstem pos=\"91\" width=\"175\"/>\\u000a            <vstem pos=\"622\" width=\"184\"/>\\u000a          </hintset>\\u000a        </hintSetList>\\u000a      </data>
p7
g4
tp8
Rp9
Ntp10
sVcom.fontlab.ttprogram
p11
(g2
(Vdata
p12
g4
tp13
Rp14
g2
(V<data>\\u000a        <ttProgram>\\u000a          <ttc align=\"round\" code=\"alignh\" point=\"lsb\"/>\\u000a          <ttc align=\"round\" code=\"alignh\" point=\"ah01\"/>\\u000a          <ttc align=\"round\" code=\"alignh\" point=\"ah02\"/>\\u000a          <ttc code=\"singleh\" point1=\"lsb\" point2=\"sh01\"/>\\u000a          <ttc code=\"singleh\" point1=\"sh01\" point2=\"sh02\" stem=\"X: 190\"/>\\u000a          <ttc code=\"singleh\" point1=\"ah01\" point2=\"sh03\" stem=\"X: 190\"/>\\u000a          <ttc code=\"interpolateh\" point=\"ih01\" point1=\"sh03\" point2=\"sh01\"/>\\u000a          <ttc code=\"singleh\" point1=\"sh01\" point2=\"sh04\"/>\\u000a          <ttc code=\"interpolateh\" point=\"ih02\" point1=\"sh04\" point2=\"ah02\"/>\\u000a          <ttc code=\"interpolateh\" point=\"ih03\" point1=\"sh01\" point2=\"sh03\"/>\\u000a          <ttc code=\"interpolateh\" point=\"ih04\" point1=\"sh04\" point2=\"ah02\"/>\\u000a          <ttc code=\"singleh\" point1=\"ah02\" point2=\"rsb\"/>\\u000a          <ttc align=\"round\" code=\"alignv\" point=\"av01\"/>\\u000a          <ttc align=\"round\" code=\"alignv\" point=\"av02\"/>\\u000a          <ttc code=\"alignt\" point=\"at01\" zone=\"t: x\"/>\\u000a          <ttc code=\"alignb\" point=\"ab01\" zone=\"b: 0\"/>\\u000a          <ttc code=\"singlev\" point1=\"at01\" point2=\"sv01\" stem=\"Y: 171\"/>\\u000a          <ttc code=\"singlev\" point1=\"ab01\" point2=\"sv02\" stem=\"Y: 171\"/>\\u000a          <ttc code=\"interpolatev\" point=\"iv01\" point1=\"sv02\" point2=\"sv01\"/>\\u000a          <ttc code=\"singlev\" point1=\"av01\" point2=\"sv03\" stem=\"Y: 171\"/>\\u000a          <ttc code=\"interpolatev\" point=\"iv02\" point1=\"sv01\" point2=\"sv02\"/>\\u000a          <ttc code=\"singlev\" point1=\"av02\" point2=\"sv04\" stem=\"Y: 171\"/>\\u000a        </ttProgram>\\u000a      </data>
p15
g4
tp16
Rp17
Ntp18
s."
EndChar
StartChar: t
Encoding: 514 116 514
GlifName: t
Width: 1300
VWidth: 0
Flags: W
LayerCount: 2
Fore
SplineSet
571 376 m 257,0,1
NamedP: "dh02"
 571 310 571 310 578.5 265.5 c 128,-1,2
 586 221 586 221 600.5 193.5 c 128,-1,3
 615 166 615 166 636.5 154.5 c 128,-1,4
 658 143 658 143 686 143 c 257,5,6
NamedP: "sv01"
 733 143 733 143 779 154 c 128,-1,7
 825 165 825 165 865 179.5 c 128,-1,8
 905 194 905 194 936 208.5 c 128,-1,9
 967 223 967 223 984 230 c 257,10,-1
 1053 109 l 257,11,12
NamedP: "fh01"
 1044 101 1044 101 1009.5 80.5 c 128,-1,13
 975 60 975 60 922.5 38 c 128,-1,14
 870 16 870 16 804 -0.5 c 128,-1,15
 738 -17 738 -17 666 -17 c 257,16,17
NamedP: "ab01"
 576 -17 576 -17 521.5 16 c 128,-1,18
 467 49 467 49 438 106 c 128,-1,19
 409 163 409 163 400 238.5 c 128,-1,20
 391 314 391 314 391 400 c 257,21,-1
NamedP: "dh01"
 391 940 l 257,22,-1
NamedP: "sv02"
 100 940 l 257,23,-1
 100 1100 l 257,24,-1
 391 1100 l 257,25,-1
NamedP: "sh01"
 391 1309 l 257,26,-1
NamedP: "mv01"
 566 1420 l 257,27,-1
NamedP: "sh02"
 566 1100 l 257,28,-1
NamedP: "sv03"
 1050 1100 l 257,29,-1
NamedP: "av01"
 1030 940 l 257,30,-1
NamedP: "sv04"
 571 940 l 257,31,-1
 571 376 l 257,0,1
NamedP: "dh02"
EndSplineSet
PickledDataWithLists: "(dp0
Vcom.adobe.type.autohint
p1
(c_codecs
encode
p2
(Vdata
p3
Vlatin1
p4
tp5
Rp6
g2
(V<data>\\u000a        <hintSetList>\\u000a          <hintset pointTag=\"dh02\">\\u000a            <hstem pos=\"-17\" width=\"160\"/>\\u000a            <hstem pos=\"940\" width=\"160\"/>\\u000a            <hstem pos=\"1420\" width=\"-20\"/>\\u000a            <vstem pos=\"201\" width=\"190\"/>\\u000a          </hintset>\\u000a        </hintSetList>\\u000a      </data>
p7
g4
tp8
Rp9
Ntp10
sVcom.fontlab.ttprogram
p11
(g2
(Vdata
p12
g4
tp13
Rp14
g2
(V<data>\\u000a        <ttProgram>\\u000a          <ttc code=\"doubleh\" point1=\"dh01\" point2=\"dh02\" stem=\"X: 190\"/>\\u000a          <ttc code=\"singleh\" point1=\"dh01\" point2=\"sh01\"/>\\u000a          <ttc align=\"round\" code=\"singleh\" point1=\"dh02\" point2=\"sh02\"/>\\u000a          <ttc align=\"round\" code=\"alignv\" point=\"sh02\"/>\\u000a          <ttc align=\"round\" code=\"alignv\" point=\"sh01\"/>\\u000a          <ttc align=\"round\" code=\"alignv\" point=\"av01\"/>\\u000a          <ttc code=\"alignb\" point=\"ab01\" zone=\"b: 0\"/>\\u000a          <ttc code=\"singlev\" point1=\"ab01\" point2=\"sv01\" stem=\"Y: 162\"/>\\u000a          <ttc code=\"mdeltav\" delta=\"6\" point=\"sh01\" ppm1=\"26\" ppm2=\"26\"/>\\u000a          <ttc code=\"mdeltav\" delta=\"8\" point=\"sh01\" ppm1=\"37\" ppm2=\"37\"/>\\u000a          <ttc code=\"mdeltav\" delta=\"6\" point=\"sh01\" ppm1=\"35\" ppm2=\"35\"/>\\u000a          <ttc code=\"mdeltav\" delta=\"5\" point=\"sh01\" ppm1=\"19\" ppm2=\"19\"/>\\u000a          <ttc code=\"singlev\" point1=\"sh01\" point2=\"sv02\" stem=\"Y: 162\"/>\\u000a          <ttc code=\"mdeltav\" delta=\"6\" point=\"mv01\" ppm1=\"19\" ppm2=\"19\"/>\\u000a          <ttc code=\"mdeltav\" delta=\"5\" point=\"mv01\" ppm1=\"26\" ppm2=\"26\"/>\\u000a          <ttc code=\"mdeltav\" delta=\"6\" point=\"sh02\" ppm1=\"19\" ppm2=\"19\"/>\\u000a          <ttc code=\"mdeltav\" delta=\"6\" point=\"sh02\" ppm1=\"26\" ppm2=\"26\"/>\\u000a          <ttc code=\"singlev\" point1=\"sh01\" point2=\"sv03\"/>\\u000a          <ttc code=\"mdeltav\" delta=\"6\" point=\"av01\" ppm1=\"35\" ppm2=\"35\"/>\\u000a          <ttc code=\"mdeltav\" delta=\"8\" point=\"av01\" ppm1=\"37\" ppm2=\"37\"/>\\u000a          <ttc code=\"mdeltav\" delta=\"6\" point=\"av01\" ppm1=\"26\" ppm2=\"26\"/>\\u000a          <ttc code=\"mdeltav\" delta=\"5\" point=\"av01\" ppm1=\"19\" ppm2=\"19\"/>\\u000a          <ttc code=\"singlev\" point1=\"sv02\" point2=\"sv04\"/>\\u000a          <ttc code=\"fdeltah\" delta=\"-1\" point=\"fh01\" ppm1=\"39\" ppm2=\"39\"/>\\u000a          <ttc code=\"fdeltav\" delta=\"2\" point=\"fh01\" ppm1=\"39\" ppm2=\"39\"/>\\u000a          <ttc code=\"fdeltav\" delta=\"4\" point=\"fh01\" ppm1=\"40\" ppm2=\"40\"/>\\u000a          <ttc code=\"fdeltav\" delta=\"5\" point=\"fh01\" ppm1=\"32\" ppm2=\"33\"/>\\u000a        </ttProgram>\\u000a      </data>
p15
g4
tp16
Rp17
Ntp18
s."
EndChar
StartChar: u
Encoding: 539 117 539
GlifName: u
Width: 1300
VWidth: 0
Flags: W
LayerCount: 2
Fore
SplineSet
931 1100 m 257
NamedP: "ah01"
 1111 1120 l 257
NamedP: "sh01"
 1111 0 l 257
NamedP: "ab01"
 931 0 l 257
NamedP: "sh02"
 931 180 l 257
NamedP: "ih01"
 870 73 l 257
 861 62 861 62 841 47 c 128
 821 32 821 32 791 17.5 c 128
 761 3 761 3 722 -7 c 128
 683 -17 683 -17 635 -17 c 257
NamedP: "ab02"
 514 -17 514 -17 432.5 20.5 c 128
 351 58 351 58 302 120 c 128
 253 182 253 182 232 263 c 128
 211 344 211 344 211 430 c 257
NamedP: "sh03"
 211 1100 l 257
 391 1120 l 257
NamedP: "av01"
 391 430 l 257
NamedP: "sh04"
 391 365 391 365 404 313 c 128
 417 261 417 261 448.5 224 c 128
 480 187 480 187 532.5 167.5 c 128
 585 148 585 148 663 148 c 257
NamedP: "sv01"
 721 148 721 148 766 164.5 c 128
 811 181 811 181 844.5 204.5 c 128
 878 228 878 228 899.5 254 c 128
 921 280 921 280 931 300 c 257
 931 1100 l 257
NamedP: "ah01"
EndSplineSet
PickledDataWithLists: "(dp0
Vcom.adobe.type.autohint
p1
(c_codecs
encode
p2
(Vdata
p3
Vlatin1
p4
tp5
Rp6
g2
(V<data>\\u000a        <hintSetList>\\u000a          <hintset pointTag=\"ah01\">\\u000a            <hstem pos=\"-17\" width=\"160\"/>\\u000a            <hstem pos=\"1120\" width=\"-20\"/>\\u000a            <vstem pos=\"201\" width=\"190\"/>\\u000a            <vstem pos=\"811\" width=\"190\"/>\\u000a          </hintset>\\u000a        </hintSetList>\\u000a      </data>
p7
g4
tp8
Rp9
Ntp10
sVcom.fontlab.ttprogram
p11
(g2
(Vdata
p12
g4
tp13
Rp14
g2
(V<data>\\u000a        <ttProgram>\\u000a          <ttc align=\"round\" code=\"alignh\" point=\"lsb\"/>\\u000a          <ttc align=\"round\" code=\"alignh\" point=\"ah01\"/>\\u000a          <ttc code=\"singleh\" point1=\"ah01\" point2=\"sh01\" stem=\"X: 190\"/>\\u000a          <ttc code=\"singleh\" point1=\"ah01\" point2=\"sh02\"/>\\u000a          <ttc align=\"round\" code=\"singleh\" point1=\"lsb\" point2=\"sh03\"/>\\u000a          <ttc code=\"interpolateh\" point=\"ih01\" point1=\"sh03\" point2=\"sh01\"/>\\u000a          <ttc code=\"singleh\" point1=\"sh03\" point2=\"sh04\" stem=\"X: 190\"/>\\u000a          <ttc code=\"singleh\" point1=\"sh01\" point2=\"rsb\"/>\\u000a          <ttc align=\"round\" code=\"alignv\" point=\"sh01\"/>\\u000a          <ttc align=\"round\" code=\"alignv\" point=\"av01\"/>\\u000a          <ttc code=\"alignb\" point=\"ab01\" zone=\"b: 0\"/>\\u000a          <ttc code=\"alignb\" point=\"ab02\" zone=\"b: 0\"/>\\u000a          <ttc code=\"mdeltav\" delta=\"-5\" point=\"sh01\" ppm1=\"42\" ppm2=\"42\"/>\\u000a          <ttc code=\"interpolatev\" point=\"ih01\" point1=\"ab02\" point2=\"sh01\"/>\\u000a          <ttc code=\"mdeltav\" delta=\"-5\" point=\"av01\" ppm1=\"42\" ppm2=\"42\"/>\\u000a          <ttc code=\"singlev\" point1=\"ab02\" point2=\"sv01\" stem=\"Y: 162\"/>\\u000a        </ttProgram>\\u000a      </data>
p15
g4
tp16
Rp17
Ntp18
s."
EndChar
StartChar: v
Encoding: 553 118 553
GlifName: v
Width: 1300
VWidth: 0
Flags: W
LayerCount: 2
Fore
SplineSet
1109 1120 m 257
NamedP: "sh02"
 738 -20 l 257
NamedP: "ab01"
 532 0 l 257
 175 1100 l 257
NamedP: "sh04"
 358 1120 l 257
NamedP: "sh03"
 597 381 l 257
 650 149 l 257
NamedP: "ah01"
 700 381 l 257
 934 1100 l 257
NamedP: "sh01"
 1109 1120 l 257
NamedP: "sh02"
EndSplineSet
PickledDataWithLists: "(dp0
Vcom.adobe.type.autohint
p1
(c_codecs
encode
p2
(Vdata
p3
Vlatin1
p4
tp5
Rp6
g2
(V<data>\\u000a        <hintSetList>\\u000a          <hintset pointTag=\"sh02\">\\u000a            <hstem pos=\"1\" width=\"-21\"/>\\u000a            <hstem pos=\"1120\" width=\"-20\"/>\\u000a          </hintset>\\u000a        </hintSetList>\\u000a      </data>
p7
g4
tp8
Rp9
Ntp10
sVcom.fontlab.ttprogram
p11
(g2
(Vdata
p12
g4
tp13
Rp14
g2
(V<data>\\u000a        <ttProgram>\\u000a          <ttc align=\"center\" code=\"alignh\" point=\"ah01\"/>\\u000a          <ttc code=\"singleh\" point1=\"ah01\" point2=\"sh01\"/>\\u000a          <ttc code=\"singleh\" point1=\"sh01\" point2=\"sh02\" stem=\"X: dia Fat\"/>\\u000a          <ttc code=\"singleh\" point1=\"ah01\" point2=\"sh03\"/>\\u000a          <ttc code=\"singleh\" point1=\"sh03\" point2=\"sh04\" stem=\"X: dia Fat\"/>\\u000a          <ttc align=\"round\" code=\"alignv\" point=\"sh02\"/>\\u000a          <ttc align=\"round\" code=\"alignv\" point=\"sh03\"/>\\u000a          <ttc code=\"alignb\" point=\"ab01\" zone=\"b: 0\"/>\\u000a          <ttc code=\"mdeltav\" delta=\"-5\" point=\"sh02\" ppm1=\"42\" ppm2=\"42\"/>\\u000a          <ttc code=\"mdeltav\" delta=\"-5\" point=\"sh03\" ppm1=\"42\" ppm2=\"42\"/>\\u000a          <ttc code=\"interpolatev\" point=\"ah01\" point1=\"ab01\" point2=\"sh02\"/>\\u000a        </ttProgram>\\u000a      </data>
p15
g4
tp16
Rp17
Ntp18
sVcom.typemytype.robofont.guides
p19
(lp20
(dp21
Vangle
p22
I0
sVisGlobal
p23
I00
sVmagnetic
p24
I5
sVx
p25
I0
sVy
p26
I381
sas."
EndChar
StartChar: w
Encoding: 555 119 555
GlifName: w
Width: 1300
VWidth: 0
Flags: W
LayerCount: 2
Fore
SplineSet
836 400 m 257
NamedP: "hr00"
 897 150 l 257
NamedP: "ah02"
 908 480 l 257
 1038 1100 l 257
NamedP: "sh01"
 1200 1120 l 257
NamedP: "sh02"
 982 0 l 257
NamedP: "ih02"
 835 0 l 257
NamedP: "ih03"
 703 348 l 257
 647 750 l 257
NamedP: "ih01"
 593 350 l 257
 462 0 l 257
NamedP: "ih04"
 315 0 l 257
NamedP: "ih05"
 100 1100 l 257
NamedP: "sh04"
 262 1120 l 257
NamedP: "sh03"
 385 480 l 257
 406 150 l 257
NamedP: "ah01"
 571 885 l 257
NamedP: "ih06"
 724 885 l 257
NamedP: "ih07"
 836 400 l 257
NamedP: "hr00"
EndSplineSet
PickledDataWithLists: "(dp0
Vcom.adobe.type.autohint
p1
(c_codecs
encode
p2
(Vdata
p3
Vlatin1
p4
tp5
Rp6
g2
(V<data>\\u000a        <hintSetList>\\u000a          <hintset pointTag=\"hr00\">\\u000a            <hstem pos=\"21\" width=\"-21\"/>\\u000a            <hstem pos=\"1120\" width=\"-20\"/>\\u000a          </hintset>\\u000a        </hintSetList>\\u000a      </data>
p7
g4
tp8
Rp9
Ntp10
sVcom.fontlab.ttprogram
p11
(g2
(Vdata
p12
g4
tp13
Rp14
g2
(V<data>\\u000a        <ttProgram>\\u000a          <ttc align=\"round\" code=\"alignh\" point=\"ah01\"/>\\u000a          <ttc align=\"round\" code=\"alignh\" point=\"ah02\"/>\\u000a          <ttc code=\"singleh\" point1=\"ah02\" point2=\"sh01\"/>\\u000a          <ttc code=\"singleh\" point1=\"sh01\" point2=\"sh02\" stem=\"X: dia Lite\"/>\\u000a          <ttc code=\"singleh\" point1=\"ah01\" point2=\"sh03\"/>\\u000a          <ttc code=\"singleh\" point1=\"sh03\" point2=\"sh04\" stem=\"X: dia Fat\"/>\\u000a          <ttc code=\"interpolateh\" point=\"ih01\" point1=\"sh04\" point2=\"sh02\"/>\\u000a          <ttc code=\"interpolateh\" point=\"ih02\" point1=\"sh02\" point2=\"ih01\"/>\\u000a          <ttc code=\"interpolateh\" point=\"ih03\" point1=\"sh02\" point2=\"sh03\"/>\\u000a          <ttc code=\"interpolateh\" point=\"ih04\" point1=\"sh04\" point2=\"sh01\"/>\\u000a          <ttc code=\"interpolateh\" point=\"ih05\" point1=\"sh04\" point2=\"ih01\"/>\\u000a          <ttc code=\"interpolateh\" point=\"ih06\" point1=\"sh04\" point2=\"sh01\"/>\\u000a          <ttc code=\"interpolateh\" point=\"ih07\" point1=\"sh02\" point2=\"sh03\"/>\\u000a          <ttc align=\"round\" code=\"alignv\" point=\"ih06\"/>\\u000a          <ttc align=\"round\" code=\"alignv\" point=\"ih07\"/>\\u000a          <ttc code=\"alignt\" point=\"sh03\" zone=\"t: x\"/>\\u000a          <ttc code=\"alignt\" point=\"sh02\" zone=\"t: x\"/>\\u000a          <ttc code=\"alignb\" point=\"ih04\" zone=\"b: 0\"/>\\u000a          <ttc code=\"alignb\" point=\"ih02\" zone=\"b: 0\"/>\\u000a          <ttc code=\"interpolatev\" point=\"ah02\" point1=\"ih02\" point2=\"sh03\"/>\\u000a          <ttc code=\"interpolatev\" point=\"ih01\" point1=\"ih02\" point2=\"sh03\"/>\\u000a          <ttc code=\"interpolatev\" point=\"ah01\" point1=\"ih02\" point2=\"sh03\"/>\\u000a        </ttProgram>\\u000a      </data>
p15
g4
tp16
Rp17
Ntp18
sVcom.typemytype.robofont.guides
p19
(lp20
(dp21
Vangle
p22
I0
sVisGlobal
p23
I00
sVmagnetic
p24
I5
sVx
p25
I0
sVy
p26
I500
sa(dp27
g22
I0
sg23
I00
sg24
I5
sg25
I0
sg26
I600
sa(dp28
g22
I90
sg23
I00
sg24
I5
sg25
I467
sg26
I0
sa(dp29
g22
I90
sg23
I00
sg24
I5
sg25
I1040
sg26
I0
sa(dp30
g22
I90
sg23
I00
sg24
I5
sg25
I743
sg26
I0
sas."
EndChar
StartChar: x
Encoding: 578 120 578
GlifName: x
Width: 1300
VWidth: 0
Flags: W
LayerCount: 2
Fore
SplineSet
962 0 m 257
NamedP: "sh01"
 683 392 l 257
NamedP: "fh01"
 638 510 l 257
NamedP: "ah02"
 593 392 l 257
NamedP: "fh02"
 305 0 l 257
NamedP: "sh02"
 106 0 l 257
NamedP: "fh03"
 528 588 l 257
NamedP: "fh04"
 160 1100 l 257
NamedP: "iv01"
 371 1120 l 257
NamedP: "sh03"
 626 771 l 257
NamedP: "fh05"
 665 660 l 257
NamedP: "ah01"
 703 771 l 257
 939 1100 l 257
NamedP: "sh04"
 1150 1120 l 257
NamedP: "av01"
 775 583 l 257
NamedP: "fh06"
 1187 0 l 257
NamedP: "fh07"
 962 0 l 257
NamedP: "sh01"
EndSplineSet
PickledDataWithLists: "(dp0
Vcom.adobe.type.autohint
p1
(c_codecs
encode
p2
(Vdata
p3
Vlatin1
p4
tp5
Rp6
g2
(V<data>\\u000a        <hintSetList>\\u000a          <hintset pointTag=\"sh01\">\\u000a            <hstem pos=\"21\" width=\"-21\"/>\\u000a            <hstem pos=\"1117\" width=\"-20\"/>\\u000a          </hintset>\\u000a        </hintSetList>\\u000a      </data>
p7
g4
tp8
Rp9
Ntp10
sVcom.fontlab.ttprogram
p11
(g2
(Vdata
p12
g4
tp13
Rp14
g2
(V<data>\\u000a        <ttProgram>\\u000a          <ttc align=\"center\" code=\"alignh\" point=\"ah01\"/>\\u000a          <ttc align=\"center\" code=\"alignh\" point=\"ah02\"/>\\u000a          <ttc code=\"singleh\" point1=\"ah02\" point2=\"sh01\"/>\\u000a          <ttc code=\"singleh\" point1=\"ah02\" point2=\"sh02\"/>\\u000a          <ttc code=\"singleh\" point1=\"ah01\" point2=\"sh03\"/>\\u000a          <ttc code=\"singleh\" point1=\"ah01\" point2=\"sh04\"/>\\u000a          <ttc align=\"round\" code=\"alignv\" point=\"sh03\"/>\\u000a          <ttc align=\"round\" code=\"alignv\" point=\"av01\"/>\\u000a          <ttc code=\"alignb\" point=\"sh01\" zone=\"b: 0\"/>\\u000a          <ttc code=\"alignb\" point=\"sh02\" zone=\"b: 0\"/>\\u000a          <ttc code=\"interpolatev\" point=\"ah02\" point1=\"sh01\" point2=\"av01\"/>\\u000a          <ttc code=\"interpolatev\" point=\"iv01\" point1=\"sh01\" point2=\"av01\"/>\\u000a          <ttc code=\"interpolatev\" point=\"ah01\" point1=\"sh01\" point2=\"av01\"/>\\u000a          <ttc code=\"fdeltah\" delta=\"1\" point=\"sh01\" ppm1=\"20\" ppm2=\"20\"/>\\u000a          <ttc code=\"fdeltah\" delta=\"3\" point=\"sh01\" ppm1=\"18\" ppm2=\"18\"/>\\u000a          <ttc code=\"fdeltah\" delta=\"4\" point=\"sh01\" ppm1=\"22\" ppm2=\"22\"/>\\u000a          <ttc code=\"fdeltah\" delta=\"7\" point=\"sh01\" ppm1=\"11\" ppm2=\"11\"/>\\u000a          <ttc code=\"fdeltah\" delta=\"3\" point=\"fh01\" ppm1=\"22\" ppm2=\"22\"/>\\u000a          <ttc code=\"fdeltah\" delta=\"6\" point=\"fh01\" ppm1=\"18\" ppm2=\"18\"/>\\u000a          <ttc code=\"fdeltah\" delta=\"8\" point=\"fh01\" ppm1=\"11\" ppm2=\"11\"/>\\u000a          <ttc code=\"fdeltah\" delta=\"2\" point=\"ah02\" ppm1=\"10\" ppm2=\"10\"/>\\u000a          <ttc code=\"fdeltah\" delta=\"6\" point=\"ah02\" ppm1=\"18\" ppm2=\"18\"/>\\u000a          <ttc code=\"fdeltah\" delta=\"7\" point=\"ah02\" ppm1=\"11\" ppm2=\"11\"/>\\u000a          <ttc code=\"fdeltah\" delta=\"5\" point=\"fh02\" ppm1=\"18\" ppm2=\"18\"/>\\u000a          <ttc code=\"fdeltah\" delta=\"8\" point=\"fh02\" ppm1=\"11\" ppm2=\"11\"/>\\u000a          <ttc code=\"fdeltah\" delta=\"3\" point=\"sh02\" ppm1=\"22\" ppm2=\"22\"/>\\u000a          <ttc code=\"fdeltah\" delta=\"8\" point=\"sh02\" ppm1=\"11\" ppm2=\"11\"/>\\u000a          <ttc code=\"fdeltah\" delta=\"8\" point=\"sh02\" ppm1=\"18\" ppm2=\"18\"/>\\u000a          <ttc code=\"fdeltah\" delta=\"1\" point=\"fh03\" ppm1=\"20\" ppm2=\"20\"/>\\u000a          <ttc code=\"fdeltah\" delta=\"2\" point=\"fh03\" ppm1=\"10\" ppm2=\"10\"/>\\u000a          <ttc code=\"fdeltah\" delta=\"2\" point=\"fh03\" ppm1=\"12\" ppm2=\"12\"/>\\u000a          <ttc code=\"fdeltah\" delta=\"6\" point=\"fh03\" ppm1=\"18\" ppm2=\"18\"/>\\u000a          <ttc code=\"fdeltah\" delta=\"6\" point=\"fh03\" ppm1=\"22\" ppm2=\"22\"/>\\u000a          <ttc code=\"fdeltah\" delta=\"7\" point=\"fh03\" ppm1=\"11\" ppm2=\"11\"/>\\u000a          <ttc code=\"fdeltah\" delta=\"-3\" point=\"fh04\" ppm1=\"22\" ppm2=\"22\"/>\\u000a          <ttc code=\"fdeltah\" delta=\"2\" point=\"fh04\" ppm1=\"15\" ppm2=\"16\"/>\\u000a          <ttc code=\"fdeltah\" delta=\"2\" point=\"fh04\" ppm1=\"18\" ppm2=\"18\"/>\\u000a          <ttc code=\"fdeltah\" delta=\"2\" point=\"fh04\" ppm1=\"20\" ppm2=\"20\"/>\\u000a          <ttc code=\"fdeltah\" delta=\"3\" point=\"fh04\" ppm1=\"14\" ppm2=\"14\"/>\\u000a          <ttc code=\"fdeltah\" delta=\"4\" point=\"fh04\" ppm1=\"10\" ppm2=\"10\"/>\\u000a          <ttc code=\"fdeltah\" delta=\"5\" point=\"fh04\" ppm1=\"11\" ppm2=\"11\"/>\\u000a          <ttc code=\"fdeltah\" delta=\"-4\" point=\"iv01\" ppm1=\"16\" ppm2=\"16\"/>\\u000a          <ttc code=\"fdeltah\" delta=\"-4\" point=\"iv01\" ppm1=\"26\" ppm2=\"26\"/>\\u000a          <ttc code=\"fdeltah\" delta=\"-3\" point=\"iv01\" ppm1=\"13\" ppm2=\"13\"/>\\u000a          <ttc code=\"fdeltah\" delta=\"-3\" point=\"iv01\" ppm1=\"17\" ppm2=\"17\"/>\\u000a          <ttc code=\"fdeltah\" delta=\"-2\" point=\"iv01\" ppm1=\"20\" ppm2=\"21\"/>\\u000a          <ttc code=\"fdeltah\" delta=\"3\" point=\"iv01\" ppm1=\"22\" ppm2=\"22\"/>\\u000a          <ttc code=\"fdeltah\" delta=\"5\" point=\"iv01\" ppm1=\"11\" ppm2=\"11\"/>\\u000a          <ttc code=\"fdeltah\" delta=\"6\" point=\"iv01\" ppm1=\"18\" ppm2=\"18\"/>\\u000a          <ttc code=\"fdeltah\" delta=\"-4\" point=\"sh03\" ppm1=\"16\" ppm2=\"16\"/>\\u000a          <ttc code=\"fdeltah\" delta=\"-3\" point=\"sh03\" ppm1=\"22\" ppm2=\"22\"/>\\u000a          <ttc code=\"fdeltah\" delta=\"-2\" point=\"fh05\" ppm1=\"25\" ppm2=\"25\"/>\\u000a          <ttc code=\"fdeltah\" delta=\"3\" point=\"sh04\" ppm1=\"16\" ppm2=\"16\"/>\\u000a          <ttc code=\"fdeltah\" delta=\"-2\" point=\"av01\" ppm1=\"20\" ppm2=\"20\"/>\\u000a          <ttc code=\"fdeltah\" delta=\"-2\" point=\"av01\" ppm1=\"24\" ppm2=\"24\"/>\\u000a          <ttc code=\"fdeltah\" delta=\"-1\" point=\"av01\" ppm1=\"12\" ppm2=\"12\"/>\\u000a          <ttc code=\"fdeltah\" delta=\"4\" point=\"av01\" ppm1=\"16\" ppm2=\"16\"/>\\u000a          <ttc code=\"fdeltah\" delta=\"4\" point=\"av01\" ppm1=\"18\" ppm2=\"18\"/>\\u000a          <ttc code=\"fdeltah\" delta=\"5\" point=\"av01\" ppm1=\"11\" ppm2=\"11\"/>\\u000a          <ttc code=\"fdeltah\" delta=\"-2\" point=\"fh06\" ppm1=\"15\" ppm2=\"15\"/>\\u000a          <ttc code=\"fdeltah\" delta=\"3\" point=\"fh06\" ppm1=\"20\" ppm2=\"20\"/>\\u000a          <ttc code=\"fdeltah\" delta=\"-4\" point=\"fh07\" ppm1=\"20\" ppm2=\"20\"/>\\u000a          <ttc code=\"fdeltah\" delta=\"-2\" point=\"fh07\" ppm1=\"12\" ppm2=\"12\"/>\\u000a          <ttc code=\"fdeltah\" delta=\"-2\" point=\"fh07\" ppm1=\"15\" ppm2=\"15\"/>\\u000a          <ttc code=\"fdeltah\" delta=\"-2\" point=\"fh07\" ppm1=\"19\" ppm2=\"19\"/>\\u000a          <ttc code=\"fdeltah\" delta=\"2\" point=\"fh07\" ppm1=\"22\" ppm2=\"22\"/>\\u000a          <ttc code=\"fdeltah\" delta=\"3\" point=\"fh07\" ppm1=\"18\" ppm2=\"18\"/>\\u000a          <ttc code=\"fdeltah\" delta=\"6\" point=\"fh07\" ppm1=\"11\" ppm2=\"11\"/>\\u000a          <ttc code=\"fdeltav\" delta=\"7\" point=\"sh03\" ppm1=\"17\" ppm2=\"17\"/>\\u000a        </ttProgram>\\u000a      </data>
p15
g4
tp16
Rp17
Ntp18
s."
EndChar
StartChar: y
Encoding: 580 121 580
GlifName: y
Width: 1300
VWidth: 0
Flags: W
LayerCount: 2
Fore
SplineSet
712 364 m 257,0,-1
NamedP: "dh02"
 981 1100 l 257,1,-1
NamedP: "sh01"
 1161 1120 l 257,2,-1
NamedP: "sh02"
 757 -17 l 257,3,4
NamedP: "ih01"
 727 -101 727 -101 692.5 -184 c 128,-1,5
 658 -267 658 -267 614.5 -333 c 128,-1,6
 571 -399 571 -399 516.5 -439.5 c 128,-1,7
 462 -480 462 -480 392 -480 c 257,8,9
NamedP: "av02"
 336 -480 336 -480 289 -458 c 128,-1,10
 242 -436 242 -436 200 -400 c 257,11,-1
NamedP: "ah01"
 273 -283 l 257,12,13
NamedP: "sh03"
 279 -289 279 -289 288.5 -297 c 128,-1,14
 298 -305 298 -305 309.5 -312.5 c 128,-1,15
 321 -320 321 -320 334.5 -325 c 128,-1,16
 348 -330 348 -330 362 -330 c 257,17,18
NamedP: "av01"
 398 -330 398 -330 427.5 -304.5 c 128,-1,19
 457 -279 457 -279 482.5 -238 c 128,-1,20
 508 -197 508 -197 529.5 -147 c 128,-1,21
 551 -97 551 -97 571 -47 c 257,22,-1
NamedP: "ab01"
 164 1100 l 257,23,-1
NamedP: "sh05"
 354 1120 l 257,24,-1
NamedP: "sh04"
 618 364 l 257,25,-1
NamedP: "dh01"
 670 132 l 257,26,-1
NamedP: "ah02"
 712 364 l 257,0,-1
NamedP: "dh02"
EndSplineSet
PickledDataWithLists: "(dp0
Vcom.adobe.type.autohint
p1
(c_codecs
encode
p2
(Vdata
p3
Vlatin1
p4
tp5
Rp6
g2
(V<data>\\u000a        <hintSetList>\\u000a          <hintset pointTag=\"dh02\">\\u000a            <hstem pos=\"-480\" width=\"152\"/>\\u000a            <hstem pos=\"1117\" width=\"-20\"/>\\u000a          </hintset>\\u000a        </hintSetList>\\u000a      </data>
p7
g4
tp8
Rp9
Ntp10
sVcom.fontlab.ttprogram
p11
(g2
(Vdata
p12
g4
tp13
Rp14
g2
(V<data>\\u000a        <ttProgram>\\u000a          <ttc align=\"round\" code=\"alignh\" point=\"ah01\"/>\\u000a          <ttc align=\"round\" code=\"alignh\" point=\"lsb\"/>\\u000a          <ttc align=\"round\" code=\"alignh\" point=\"ah02\"/>\\u000a          <ttc code=\"doubleh\" point1=\"dh01\" point2=\"dh02\" stem=\"X: 176\"/>\\u000a          <ttc code=\"singleh\" point1=\"ah02\" point2=\"sh01\"/>\\u000a          <ttc code=\"singleh\" point1=\"sh01\" point2=\"sh02\" stem=\"X: dia Lite\"/>\\u000a          <ttc code=\"singleh\" point1=\"lsb\" point2=\"sh03\" stem=\"X: 208\"/>\\u000a          <ttc code=\"interpolateh\" point=\"ih01\" point1=\"sh03\" point2=\"sh02\"/>\\u000a          <ttc code=\"singleh\" point1=\"ah02\" point2=\"sh04\"/>\\u000a          <ttc code=\"singleh\" point1=\"sh04\" point2=\"sh05\" stem=\"X: dia Fat\"/>\\u000a          <ttc align=\"round\" code=\"alignv\" point=\"av01\"/>\\u000a          <ttc align=\"round\" code=\"alignv\" point=\"av02\"/>\\u000a          <ttc code=\"alignt\" point=\"sh04\" zone=\"t: x\"/>\\u000a          <ttc code=\"alignt\" point=\"sh02\" zone=\"t: x\"/>\\u000a          <ttc code=\"alignb\" point=\"ab01\" zone=\"b: 0\"/>\\u000a        </ttProgram>\\u000a      </data>
p15
g4
tp16
Rp17
Ntp18
sVcom.typemytype.robofont.guides
p19
(lp20
(dp21
Vangle
p22
I90
sVisGlobal
p23
I00
sVmagnetic
p24
I5
sVx
p25
I550
sVy
p26
I0
sas."
EndChar
StartChar: z
Encoding: 584 122 584
GlifName: z
Width: 1300
VWidth: 0
Flags: W
LayerCount: 2
Fore
SplineSet
1100 160 m 257,0,-1
NamedP: "sv01"
 1120 0 l 257,1,-1
NamedP: "ab01"
 201 0 l 257,2,-1
 181 50 l 257,3,-1
 684 826 l 257,4,-1
 876 980 l 257,5,-1
 631 940 l 257,6,-1
 268 940 l 257,7,-1
NamedP: "sv03"
 248 1100 l 257,8,-1
NamedP: "sv02"
 1032 1100 l 257,9,-1
NamedP: "mh01"
 1052 1051 l 257,10,-1
 563 280 l 257,11,-1
 372 120 l 257,12,-1
NamedP: "iv01"
 537 160 l 257,13,-1
 1100 160 l 257,0,-1
NamedP: "sv01"
EndSplineSet
PickledDataWithLists: "(dp0
Vcom.adobe.type.autohint
p1
(c_codecs
encode
p2
(Vdata
p3
Vlatin1
p4
tp5
Rp6
g2
(V<data>\\u000a        <hintSetList>\\u000a          <hintset pointTag=\"sv01\">\\u000a            <hstem pos=\"0\" width=\"160\"/>\\u000a            <hstem pos=\"940\" width=\"160\"/>\\u000a          </hintset>\\u000a        </hintSetList>\\u000a      </data>
p7
g4
tp8
Rp9
Ntp10
sVcom.fontlab.ttprogram
p11
(g2
(Vdata
p12
g4
tp13
Rp14
g2
(V<data>\\u000a        <ttProgram>\\u000a          <ttc code=\"mdeltah\" delta=\"-1\" point=\"mh01\" ppm1=\"39\" ppm2=\"39\"/>\\u000a          <ttc align=\"round\" code=\"alignv\" point=\"mh01\"/>\\u000a          <ttc code=\"alignb\" point=\"ab01\" zone=\"b: 0\"/>\\u000a          <ttc code=\"singlev\" point1=\"ab01\" point2=\"sv01\" stem=\"Y: 162\"/>\\u000a          <ttc code=\"mdeltav\" delta=\"8\" point=\"mh01\" ppm1=\"26\" ppm2=\"26\"/>\\u000a          <ttc code=\"mdeltav\" delta=\"8\" point=\"mh01\" ppm1=\"28\" ppm2=\"28\"/>\\u000a          <ttc code=\"mdeltav\" delta=\"8\" point=\"mh01\" ppm1=\"39\" ppm2=\"39\"/>\\u000a          <ttc code=\"mdeltav\" delta=\"8\" point=\"mh01\" ppm1=\"37\" ppm2=\"37\"/>\\u000a          <ttc code=\"mdeltav\" delta=\"8\" point=\"mh01\" ppm1=\"35\" ppm2=\"35\"/>\\u000a          <ttc code=\"mdeltav\" delta=\"8\" point=\"mh01\" ppm1=\"17\" ppm2=\"17\"/>\\u000a          <ttc code=\"mdeltav\" delta=\"8\" point=\"mh01\" ppm1=\"19\" ppm2=\"19\"/>\\u000a          <ttc code=\"singlev\" point1=\"mh01\" point2=\"sv02\"/>\\u000a          <ttc code=\"singlev\" point1=\"sv02\" point2=\"sv03\" stem=\"Y: 162\"/>\\u000a          <ttc code=\"interpolatev\" point=\"iv01\" point1=\"ab01\" point2=\"sv01\"/>\\u000a          <ttc code=\"fdeltah\" delta=\"4\" point=\"mh01\" ppm1=\"10\" ppm2=\"10\"/>\\u000a        </ttProgram>\\u000a      </data>
p15
g4
tp16
Rp17
Ntp18
s."
EndChar
